<?xml version="1.0" encoding="UTF-8" standalone="no"?><svg xmlns="http://www.w3.org/2000/svg" xmlns:xlink="http://www.w3.org/1999/xlink" contentScriptType="application/ecmascript" contentStyleType="text/css" height="476px" preserveAspectRatio="none" style="width:592px;height:476px;" version="1.1" viewBox="0 0 592 476" width="592px" zoomAndPan="magnify"><defs><filter height="300%" id="fcdjhxbaj05fv" width="300%" x="-1" y="-1"><feGaussianBlur result="blurOut" stdDeviation="2.0"/><feColorMatrix in="blurOut" result="blurOut2" type="matrix" values="0 0 0 0 0 0 0 0 0 0 0 0 0 0 0 0 0 0 .4 0"/><feOffset dx="4.0" dy="4.0" in="blurOut2" result="blurOut3"/><feBlend in="SourceGraphic" in2="blurOut3" mode="normal"/></filter></defs><g><rect fill="#FFFFFF" filter="url(#fcdjhxbaj05fv)" height="376.5703" style="stroke: #A80036; stroke-width: 1.0;" width="10" x="52" y="49.6094"/><rect fill="#FFFFFF" filter="url(#fcdjhxbaj05fv)" height="104.0547" style="stroke: #A80036; stroke-width: 1.0;" width="10" x="57" y="193.3672"/><rect fill="#FFFFFF" filter="url(#fcdjhxbaj05fv)" height="345.2188" style="stroke: #A80036; stroke-width: 1.0;" width="10" x="212" y="71.9609"/><rect fill="#FFFFFF" filter="url(#fcdjhxbaj05fv)" height="376.5703" style="stroke: #A80036; stroke-width: 1.0;" width="10" x="362" y="49.6094"/><rect fill="#FFFFFF" filter="url(#fcdjhxbaj05fv)" height="59.8789" style="stroke: #A80036; stroke-width: 1.0;" width="10" x="367" y="357.3008"/><line style="stroke: #A80036; stroke-width: 1.0; stroke-dasharray: 5.0,5.0;" x1="57" x2="57" y1="39.6094" y2="435.1797"/><line style="stroke: #A80036; stroke-width: 1.0; stroke-dasharray: 5.0,5.0;" x1="217" x2="217" y1="39.6094" y2="435.1797"/><line style="stroke: #A80036; stroke-width: 1.0; stroke-dasharray: 5.0,5.0;" x1="367" x2="367" y1="39.6094" y2="435.1797"/><rect fill="#FEFECE" filter="url(#fcdjhxbaj05fv)" height="31.6094" style="stroke: #A80036; stroke-width: 1.5;" width="94" x="8" y="3"/><text fill="#000000" font-family="sans-serif" font-size="14" lengthAdjust="spacingAndGlyphs" textLength="80" x="15" y="24.5332">Parser Logic</text><rect fill="#FEFECE" filter="url(#fcdjhxbaj05fv)" height="31.6094" style="stroke: #A80036; stroke-width: 1.5;" width="94" x="8" y="434.1797"/><text fill="#000000" font-family="sans-serif" font-size="14" lengthAdjust="spacingAndGlyphs" textLength="80" x="15" y="455.7129">Parser Logic</text><rect fill="#FEFECE" filter="url(#fcdjhxbaj05fv)" height="31.6094" style="stroke: #A80036; stroke-width: 1.5;" width="104" x="163" y="3"/><text fill="#000000" font-family="sans-serif" font-size="14" lengthAdjust="spacingAndGlyphs" textLength="90" x="170" y="24.5332">:ArgCommand</text><rect fill="#FEFECE" filter="url(#fcdjhxbaj05fv)" height="31.6094" style="stroke: #A80036; stroke-width: 1.5;" width="104" x="163" y="434.1797"/><text fill="#000000" font-family="sans-serif" font-size="14" lengthAdjust="spacingAndGlyphs" textLength="90" x="170" y="455.7129">:ArgCommand</text><rect fill="#FEFECE" filter="url(#fcdjhxbaj05fv)" height="31.6094" style="stroke: #A80036; stroke-width: 1.5;" width="72" x="329" y="3"/><text fill="#000000" font-family="sans-serif" font-size="14" lengthAdjust="spacingAndGlyphs" textLength="58" x="336" y="24.5332">:ArgSpec</text><rect fill="#FEFECE" filter="url(#fcdjhxbaj05fv)" height="31.6094" style="stroke: #A80036; stroke-width: 1.5;" width="72" x="329" y="434.1797"/><text fill="#000000" font-family="sans-serif" font-size="14" lengthAdjust="spacingAndGlyphs" textLength="58" x="336" y="455.7129">:ArgSpec</text><rect fill="#FFFFFF" filter="url(#fcdjhxbaj05fv)" height="376.5703" style="stroke: #A80036; stroke-width: 1.0;" width="10" x="52" y="49.6094"/><rect fill="#FFFFFF" filter="url(#fcdjhxbaj05fv)" height="104.0547" style="stroke: #A80036; stroke-width: 1.0;" width="10" x="57" y="193.3672"/><rect fill="#FFFFFF" filter="url(#fcdjhxbaj05fv)" height="345.2188" style="stroke: #A80036; stroke-width: 1.0;" width="10" x="212" y="71.9609"/><rect fill="#FFFFFF" filter="url(#fcdjhxbaj05fv)" height="376.5703" style="stroke: #A80036; stroke-width: 1.0;" width="10" x="362" y="49.6094"/><rect fill="#FFFFFF" filter="url(#fcdjhxbaj05fv)" height="59.8789" style="stroke: #A80036; stroke-width: 1.0;" width="10" x="367" y="357.3008"/><polygon fill="#A80036" points="200,67.9609,210,71.9609,200,75.9609,204,71.9609" style="stroke: #A80036; stroke-width: 1.0;"/><line style="stroke: #A80036; stroke-width: 1.0;" x1="62" x2="206" y1="71.9609" y2="71.9609"/><text fill="#000000" font-family="sans-serif" font-size="13" lengthAdjust="spacingAndGlyphs" textLength="56" x="69" y="67.1045">Construct</text><polygon fill="#A80036" points="200,98.3125,210,102.3125,200,106.3125,204,102.3125" style="stroke: #A80036; stroke-width: 1.0;"/><line style="stroke: #A80036; stroke-width: 1.0;" x1="62" x2="206" y1="102.3125" y2="102.3125"/><text fill="#000000" font-family="sans-serif" font-size="13" lengthAdjust="spacingAndGlyphs" textLength="126" x="69" y="97.4561">Request Specification</text><polygon fill="#A80036" points="350,128.6641,360,132.6641,350,136.6641,354,132.6641" style="stroke: #A80036; stroke-width: 1.0;"/><line style="stroke: #A80036; stroke-width: 1.0;" x1="222" x2="356" y1="132.6641" y2="132.6641"/><text fill="#000000" font-family="sans-serif" font-size="13" lengthAdjust="spacingAndGlyphs" textLength="99" x="229" y="127.8076">Get Specification</text><polygon fill="#A80036" points="233,159.0156,223,163.0156,233,167.0156,229,163.0156" style="stroke: #A80036; stroke-width: 1.0;"/><line style="stroke: #A80036; stroke-width: 1.0; stroke-dasharray: 2.0,2.0;" x1="227" x2="361" y1="163.0156" y2="163.0156"/><text fill="#000000" font-family="sans-serif" font-size="13" lengthAdjust="spacingAndGlyphs" textLength="116" x="239" y="158.1592">Return Specification</text><polygon fill="#A80036" points="78,189.3672,68,193.3672,78,197.3672,74,193.3672" style="stroke: #A80036; stroke-width: 1.0;"/><line style="stroke: #A80036; stroke-width: 1.0; stroke-dasharray: 2.0,2.0;" x1="72" x2="211" y1="193.3672" y2="193.3672"/><text fill="#000000" font-family="sans-serif" font-size="13" lengthAdjust="spacingAndGlyphs" textLength="116" x="84" y="188.5107">Return Specification</text><line style="stroke: #A80036; stroke-width: 1.0;" x1="67" x2="109" y1="223.7188" y2="223.7188"/><line style="stroke: #A80036; stroke-width: 1.0;" x1="109" x2="109" y1="223.7188" y2="236.7188"/><line style="stroke: #A80036; stroke-width: 1.0;" x1="68" x2="109" y1="236.7188" y2="236.7188"/><polygon fill="#A80036" points="78,232.7188,68,236.7188,78,240.7188,74,236.7188" style="stroke: #A80036; stroke-width: 1.0;"/><text fill="#000000" font-family="sans-serif" font-size="13" lengthAdjust="spacingAndGlyphs" textLength="34" x="74" y="218.8623">Parse</text><polygon fill="#A80036" points="200,263.0703,210,267.0703,200,271.0703,204,267.0703" style="stroke: #A80036; stroke-width: 1.0;"/><line style="stroke: #A80036; stroke-width: 1.0;" x1="67" x2="206" y1="267.0703" y2="267.0703"/><text fill="#000000" font-family="sans-serif" font-size="13" lengthAdjust="spacingAndGlyphs" textLength="99" x="74" y="262.2139">Load Parameters</text><polygon fill="#A80036" points="200,293.4219,210,297.4219,200,301.4219,204,297.4219" style="stroke: #A80036; stroke-width: 1.0;"/><line style="stroke: #A80036; stroke-width: 1.0;" x1="62" x2="206" y1="297.4219" y2="297.4219"/><text fill="#000000" font-family="sans-serif" font-size="13" lengthAdjust="spacingAndGlyphs" textLength="54" x="69" y="292.5654">execute()</text><polygon fill="#A80036" points="355,353.3008,365,357.3008,355,361.3008,359,357.3008" style="stroke: #A80036; stroke-width: 1.0;"/><line style="stroke: #A80036; stroke-width: 1.0;" x1="222" x2="361" y1="357.3008" y2="357.3008"/><text fill="#000000" font-family="sans-serif" font-size="13" lengthAdjust="spacingAndGlyphs" textLength="108" x="229" y="352.4443">executeWithCmd()</text><path d="M382,310.4219 L382,385.4219 L577,385.4219 L577,320.4219 L567,310.4219 L382,310.4219 " fill="#FBFB77" filter="url(#fcdjhxbaj05fv)" style="stroke: #A80036; stroke-width: 1.0;"/><path d="M567,310.4219 L567,320.4219 L577,320.4219 L567,310.4219 " fill="#FBFB77" style="stroke: #A80036; stroke-width: 1.0;"/><text fill="#000000" font-family="sans-serif" font-size="13" lengthAdjust="spacingAndGlyphs" textLength="167" x="388" y="328.917">This provides ArgSpec with a</text><text fill="#000000" font-family="sans-serif" font-size="13" lengthAdjust="spacingAndGlyphs" textLength="170" x="388" y="345.2686">reference to ArgCommand, to</text><text fill="#000000" font-family="sans-serif" font-size="13" lengthAdjust="spacingAndGlyphs" textLength="142" x="388" y="361.6201">allow it to access switch</text><text fill="#000000" font-family="sans-serif" font-size="13" lengthAdjust="spacingAndGlyphs" textLength="119" x="388" y="377.9717">and argument values</text><polygon fill="#A80036" points="574,413.1797,584,417.1797,574,421.1797,578,417.1797" style="stroke: #A80036; stroke-width: 1.0;"/><line style="stroke: #A80036; stroke-width: 1.0;" x1="372" x2="580" y1="417.1797" y2="417.1797"/><text fill="#000000" font-family="sans-serif" font-size="13" lengthAdjust="spacingAndGlyphs" textLength="54" x="379" y="412.3232">execute()</text><line style="stroke: #A80036; stroke-width: 2.0;" x1="208" x2="226" y1="408.1797" y2="426.1797"/><line style="stroke: #A80036; stroke-width: 2.0;" x1="208" x2="226" y1="426.1797" y2="408.1797"/><!--MD5=[6cb37acee1c6f69324673507906896d8]
@startuml
participant "Parser Logic"
participant ":ArgCommand"
participant ":ArgSpec"

activate "Parser Logic"
activate ":ArgSpec"
"Parser Logic" -> ":ArgCommand" : Construct
activate ":ArgCommand"

"Parser Logic" -> ":ArgCommand" : Request Specification
":ArgCommand" -> ":ArgSpec" : Get Specification
":ArgCommand" <- - ":ArgSpec" : Return Specification
"Parser Logic" <- - ":ArgCommand" : Return Specification

activate "Parser Logic"
"Parser Logic" -> "Parser Logic" : Parse
"Parser Logic" -> ":ArgCommand" : Load Parameters
"Parser Logic" -> ":ArgCommand" : execute()
deactivate "Parser Logic"

":ArgCommand" -> ":ArgSpec" : executeWithCmd()
note right
  This provides ArgSpec with a
  reference to ArgCommand, to 
  allow it to access switch 
  and argument values
end note
activate ":ArgSpec"
":ArgSpec" ->] : execute()
deactivate ":ArgSpec"
destroy ":ArgCommand"
@enduml

PlantUML version 1.2019.11(Sun Sep 22 18:02:15 SGT 2019)
(GPL source distribution)
Java Runtime: OpenJDK Runtime Environment
JVM: OpenJDK 64-Bit Server VM
Java Version: 11+28
Operating System: Windows 10
Default Encoding: Cp1252
Language: en
Country: SG
--></g></svg>