<?xml version="1.0" encoding="UTF-8" standalone="no"?><svg xmlns="http://www.w3.org/2000/svg" xmlns:xlink="http://www.w3.org/1999/xlink" contentScriptType="application/ecmascript" contentStyleType="text/css" height="503px" preserveAspectRatio="none" style="width:672px;height:503px;" version="1.1" viewBox="0 0 672 503" width="672px" zoomAndPan="magnify"><defs><filter height="300%" id="f1dnmb6esufm07" width="300%" x="-1" y="-1"><feGaussianBlur result="blurOut" stdDeviation="2.0"/><feColorMatrix in="blurOut" result="blurOut2" type="matrix" values="0 0 0 0 0 0 0 0 0 0 0 0 0 0 0 0 0 0 .4 0"/><feOffset dx="4.0" dy="4.0" in="blurOut2" result="blurOut3"/><feBlend in="SourceGraphic" in2="blurOut3" mode="normal"/></filter></defs><g><rect fill="#FFFFFF" filter="url(#f1dnmb6esufm07)" height="403.5703" style="stroke: #A80036; stroke-width: 1.0;" width="10" x="52" y="49.6094"/><rect fill="#FFFFFF" filter="url(#f1dnmb6esufm07)" height="118.0547" style="stroke: #A80036; stroke-width: 1.0;" width="10" x="57" y="163.0156"/><rect fill="#FFFFFF" filter="url(#f1dnmb6esufm07)" height="372.2188" style="stroke: #A80036; stroke-width: 1.0;" width="10" x="292" y="71.9609"/><rect fill="#FFFFFF" filter="url(#f1dnmb6esufm07)" height="403.5703" style="stroke: #A80036; stroke-width: 1.0;" width="10" x="442" y="49.6094"/><rect fill="#FFFFFF" filter="url(#f1dnmb6esufm07)" height="103.2305" style="stroke: #A80036; stroke-width: 1.0;" width="10" x="447" y="340.9492"/><line style="stroke: #A80036; stroke-width: 1.0; stroke-dasharray: 5.0,5.0;" x1="57" x2="57" y1="39.6094" y2="462.1797"/><line style="stroke: #A80036; stroke-width: 1.0; stroke-dasharray: 5.0,5.0;" x1="297" x2="297" y1="39.6094" y2="462.1797"/><line style="stroke: #A80036; stroke-width: 1.0; stroke-dasharray: 5.0,5.0;" x1="447" x2="447" y1="39.6094" y2="462.1797"/><rect fill="#FEFECE" filter="url(#f1dnmb6esufm07)" height="31.6094" style="stroke: #A80036; stroke-width: 1.5;" width="94" x="8" y="3"/><text fill="#000000" font-family="sans-serif" font-size="14" lengthAdjust="spacingAndGlyphs" textLength="80" x="15" y="24.5332">Parser Logic</text><rect fill="#FEFECE" filter="url(#f1dnmb6esufm07)" height="31.6094" style="stroke: #A80036; stroke-width: 1.5;" width="94" x="8" y="461.1797"/><text fill="#000000" font-family="sans-serif" font-size="14" lengthAdjust="spacingAndGlyphs" textLength="80" x="15" y="482.7129">Parser Logic</text><rect fill="#FEFECE" filter="url(#f1dnmb6esufm07)" height="31.6094" style="stroke: #A80036; stroke-width: 1.5;" width="104" x="243" y="3"/><text fill="#000000" font-family="sans-serif" font-size="14" lengthAdjust="spacingAndGlyphs" textLength="90" x="250" y="24.5332">:ArgCommand</text><rect fill="#FEFECE" filter="url(#f1dnmb6esufm07)" height="31.6094" style="stroke: #A80036; stroke-width: 1.5;" width="104" x="243" y="461.1797"/><text fill="#000000" font-family="sans-serif" font-size="14" lengthAdjust="spacingAndGlyphs" textLength="90" x="250" y="482.7129">:ArgCommand</text><rect fill="#FEFECE" filter="url(#f1dnmb6esufm07)" height="31.6094" style="stroke: #A80036; stroke-width: 1.5;" width="72" x="409" y="3"/><text fill="#000000" font-family="sans-serif" font-size="14" lengthAdjust="spacingAndGlyphs" textLength="58" x="416" y="24.5332">:ArgSpec</text><rect fill="#FEFECE" filter="url(#f1dnmb6esufm07)" height="31.6094" style="stroke: #A80036; stroke-width: 1.5;" width="72" x="409" y="461.1797"/><text fill="#000000" font-family="sans-serif" font-size="14" lengthAdjust="spacingAndGlyphs" textLength="58" x="416" y="482.7129">:ArgSpec</text><rect fill="#FFFFFF" filter="url(#f1dnmb6esufm07)" height="403.5703" style="stroke: #A80036; stroke-width: 1.0;" width="10" x="52" y="49.6094"/><rect fill="#FFFFFF" filter="url(#f1dnmb6esufm07)" height="118.0547" style="stroke: #A80036; stroke-width: 1.0;" width="10" x="57" y="163.0156"/><rect fill="#FFFFFF" filter="url(#f1dnmb6esufm07)" height="372.2188" style="stroke: #A80036; stroke-width: 1.0;" width="10" x="292" y="71.9609"/><rect fill="#FFFFFF" filter="url(#f1dnmb6esufm07)" height="403.5703" style="stroke: #A80036; stroke-width: 1.0;" width="10" x="442" y="49.6094"/><rect fill="#FFFFFF" filter="url(#f1dnmb6esufm07)" height="103.2305" style="stroke: #A80036; stroke-width: 1.0;" width="10" x="447" y="340.9492"/><polygon fill="#A80036" points="280,67.9609,290,71.9609,280,75.9609,284,71.9609" style="stroke: #A80036; stroke-width: 1.0;"/><line style="stroke: #A80036; stroke-width: 1.0;" x1="62" x2="286" y1="71.9609" y2="71.9609"/><text fill="#000000" font-family="sans-serif" font-size="13" lengthAdjust="spacingAndGlyphs" textLength="211" x="69" y="67.1045">Construct and Request Specification</text><polygon fill="#A80036" points="430,98.3125,440,102.3125,430,106.3125,434,102.3125" style="stroke: #A80036; stroke-width: 1.0;"/><line style="stroke: #A80036; stroke-width: 1.0;" x1="302" x2="436" y1="102.3125" y2="102.3125"/><text fill="#000000" font-family="sans-serif" font-size="13" lengthAdjust="spacingAndGlyphs" textLength="99" x="309" y="97.4561">Get Specification</text><polygon fill="#A80036" points="313,128.6641,303,132.6641,313,136.6641,309,132.6641" style="stroke: #A80036; stroke-width: 1.0;"/><line style="stroke: #A80036; stroke-width: 1.0; stroke-dasharray: 2.0,2.0;" x1="307" x2="441" y1="132.6641" y2="132.6641"/><text fill="#000000" font-family="sans-serif" font-size="13" lengthAdjust="spacingAndGlyphs" textLength="116" x="319" y="127.8076">Return Specification</text><polygon fill="#A80036" points="78,159.0156,68,163.0156,78,167.0156,74,163.0156" style="stroke: #A80036; stroke-width: 1.0;"/><line style="stroke: #A80036; stroke-width: 1.0; stroke-dasharray: 2.0,2.0;" x1="72" x2="291" y1="163.0156" y2="163.0156"/><text fill="#000000" font-family="sans-serif" font-size="13" lengthAdjust="spacingAndGlyphs" textLength="116" x="84" y="158.1592">Return Specification</text><line style="stroke: #A80036; stroke-width: 1.0;" x1="67" x2="109" y1="193.3672" y2="193.3672"/><line style="stroke: #A80036; stroke-width: 1.0;" x1="109" x2="109" y1="193.3672" y2="206.3672"/><line style="stroke: #A80036; stroke-width: 1.0;" x1="68" x2="109" y1="206.3672" y2="206.3672"/><polygon fill="#A80036" points="78,202.3672,68,206.3672,78,210.3672,74,206.3672" style="stroke: #A80036; stroke-width: 1.0;"/><text fill="#000000" font-family="sans-serif" font-size="13" lengthAdjust="spacingAndGlyphs" textLength="34" x="74" y="188.5107">Parse</text><polygon fill="#A80036" points="280,232.7188,290,236.7188,280,240.7188,284,236.7188" style="stroke: #A80036; stroke-width: 1.0;"/><line style="stroke: #A80036; stroke-width: 1.0;" x1="67" x2="286" y1="236.7188" y2="236.7188"/><text fill="#000000" font-family="sans-serif" font-size="13" lengthAdjust="spacingAndGlyphs" textLength="99" x="74" y="231.8623">Load Parameters</text><polygon fill="#A80036" points="78,246.7188,68,250.7188,78,254.7188,74,250.7188" style="stroke: #A80036; stroke-width: 1.0;"/><line style="stroke: #A80036; stroke-width: 1.0; stroke-dasharray: 2.0,2.0;" x1="72" x2="291" y1="250.7188" y2="250.7188"/><polygon fill="#A80036" points="280,277.0703,290,281.0703,280,285.0703,284,281.0703" style="stroke: #A80036; stroke-width: 1.0;"/><line style="stroke: #A80036; stroke-width: 1.0;" x1="62" x2="286" y1="281.0703" y2="281.0703"/><text fill="#000000" font-family="sans-serif" font-size="13" lengthAdjust="spacingAndGlyphs" textLength="54" x="69" y="276.2139">execute()</text><polygon fill="#A80036" points="435,336.9492,445,340.9492,435,344.9492,439,340.9492" style="stroke: #A80036; stroke-width: 1.0;"/><line style="stroke: #A80036; stroke-width: 1.0;" x1="302" x2="441" y1="340.9492" y2="340.9492"/><text fill="#000000" font-family="sans-serif" font-size="13" lengthAdjust="spacingAndGlyphs" textLength="108" x="309" y="336.0928">executeWithCmd()</text><path d="M462,294.0703 L462,369.0703 L657,369.0703 L657,304.0703 L647,294.0703 L462,294.0703 " fill="#FBFB77" filter="url(#f1dnmb6esufm07)" style="stroke: #A80036; stroke-width: 1.0;"/><path d="M647,294.0703 L647,304.0703 L657,304.0703 L647,294.0703 " fill="#FBFB77" style="stroke: #A80036; stroke-width: 1.0;"/><text fill="#000000" font-family="sans-serif" font-size="13" lengthAdjust="spacingAndGlyphs" textLength="167" x="468" y="312.5654">This provides ArgSpec with a</text><text fill="#000000" font-family="sans-serif" font-size="13" lengthAdjust="spacingAndGlyphs" textLength="170" x="468" y="328.917">reference to ArgCommand, to</text><text fill="#000000" font-family="sans-serif" font-size="13" lengthAdjust="spacingAndGlyphs" textLength="142" x="468" y="345.2686">allow it to access switch</text><text fill="#000000" font-family="sans-serif" font-size="13" lengthAdjust="spacingAndGlyphs" textLength="119" x="468" y="361.6201">and argument values</text><line style="stroke: #A80036; stroke-width: 1.0;" x1="457" x2="499" y1="400.8281" y2="400.8281"/><line style="stroke: #A80036; stroke-width: 1.0;" x1="499" x2="499" y1="400.8281" y2="413.8281"/><line style="stroke: #A80036; stroke-width: 1.0;" x1="458" x2="499" y1="413.8281" y2="413.8281"/><polygon fill="#A80036" points="468,409.8281,458,413.8281,468,417.8281,464,413.8281" style="stroke: #A80036; stroke-width: 1.0;"/><text fill="#000000" font-family="sans-serif" font-size="13" lengthAdjust="spacingAndGlyphs" textLength="54" x="464" y="395.9717">execute()</text><polygon fill="#A80036" points="654,440.1797,664,444.1797,654,448.1797,658,444.1797" style="stroke: #A80036; stroke-width: 1.0;"/><line style="stroke: #A80036; stroke-width: 1.0;" x1="452" x2="660" y1="444.1797" y2="444.1797"/><text fill="#000000" font-family="sans-serif" font-size="13" lengthAdjust="spacingAndGlyphs" textLength="166" x="459" y="439.3232">Return Results via DukeCore</text><line style="stroke: #A80036; stroke-width: 2.0;" x1="288" x2="306" y1="435.1797" y2="453.1797"/><line style="stroke: #A80036; stroke-width: 2.0;" x1="288" x2="306" y1="453.1797" y2="435.1797"/><!--MD5=[0caa7e80e374cee03a04f12e9e728a7f]
@startuml
participant "Parser Logic"
participant ":ArgCommand"
participant ":ArgSpec"

activate "Parser Logic"
activate ":ArgSpec"
"Parser Logic" -> ":ArgCommand" : Construct and Request Specification
activate ":ArgCommand"

":ArgCommand" -> ":ArgSpec" : Get Specification
":ArgCommand" <- - ":ArgSpec" : Return Specification
"Parser Logic" <- - ":ArgCommand" : Return Specification

activate "Parser Logic"
"Parser Logic" -> "Parser Logic" : Parse
"Parser Logic" -> ":ArgCommand" : Load Parameters
"Parser Logic" <- - ":ArgCommand"
"Parser Logic" -> ":ArgCommand" : execute()
deactivate "Parser Logic"

":ArgCommand" -> ":ArgSpec" : executeWithCmd()
note right
  This provides ArgSpec with a
  reference to ArgCommand, to 
  allow it to access switch 
  and argument values
end note
activate ":ArgSpec"
":ArgSpec" -> ":ArgSpec" : execute()
":ArgSpec" ->] : Return Results via DukeCore
deactivate ":ArgSpec"
destroy ":ArgCommand"
@enduml

PlantUML version 1.2019.11(Sun Sep 22 18:02:15 SGT 2019)
(GPL source distribution)
Java Runtime: OpenJDK Runtime Environment
JVM: OpenJDK 64-Bit Server VM
Java Version: 11+28
Operating System: Windows 10
Default Encoding: Cp1252
Language: en
Country: SG
--></g></svg>