<?xml version="1.0" encoding="UTF-8" standalone="no"?><svg xmlns="http://www.w3.org/2000/svg" xmlns:xlink="http://www.w3.org/1999/xlink" contentScriptType="application/ecmascript" contentStyleType="text/css" height="583px" preserveAspectRatio="none" style="width:1012px;height:583px;" version="1.1" viewBox="0 0 1012 583" width="1012px" zoomAndPan="magnify"><defs><filter height="300%" id="fooc3jrnukhhn" width="300%" x="-1" y="-1"><feGaussianBlur result="blurOut" stdDeviation="2.0"/><feColorMatrix in="blurOut" result="blurOut2" type="matrix" values="0 0 0 0 0 0 0 0 0 0 0 0 0 0 0 0 0 0 .4 0"/><feOffset dx="4.0" dy="4.0" in="blurOut2" result="blurOut3"/><feBlend in="SourceGraphic" in2="blurOut3" mode="normal"/></filter></defs><g><rect fill="#FFFFFF" filter="url(#fooc3jrnukhhn)" height="387.8672" style="stroke: #A80036; stroke-width: 1.0;" width="10" x="152.5" y="97.6094"/><rect fill="#FFFFFF" filter="url(#fooc3jrnukhhn)" height="387.8672" style="stroke: #A80036; stroke-width: 1.0;" width="10" x="152.5" y="97.6094"/><rect fill="#FFFFFF" filter="url(#fooc3jrnukhhn)" height="387.8672" style="stroke: #A80036; stroke-width: 1.0;" width="10" x="284" y="97.6094"/><rect fill="#FFFFFF" filter="url(#fooc3jrnukhhn)" height="387.8672" style="stroke: #A80036; stroke-width: 1.0;" width="10" x="393.5" y="97.6094"/><rect fill="#FFFFFF" filter="url(#fooc3jrnukhhn)" height="60.3516" style="stroke: #A80036; stroke-width: 1.0;" width="10" x="398.5" y="150.3125"/><rect fill="#FFFFFF" filter="url(#fooc3jrnukhhn)" height="109.0547" style="stroke: #A80036; stroke-width: 1.0;" width="10" x="398.5" y="246.0156"/><rect fill="#FFFFFF" filter="url(#fooc3jrnukhhn)" height="387.8672" style="stroke: #A80036; stroke-width: 1.0;" width="10" x="695.5" y="97.6094"/><rect fill="#FFFFFF" filter="url(#fooc3jrnukhhn)" height="295.8125" style="stroke: #A80036; stroke-width: 1.0;" width="10" x="787" y="180.6641"/><line style="stroke: #A80036; stroke-width: 1.0; stroke-dasharray: 5.0,5.0;" x1="25" x2="25" y1="87.6094" y2="494.4766"/><line style="stroke: #A80036; stroke-width: 1.0; stroke-dasharray: 5.0,5.0;" x1="152.5" x2="152.5" y1="87.6094" y2="494.4766"/><line style="stroke: #A80036; stroke-width: 1.0; stroke-dasharray: 5.0,5.0;" x1="288.5" x2="288.5" y1="87.6094" y2="494.4766"/><line style="stroke: #A80036; stroke-width: 1.0; stroke-dasharray: 5.0,5.0;" x1="398.5" x2="398.5" y1="87.6094" y2="494.4766"/><line style="stroke: #A80036; stroke-width: 1.0; stroke-dasharray: 5.0,5.0;" x1="700" x2="700" y1="87.6094" y2="494.4766"/><line style="stroke: #A80036; stroke-width: 1.0; stroke-dasharray: 5.0,5.0;" x1="792" x2="792" y1="87.6094" y2="494.4766"/><text fill="#000000" font-family="sans-serif" font-size="14" lengthAdjust="spacingAndGlyphs" textLength="29" x="8" y="84.5332">User</text><ellipse cx="25.5" cy="13" fill="#FEFECE" filter="url(#fooc3jrnukhhn)" rx="8" ry="8" style="stroke: #A80036; stroke-width: 2.0;"/><path d="M25.5,21 L25.5,48 M12.5,29 L38.5,29 M25.5,48 L12.5,63 M25.5,48 L38.5,63 " fill="none" filter="url(#fooc3jrnukhhn)" style="stroke: #A80036; stroke-width: 2.0;"/><text fill="#000000" font-family="sans-serif" font-size="14" lengthAdjust="spacingAndGlyphs" textLength="29" x="8" y="508.0098">User</text><ellipse cx="25.5" cy="521.0859" fill="#FEFECE" filter="url(#fooc3jrnukhhn)" rx="8" ry="8" style="stroke: #A80036; stroke-width: 2.0;"/><path d="M25.5,529.0859 L25.5,556.0859 M12.5,537.0859 L38.5,537.0859 M25.5,556.0859 L12.5,571.0859 M25.5,556.0859 L38.5,571.0859 " fill="none" filter="url(#fooc3jrnukhhn)" style="stroke: #A80036; stroke-width: 2.0;"/><rect fill="#FEFECE" filter="url(#fooc3jrnukhhn)" height="31.6094" style="stroke: #A80036; stroke-width: 1.5;" width="114" x="93.5" y="51"/><text fill="#000000" font-family="sans-serif" font-size="14" lengthAdjust="spacingAndGlyphs" textLength="100" x="100.5" y="72.5332">:CommandSpec</text><rect fill="#FEFECE" filter="url(#fooc3jrnukhhn)" height="31.6094" style="stroke: #A80036; stroke-width: 1.5;" width="114" x="93.5" y="493.4766"/><text fill="#000000" font-family="sans-serif" font-size="14" lengthAdjust="spacingAndGlyphs" textLength="100" x="100.5" y="515.0098">:CommandSpec</text><rect fill="#FEFECE" filter="url(#fooc3jrnukhhn)" height="31.6094" style="stroke: #A80036; stroke-width: 1.5;" width="131" x="221.5" y="51"/><text fill="#000000" font-family="sans-serif" font-size="14" lengthAdjust="spacingAndGlyphs" textLength="117" x="228.5" y="72.5332">:CommandWindow</text><rect fill="#FEFECE" filter="url(#fooc3jrnukhhn)" height="31.6094" style="stroke: #A80036; stroke-width: 1.5;" width="131" x="221.5" y="493.4766"/><text fill="#000000" font-family="sans-serif" font-size="14" lengthAdjust="spacingAndGlyphs" textLength="117" x="228.5" y="515.0098">:CommandWindow</text><rect fill="#FEFECE" filter="url(#fooc3jrnukhhn)" height="31.6094" style="stroke: #A80036; stroke-width: 1.5;" width="60" x="366.5" y="51"/><text fill="#000000" font-family="sans-serif" font-size="14" lengthAdjust="spacingAndGlyphs" textLength="46" x="373.5" y="72.5332">:Parser</text><rect fill="#FEFECE" filter="url(#fooc3jrnukhhn)" height="31.6094" style="stroke: #A80036; stroke-width: 1.5;" width="60" x="366.5" y="493.4766"/><text fill="#000000" font-family="sans-serif" font-size="14" lengthAdjust="spacingAndGlyphs" textLength="46" x="373.5" y="515.0098">:Parser</text><rect fill="#FEFECE" filter="url(#fooc3jrnukhhn)" height="31.6094" style="stroke: #A80036; stroke-width: 1.5;" width="73" x="662" y="51"/><text fill="#000000" font-family="sans-serif" font-size="14" lengthAdjust="spacingAndGlyphs" textLength="59" x="669" y="72.5332">:Executor</text><rect fill="#FEFECE" filter="url(#fooc3jrnukhhn)" height="31.6094" style="stroke: #A80036; stroke-width: 1.5;" width="73" x="662" y="493.4766"/><text fill="#000000" font-family="sans-serif" font-size="14" lengthAdjust="spacingAndGlyphs" textLength="59" x="669" y="515.0098">:Executor</text><rect fill="#FEFECE" filter="url(#fooc3jrnukhhn)" height="31.6094" style="stroke: #A80036; stroke-width: 1.5;" width="82" x="749" y="51"/><text fill="#000000" font-family="sans-serif" font-size="14" lengthAdjust="spacingAndGlyphs" textLength="68" x="756" y="72.5332">:Command</text><rect fill="#FEFECE" filter="url(#fooc3jrnukhhn)" height="31.6094" style="stroke: #A80036; stroke-width: 1.5;" width="82" x="749" y="493.4766"/><text fill="#000000" font-family="sans-serif" font-size="14" lengthAdjust="spacingAndGlyphs" textLength="68" x="756" y="515.0098">:Command</text><rect fill="#FFFFFF" filter="url(#fooc3jrnukhhn)" height="387.8672" style="stroke: #A80036; stroke-width: 1.0;" width="10" x="152.5" y="97.6094"/><rect fill="#FFFFFF" filter="url(#fooc3jrnukhhn)" height="387.8672" style="stroke: #A80036; stroke-width: 1.0;" width="10" x="152.5" y="97.6094"/><rect fill="#FFFFFF" filter="url(#fooc3jrnukhhn)" height="387.8672" style="stroke: #A80036; stroke-width: 1.0;" width="10" x="284" y="97.6094"/><rect fill="#FFFFFF" filter="url(#fooc3jrnukhhn)" height="387.8672" style="stroke: #A80036; stroke-width: 1.0;" width="10" x="393.5" y="97.6094"/><rect fill="#FFFFFF" filter="url(#fooc3jrnukhhn)" height="60.3516" style="stroke: #A80036; stroke-width: 1.0;" width="10" x="398.5" y="150.3125"/><rect fill="#FFFFFF" filter="url(#fooc3jrnukhhn)" height="109.0547" style="stroke: #A80036; stroke-width: 1.0;" width="10" x="398.5" y="246.0156"/><rect fill="#FFFFFF" filter="url(#fooc3jrnukhhn)" height="387.8672" style="stroke: #A80036; stroke-width: 1.0;" width="10" x="695.5" y="97.6094"/><rect fill="#FFFFFF" filter="url(#fooc3jrnukhhn)" height="295.8125" style="stroke: #A80036; stroke-width: 1.0;" width="10" x="787" y="180.6641"/><polygon fill="#A80036" points="272,115.9609,282,119.9609,272,123.9609,276,119.9609" style="stroke: #A80036; stroke-width: 1.0;"/><line style="stroke: #A80036; stroke-width: 1.0;" x1="25.5" x2="278" y1="119.9609" y2="119.9609"/><text fill="#000000" font-family="sans-serif" font-size="13" lengthAdjust="spacingAndGlyphs" textLength="74" x="32.5" y="115.1045">Provide input</text><polygon fill="#A80036" points="386.5,146.3125,396.5,150.3125,386.5,154.3125,390.5,150.3125" style="stroke: #A80036; stroke-width: 1.0;"/><line style="stroke: #A80036; stroke-width: 1.0;" x1="294" x2="392.5" y1="150.3125" y2="150.3125"/><text fill="#000000" font-family="sans-serif" font-size="13" lengthAdjust="spacingAndGlyphs" textLength="40" x="301" y="145.4561">parse()</text><polygon fill="#A80036" points="775,176.6641,785,180.6641,775,184.6641,779,180.6641" style="stroke: #A80036; stroke-width: 1.0;"/><line style="stroke: #A80036; stroke-width: 1.0;" x1="408.5" x2="781" y1="180.6641" y2="180.6641"/><text fill="#000000" font-family="sans-serif" font-size="13" lengthAdjust="spacingAndGlyphs" textLength="236" x="415.5" y="175.8076">Commands.getCommand(input, Context)</text><polygon fill="#A80036" points="419.5,242.0156,409.5,246.0156,419.5,250.0156,415.5,246.0156" style="stroke: #A80036; stroke-width: 1.0;"/><line style="stroke: #A80036; stroke-width: 1.0; stroke-dasharray: 2.0,2.0;" x1="413.5" x2="786" y1="246.0156" y2="246.0156"/><text fill="#000000" font-family="sans-serif" font-size="13" lengthAdjust="spacingAndGlyphs" textLength="212" x="425.5" y="241.1592">Provide parameters (if ArgCommand)</text><path d="M802,223.6641 L802,249.6641 L1000,249.6641 L1000,233.6641 L990,223.6641 L802,223.6641 " fill="#FBFB77" filter="url(#fooc3jrnukhhn)" style="stroke: #A80036; stroke-width: 1.0;"/><path d="M990,223.6641 L990,233.6641 L1000,233.6641 L990,223.6641 " fill="#FBFB77" style="stroke: #A80036; stroke-width: 1.0;"/><text fill="#000000" font-family="sans-serif" font-size="13" lengthAdjust="spacingAndGlyphs" textLength="177" x="808" y="242.1592">Only if this is an ArgCommand</text><line style="stroke: #A80036; stroke-width: 1.0;" x1="408.5" x2="450.5" y1="281.3672" y2="281.3672"/><line style="stroke: #A80036; stroke-width: 1.0;" x1="450.5" x2="450.5" y1="281.3672" y2="294.3672"/><line style="stroke: #A80036; stroke-width: 1.0;" x1="409.5" x2="450.5" y1="294.3672" y2="294.3672"/><polygon fill="#A80036" points="419.5,290.3672,409.5,294.3672,419.5,298.3672,415.5,294.3672" style="stroke: #A80036; stroke-width: 1.0;"/><text fill="#000000" font-family="sans-serif" font-size="13" lengthAdjust="spacingAndGlyphs" textLength="273" x="415.5" y="276.5107">ArgParser.parseArgument(ArgCommand, input)</text><polygon fill="#A80036" points="775,320.7188,785,324.7188,775,328.7188,779,324.7188" style="stroke: #A80036; stroke-width: 1.0;"/><line style="stroke: #A80036; stroke-width: 1.0;" x1="408.5" x2="781" y1="324.7188" y2="324.7188"/><text fill="#000000" font-family="sans-serif" font-size="13" lengthAdjust="spacingAndGlyphs" textLength="117" x="415.5" y="319.8623">Parse ArgCommand</text><polygon fill="#A80036" points="305,351.0703,295,355.0703,305,359.0703,301,355.0703" style="stroke: #A80036; stroke-width: 1.0;"/><line style="stroke: #A80036; stroke-width: 1.0; stroke-dasharray: 2.0,2.0;" x1="299" x2="786" y1="355.0703" y2="355.0703"/><text fill="#000000" font-family="sans-serif" font-size="13" lengthAdjust="spacingAndGlyphs" textLength="101" x="311" y="350.2139">Complete parsing</text><polygon fill="#A80036" points="683.5,381.4219,693.5,385.4219,683.5,389.4219,687.5,385.4219" style="stroke: #A80036; stroke-width: 1.0;"/><line style="stroke: #A80036; stroke-width: 1.0;" x1="294" x2="689.5" y1="385.4219" y2="385.4219"/><text fill="#000000" font-family="sans-serif" font-size="13" lengthAdjust="spacingAndGlyphs" textLength="54" x="301" y="380.5654">execute()</text><polygon fill="#A80036" points="775,411.7734,785,415.7734,775,419.7734,779,415.7734" style="stroke: #A80036; stroke-width: 1.0;"/><line style="stroke: #A80036; stroke-width: 1.0;" x1="705.5" x2="781" y1="415.7734" y2="415.7734"/><text fill="#000000" font-family="sans-serif" font-size="13" lengthAdjust="spacingAndGlyphs" textLength="54" x="712.5" y="410.917">execute()</text><polygon fill="#A80036" points="173.5,442.125,163.5,446.125,173.5,450.125,169.5,446.125" style="stroke: #A80036; stroke-width: 1.0;"/><line style="stroke: #A80036; stroke-width: 1.0;" x1="167.5" x2="786" y1="446.125" y2="446.125"/><text fill="#000000" font-family="sans-serif" font-size="13" lengthAdjust="spacingAndGlyphs" textLength="54" x="179.5" y="441.2686">execute()</text><polygon fill="#A80036" points="36.5,472.4766,26.5,476.4766,36.5,480.4766,32.5,476.4766" style="stroke: #A80036; stroke-width: 1.0;"/><line style="stroke: #A80036; stroke-width: 1.0; stroke-dasharray: 2.0,2.0;" x1="30.5" x2="151.5" y1="476.4766" y2="476.4766"/><text fill="#000000" font-family="sans-serif" font-size="13" lengthAdjust="spacingAndGlyphs" textLength="98" x="42.5" y="471.6201">Provide feedback</text><line style="stroke: #A80036; stroke-width: 2.0;" x1="783" x2="801" y1="467.4766" y2="485.4766"/><line style="stroke: #A80036; stroke-width: 2.0;" x1="783" x2="801" y1="485.4766" y2="467.4766"/><!--MD5=[21f65f11557583dbb98dab42c73ede10]
@startuml
actor User

activate ":CommandSpec"
activate ":CommandWindow"
activate ":Parser"
activate ":Executor"
activate ":CommandSpec"

User -> ":CommandWindow" : Provide input
":CommandWindow" -> ":Parser" : parse()
activate ":Parser"
":Parser" -> ":Command" : Commands.getCommand(input, Context)
activate ":Command"
deactivate ":Parser"
":Parser" <- - ":Command" : Provide parameters (if ArgCommand)
note right : Only if this is an ArgCommand
activate ":Parser"
":Parser" -> ":Parser" : ArgParser.parseArgument(ArgCommand, input)
":Parser" -> ":Command" : Parse ArgCommand
":CommandWindow" <- - ":Command" : Complete parsing
deactivate ":Parser"

":CommandWindow" -> ":Executor" : execute()
":Executor" -> ":Command" : execute()
":Command" -> ":CommandSpec" : execute()
User <- - ":CommandSpec" : Provide feedback
destroy ":Command"
@enduml

PlantUML version 1.2019.11(Sun Sep 22 18:02:15 SGT 2019)
(GPL source distribution)
Java Runtime: OpenJDK Runtime Environment
JVM: OpenJDK 64-Bit Server VM
Java Version: 11+28
Operating System: Windows 10
Default Encoding: Cp1252
Language: en
Country: SG
--></g></svg>