<?xml version="1.0" encoding="UTF-8" standalone="no"?><svg xmlns="http://www.w3.org/2000/svg" xmlns:xlink="http://www.w3.org/1999/xlink" contentScriptType="application/ecmascript" contentStyleType="text/css" height="476px" preserveAspectRatio="none" style="width:598px;height:476px;" version="1.1" viewBox="0 0 598 476" width="598px" zoomAndPan="magnify"><defs><filter height="300%" id="f1o8hdm1idmc16" width="300%" x="-1" y="-1"><feGaussianBlur result="blurOut" stdDeviation="2.0"/><feColorMatrix in="blurOut" result="blurOut2" type="matrix" values="0 0 0 0 0 0 0 0 0 0 0 0 0 0 0 0 0 0 .4 0"/><feOffset dx="4.0" dy="4.0" in="blurOut2" result="blurOut3"/><feBlend in="SourceGraphic" in2="blurOut3" mode="normal"/></filter></defs><g><rect fill="#FFFFFF" filter="url(#f1o8hdm1idmc16)" height="104.0547" style="stroke: #A80036; stroke-width: 1.0;" width="10" x="52" y="193.3672"/><rect fill="#FFFFFF" filter="url(#f1o8hdm1idmc16)" height="345.2188" style="stroke: #A80036; stroke-width: 1.0;" width="10" x="207" y="71.9609"/><rect fill="#FFFFFF" filter="url(#f1o8hdm1idmc16)" height="59.8789" style="stroke: #A80036; stroke-width: 1.0;" width="10" x="352" y="357.3008"/><line style="stroke: #A80036; stroke-width: 1.0; stroke-dasharray: 5.0,5.0;" x1="57" x2="57" y1="39.6094" y2="435.1797"/><line style="stroke: #A80036; stroke-width: 1.0; stroke-dasharray: 5.0,5.0;" x1="212" x2="212" y1="39.6094" y2="435.1797"/><line style="stroke: #A80036; stroke-width: 1.0; stroke-dasharray: 5.0,5.0;" x1="357" x2="357" y1="39.6094" y2="435.1797"/><rect fill="#FEFECE" filter="url(#f1o8hdm1idmc16)" height="31.6094" style="stroke: #A80036; stroke-width: 1.5;" width="94" x="8" y="3"/><text fill="#000000" font-family="sans-serif" font-size="14" lengthAdjust="spacingAndGlyphs" textLength="80" x="15" y="24.5332">Parser Logic</text><rect fill="#FEFECE" filter="url(#f1o8hdm1idmc16)" height="31.6094" style="stroke: #A80036; stroke-width: 1.5;" width="94" x="8" y="434.1797"/><text fill="#000000" font-family="sans-serif" font-size="14" lengthAdjust="spacingAndGlyphs" textLength="80" x="15" y="455.7129">Parser Logic</text><rect fill="#FEFECE" filter="url(#f1o8hdm1idmc16)" height="31.6094" style="stroke: #A80036; stroke-width: 1.5;" width="100" x="160" y="3"/><text fill="#000000" font-family="sans-serif" font-size="14" lengthAdjust="spacingAndGlyphs" textLength="86" x="167" y="24.5332">ArgCommand</text><rect fill="#FEFECE" filter="url(#f1o8hdm1idmc16)" height="31.6094" style="stroke: #A80036; stroke-width: 1.5;" width="100" x="160" y="434.1797"/><text fill="#000000" font-family="sans-serif" font-size="14" lengthAdjust="spacingAndGlyphs" textLength="86" x="167" y="455.7129">ArgCommand</text><rect fill="#FEFECE" filter="url(#f1o8hdm1idmc16)" height="31.6094" style="stroke: #A80036; stroke-width: 1.5;" width="68" x="321" y="3"/><text fill="#000000" font-family="sans-serif" font-size="14" lengthAdjust="spacingAndGlyphs" textLength="54" x="328" y="24.5332">ArgSpec</text><rect fill="#FEFECE" filter="url(#f1o8hdm1idmc16)" height="31.6094" style="stroke: #A80036; stroke-width: 1.5;" width="68" x="321" y="434.1797"/><text fill="#000000" font-family="sans-serif" font-size="14" lengthAdjust="spacingAndGlyphs" textLength="54" x="328" y="455.7129">ArgSpec</text><rect fill="#FFFFFF" filter="url(#f1o8hdm1idmc16)" height="104.0547" style="stroke: #A80036; stroke-width: 1.0;" width="10" x="52" y="193.3672"/><rect fill="#FFFFFF" filter="url(#f1o8hdm1idmc16)" height="345.2188" style="stroke: #A80036; stroke-width: 1.0;" width="10" x="207" y="71.9609"/><rect fill="#FFFFFF" filter="url(#f1o8hdm1idmc16)" height="59.8789" style="stroke: #A80036; stroke-width: 1.0;" width="10" x="352" y="357.3008"/><polygon fill="#A80036" points="195,67.9609,205,71.9609,195,75.9609,199,71.9609" style="stroke: #A80036; stroke-width: 1.0;"/><line style="stroke: #A80036; stroke-width: 1.0;" x1="57" x2="201" y1="71.9609" y2="71.9609"/><text fill="#000000" font-family="sans-serif" font-size="13" lengthAdjust="spacingAndGlyphs" textLength="56" x="64" y="67.1045">Construct</text><polygon fill="#A80036" points="195,98.3125,205,102.3125,195,106.3125,199,102.3125" style="stroke: #A80036; stroke-width: 1.0;"/><line style="stroke: #A80036; stroke-width: 1.0;" x1="57" x2="201" y1="102.3125" y2="102.3125"/><text fill="#000000" font-family="sans-serif" font-size="13" lengthAdjust="spacingAndGlyphs" textLength="126" x="64" y="97.4561">Request Specification</text><polygon fill="#A80036" points="345,128.6641,355,132.6641,345,136.6641,349,132.6641" style="stroke: #A80036; stroke-width: 1.0;"/><line style="stroke: #A80036; stroke-width: 1.0;" x1="217" x2="351" y1="132.6641" y2="132.6641"/><text fill="#000000" font-family="sans-serif" font-size="13" lengthAdjust="spacingAndGlyphs" textLength="99" x="224" y="127.8076">Get Specification</text><polygon fill="#A80036" points="228,159.0156,218,163.0156,228,167.0156,224,163.0156" style="stroke: #A80036; stroke-width: 1.0;"/><line style="stroke: #A80036; stroke-width: 1.0; stroke-dasharray: 2.0,2.0;" x1="222" x2="356" y1="163.0156" y2="163.0156"/><text fill="#000000" font-family="sans-serif" font-size="13" lengthAdjust="spacingAndGlyphs" textLength="116" x="234" y="158.1592">Return Specification</text><polygon fill="#A80036" points="73,189.3672,63,193.3672,73,197.3672,69,193.3672" style="stroke: #A80036; stroke-width: 1.0;"/><line style="stroke: #A80036; stroke-width: 1.0; stroke-dasharray: 2.0,2.0;" x1="67" x2="206" y1="193.3672" y2="193.3672"/><text fill="#000000" font-family="sans-serif" font-size="13" lengthAdjust="spacingAndGlyphs" textLength="116" x="79" y="188.5107">Return Specification</text><line style="stroke: #A80036; stroke-width: 1.0;" x1="62" x2="104" y1="223.7188" y2="223.7188"/><line style="stroke: #A80036; stroke-width: 1.0;" x1="104" x2="104" y1="223.7188" y2="236.7188"/><line style="stroke: #A80036; stroke-width: 1.0;" x1="63" x2="104" y1="236.7188" y2="236.7188"/><polygon fill="#A80036" points="73,232.7188,63,236.7188,73,240.7188,69,236.7188" style="stroke: #A80036; stroke-width: 1.0;"/><text fill="#000000" font-family="sans-serif" font-size="13" lengthAdjust="spacingAndGlyphs" textLength="34" x="69" y="218.8623">Parse</text><polygon fill="#A80036" points="195,263.0703,205,267.0703,195,271.0703,199,267.0703" style="stroke: #A80036; stroke-width: 1.0;"/><line style="stroke: #A80036; stroke-width: 1.0;" x1="62" x2="201" y1="267.0703" y2="267.0703"/><text fill="#000000" font-family="sans-serif" font-size="13" lengthAdjust="spacingAndGlyphs" textLength="99" x="69" y="262.2139">Load Parameters</text><polygon fill="#A80036" points="195,293.4219,205,297.4219,195,301.4219,199,297.4219" style="stroke: #A80036; stroke-width: 1.0;"/><line style="stroke: #A80036; stroke-width: 1.0;" x1="57" x2="201" y1="297.4219" y2="297.4219"/><text fill="#000000" font-family="sans-serif" font-size="13" lengthAdjust="spacingAndGlyphs" textLength="54" x="64" y="292.5654">execute()</text><polygon fill="#A80036" points="340,353.3008,350,357.3008,340,361.3008,344,357.3008" style="stroke: #A80036; stroke-width: 1.0;"/><line style="stroke: #A80036; stroke-width: 1.0;" x1="217" x2="346" y1="357.3008" y2="357.3008"/><text fill="#000000" font-family="sans-serif" font-size="13" lengthAdjust="spacingAndGlyphs" textLength="108" x="224" y="352.4443">executeWithCmd()</text><path d="M367,310.4219 L367,385.4219 L586,385.4219 L586,320.4219 L576,310.4219 L367,310.4219 " fill="#FBFB77" filter="url(#f1o8hdm1idmc16)" style="stroke: #A80036; stroke-width: 1.0;"/><path d="M576,310.4219 L576,320.4219 L586,320.4219 L576,310.4219 " fill="#FBFB77" style="stroke: #A80036; stroke-width: 1.0;"/><text fill="#000000" font-family="sans-serif" font-size="13" lengthAdjust="spacingAndGlyphs" textLength="198" x="373" y="328.917">This provides the ArgCommand as</text><text fill="#000000" font-family="sans-serif" font-size="13" lengthAdjust="spacingAndGlyphs" textLength="185" x="373" y="345.2686">a reference to ArgSpec, to allow</text><text fill="#000000" font-family="sans-serif" font-size="13" lengthAdjust="spacingAndGlyphs" textLength="192" x="373" y="361.6201">it to access switch and argument</text><text fill="#000000" font-family="sans-serif" font-size="13" lengthAdjust="spacingAndGlyphs" textLength="36" x="373" y="377.9717">values</text><polygon fill="#A80036" points="578,413.1797,588,417.1797,578,421.1797,582,417.1797" style="stroke: #A80036; stroke-width: 1.0;"/><line style="stroke: #A80036; stroke-width: 1.0;" x1="357" x2="584" y1="417.1797" y2="417.1797"/><text fill="#000000" font-family="sans-serif" font-size="13" lengthAdjust="spacingAndGlyphs" textLength="54" x="364" y="412.3232">execute()</text><!--MD5=[fcbbd354e80a208fd924d9fe5a61d480]
@startuml
participant "Parser Logic"
participant ArgCommand
participant ArgSpec

"Parser Logic" -> ArgCommand : Construct
activate ArgCommand

"Parser Logic" -> ArgCommand : Request Specification
ArgCommand -> ArgSpec : Get Specification
ArgCommand <- - ArgSpec : Return Specification
"Parser Logic" <- - ArgCommand : Return Specification

activate "Parser Logic"
"Parser Logic" -> "Parser Logic" : Parse
"Parser Logic" -> ArgCommand : Load Parameters
"Parser Logic" -> ArgCommand : execute()
deactivate "Parser Logic"

ArgCommand -> ArgSpec : executeWithCmd()
note right
  This provides the ArgCommand as
  a reference to ArgSpec, to allow 
  it to access switch and argument 
  values
end note
activate ArgSpec
ArgSpec ->] : execute()
deactivate ArgSpec
deactivate ArgCommand
@enduml

PlantUML version 1.2019.11(Sun Sep 22 18:02:15 SGT 2019)
(GPL source distribution)
Java Runtime: OpenJDK Runtime Environment
JVM: OpenJDK 64-Bit Server VM
Java Version: 11+28
Operating System: Windows 10
Default Encoding: Cp1252
Language: en
Country: SG
--></g></svg>