<?xml version="1.0" encoding="UTF-8" standalone="no"?><svg xmlns="http://www.w3.org/2000/svg" xmlns:xlink="http://www.w3.org/1999/xlink" contentScriptType="application/ecmascript" contentStyleType="text/css" height="727px" preserveAspectRatio="none" style="width:862px;height:727px;" version="1.1" viewBox="0 0 862 727" width="862px" zoomAndPan="magnify"><defs><filter height="300%" id="f15f84ejy4rvak" width="300%" x="-1" y="-1"><feGaussianBlur result="blurOut" stdDeviation="2.0"/><feColorMatrix in="blurOut" result="blurOut2" type="matrix" values="0 0 0 0 0 0 0 0 0 0 0 0 0 0 0 0 0 0 .4 0"/><feOffset dx="4.0" dy="4.0" in="blurOut2" result="blurOut3"/><feBlend in="SourceGraphic" in2="blurOut3" mode="normal"/></filter></defs><g><rect fill="#FFFFFF" filter="url(#f15f84ejy4rvak)" height="531.9766" style="stroke: #A80036; stroke-width: 1.0;" width="10" x="123.5" y="97.6094"/><rect fill="#FFFFFF" filter="url(#f15f84ejy4rvak)" height="531.9766" style="stroke: #A80036; stroke-width: 1.0;" width="10" x="239.5" y="97.6094"/><rect fill="#FFFFFF" filter="url(#f15f84ejy4rvak)" height="531.9766" style="stroke: #A80036; stroke-width: 1.0;" width="10" x="320" y="97.6094"/><rect fill="#FFFFFF" filter="url(#f15f84ejy4rvak)" height="348.8672" style="stroke: #A80036; stroke-width: 1.0;" width="10" x="325" y="150.3125"/><rect fill="#FFFFFF" filter="url(#f15f84ejy4rvak)" height="104.0547" style="stroke: #A80036; stroke-width: 1.0;" width="10" x="330" y="357.7734"/><rect fill="#FFFFFF" filter="url(#f15f84ejy4rvak)" height="439.9219" style="stroke: #A80036; stroke-width: 1.0;" width="10" x="627" y="180.6641"/><rect fill="#FFFFFF" filter="url(#f15f84ejy4rvak)" height="531.9766" style="stroke: #A80036; stroke-width: 1.0;" width="10" x="777" y="97.6094"/><rect fill="#FFFFFF" filter="url(#f15f84ejy4rvak)" height="30.3516" style="stroke: #A80036; stroke-width: 1.0;" width="10" x="782" y="590.2344"/><rect fill="#FFFFFF" filter="url(#f15f84ejy4rvak)" height="243.8125" style="stroke: #000000; stroke-width: 2.0;" width="568" x="283" y="226.0156"/><line style="stroke: #A80036; stroke-width: 1.0; stroke-dasharray: 5.0,5.0;" x1="25" x2="25" y1="87.6094" y2="638.5859"/><line style="stroke: #A80036; stroke-width: 1.0; stroke-dasharray: 5.0,5.0;" x1="128" x2="128" y1="87.6094" y2="638.5859"/><line style="stroke: #A80036; stroke-width: 1.0; stroke-dasharray: 5.0,5.0;" x1="244" x2="244" y1="87.6094" y2="638.5859"/><line style="stroke: #A80036; stroke-width: 1.0; stroke-dasharray: 5.0,5.0;" x1="325" x2="325" y1="87.6094" y2="638.5859"/><line style="stroke: #A80036; stroke-width: 1.0; stroke-dasharray: 5.0,5.0;" x1="632" x2="632" y1="87.6094" y2="638.5859"/><line style="stroke: #A80036; stroke-width: 1.0; stroke-dasharray: 5.0,5.0;" x1="782" x2="782" y1="87.6094" y2="638.5859"/><text fill="#000000" font-family="sans-serif" font-size="14" lengthAdjust="spacingAndGlyphs" textLength="29" x="8" y="84.5332">User</text><ellipse cx="25.5" cy="13" fill="#FEFECE" filter="url(#f15f84ejy4rvak)" rx="8" ry="8" style="stroke: #A80036; stroke-width: 2.0;"/><path d="M25.5,21 L25.5,48 M12.5,29 L38.5,29 M25.5,48 L12.5,63 M25.5,48 L38.5,63 " fill="none" filter="url(#f15f84ejy4rvak)" style="stroke: #A80036; stroke-width: 2.0;"/><text fill="#000000" font-family="sans-serif" font-size="14" lengthAdjust="spacingAndGlyphs" textLength="29" x="8" y="652.1191">User</text><ellipse cx="25.5" cy="665.1953" fill="#FEFECE" filter="url(#f15f84ejy4rvak)" rx="8" ry="8" style="stroke: #A80036; stroke-width: 2.0;"/><path d="M25.5,673.1953 L25.5,700.1953 M12.5,681.1953 L38.5,681.1953 M25.5,700.1953 L12.5,715.1953 M25.5,700.1953 L38.5,715.1953 " fill="none" filter="url(#f15f84ejy4rvak)" style="stroke: #A80036; stroke-width: 2.0;"/><rect fill="#FEFECE" filter="url(#f15f84ejy4rvak)" height="31.6094" style="stroke: #A80036; stroke-width: 1.5;" width="131" x="61" y="51"/><text fill="#000000" font-family="sans-serif" font-size="14" lengthAdjust="spacingAndGlyphs" textLength="117" x="68" y="72.5332">:CommandWindow</text><rect fill="#FEFECE" filter="url(#f15f84ejy4rvak)" height="31.6094" style="stroke: #A80036; stroke-width: 1.5;" width="131" x="61" y="637.5859"/><text fill="#000000" font-family="sans-serif" font-size="14" lengthAdjust="spacingAndGlyphs" textLength="117" x="68" y="659.1191">:CommandWindow</text><rect fill="#FEFECE" filter="url(#f15f84ejy4rvak)" height="31.6094" style="stroke: #A80036; stroke-width: 1.5;" width="73" x="206" y="51"/><text fill="#000000" font-family="sans-serif" font-size="14" lengthAdjust="spacingAndGlyphs" textLength="59" x="213" y="72.5332">:Executor</text><rect fill="#FEFECE" filter="url(#f15f84ejy4rvak)" height="31.6094" style="stroke: #A80036; stroke-width: 1.5;" width="73" x="206" y="637.5859"/><text fill="#000000" font-family="sans-serif" font-size="14" lengthAdjust="spacingAndGlyphs" textLength="59" x="213" y="659.1191">:Executor</text><rect fill="#FEFECE" filter="url(#f15f84ejy4rvak)" height="31.6094" style="stroke: #A80036; stroke-width: 1.5;" width="60" x="293" y="51"/><text fill="#000000" font-family="sans-serif" font-size="14" lengthAdjust="spacingAndGlyphs" textLength="46" x="300" y="72.5332">:Parser</text><rect fill="#FEFECE" filter="url(#f15f84ejy4rvak)" height="31.6094" style="stroke: #A80036; stroke-width: 1.5;" width="60" x="293" y="637.5859"/><text fill="#000000" font-family="sans-serif" font-size="14" lengthAdjust="spacingAndGlyphs" textLength="46" x="300" y="659.1191">:Parser</text><rect fill="#FEFECE" filter="url(#f15f84ejy4rvak)" height="31.6094" style="stroke: #A80036; stroke-width: 1.5;" width="82" x="589" y="51"/><text fill="#000000" font-family="sans-serif" font-size="14" lengthAdjust="spacingAndGlyphs" textLength="68" x="596" y="72.5332">:Command</text><rect fill="#FEFECE" filter="url(#f15f84ejy4rvak)" height="31.6094" style="stroke: #A80036; stroke-width: 1.5;" width="82" x="589" y="637.5859"/><text fill="#000000" font-family="sans-serif" font-size="14" lengthAdjust="spacingAndGlyphs" textLength="68" x="596" y="659.1191">:Command</text><rect fill="#FEFECE" filter="url(#f15f84ejy4rvak)" height="31.6094" style="stroke: #A80036; stroke-width: 1.5;" width="114" x="723" y="51"/><text fill="#000000" font-family="sans-serif" font-size="14" lengthAdjust="spacingAndGlyphs" textLength="100" x="730" y="72.5332">:CommandSpec</text><rect fill="#FEFECE" filter="url(#f15f84ejy4rvak)" height="31.6094" style="stroke: #A80036; stroke-width: 1.5;" width="114" x="723" y="637.5859"/><text fill="#000000" font-family="sans-serif" font-size="14" lengthAdjust="spacingAndGlyphs" textLength="100" x="730" y="659.1191">:CommandSpec</text><rect fill="#FFFFFF" filter="url(#f15f84ejy4rvak)" height="531.9766" style="stroke: #A80036; stroke-width: 1.0;" width="10" x="123.5" y="97.6094"/><rect fill="#FFFFFF" filter="url(#f15f84ejy4rvak)" height="531.9766" style="stroke: #A80036; stroke-width: 1.0;" width="10" x="239.5" y="97.6094"/><rect fill="#FFFFFF" filter="url(#f15f84ejy4rvak)" height="531.9766" style="stroke: #A80036; stroke-width: 1.0;" width="10" x="320" y="97.6094"/><rect fill="#FFFFFF" filter="url(#f15f84ejy4rvak)" height="348.8672" style="stroke: #A80036; stroke-width: 1.0;" width="10" x="325" y="150.3125"/><rect fill="#FFFFFF" filter="url(#f15f84ejy4rvak)" height="104.0547" style="stroke: #A80036; stroke-width: 1.0;" width="10" x="330" y="357.7734"/><rect fill="#FFFFFF" filter="url(#f15f84ejy4rvak)" height="439.9219" style="stroke: #A80036; stroke-width: 1.0;" width="10" x="627" y="180.6641"/><rect fill="#FFFFFF" filter="url(#f15f84ejy4rvak)" height="531.9766" style="stroke: #A80036; stroke-width: 1.0;" width="10" x="777" y="97.6094"/><rect fill="#FFFFFF" filter="url(#f15f84ejy4rvak)" height="30.3516" style="stroke: #A80036; stroke-width: 1.0;" width="10" x="782" y="590.2344"/><polygon fill="#A80036" points="111.5,115.9609,121.5,119.9609,111.5,123.9609,115.5,119.9609" style="stroke: #A80036; stroke-width: 1.0;"/><line style="stroke: #A80036; stroke-width: 1.0;" x1="25.5" x2="117.5" y1="119.9609" y2="119.9609"/><text fill="#000000" font-family="sans-serif" font-size="13" lengthAdjust="spacingAndGlyphs" textLength="74" x="32.5" y="115.1045">Provide Input</text><polygon fill="#A80036" points="313,146.3125,323,150.3125,313,154.3125,317,150.3125" style="stroke: #A80036; stroke-width: 1.0;"/><line style="stroke: #A80036; stroke-width: 1.0;" x1="133.5" x2="319" y1="150.3125" y2="150.3125"/><text fill="#000000" font-family="sans-serif" font-size="13" lengthAdjust="spacingAndGlyphs" textLength="40" x="140.5" y="145.4561">parse()</text><polygon fill="#A80036" points="615,176.6641,625,180.6641,615,184.6641,619,180.6641" style="stroke: #A80036; stroke-width: 1.0;"/><line style="stroke: #A80036; stroke-width: 1.0;" x1="335" x2="621" y1="180.6641" y2="180.6641"/><text fill="#000000" font-family="sans-serif" font-size="13" lengthAdjust="spacingAndGlyphs" textLength="236" x="342" y="175.8076">Commands.getCommand(input, Context)</text><polygon fill="#A80036" points="346,207.0156,336,211.0156,346,215.0156,342,211.0156" style="stroke: #A80036; stroke-width: 1.0;"/><line style="stroke: #A80036; stroke-width: 1.0; stroke-dasharray: 2.0,2.0;" x1="340" x2="626" y1="211.0156" y2="211.0156"/><text fill="#000000" font-family="sans-serif" font-size="13" lengthAdjust="spacingAndGlyphs" textLength="101" x="352" y="206.1592">Return Command</text><path d="M283,226.0156 L427,226.0156 L427,234.0156 L417,244.0156 L283,244.0156 L283,226.0156 " fill="#EEEEEE" style="stroke: #000000; stroke-width: 1.0;"/><rect fill="none" height="243.8125" style="stroke: #000000; stroke-width: 2.0;" width="568" x="283" y="226.0156"/><text fill="#000000" font-family="sans-serif" font-size="13" font-weight="bold" lengthAdjust="spacingAndGlyphs" textLength="99" x="298" y="240.5107">if ArgCommand</text><polygon fill="#A80036" points="615,262.7188,625,266.7188,615,270.7188,619,266.7188" style="stroke: #A80036; stroke-width: 1.0;"/><line style="stroke: #A80036; stroke-width: 1.0;" x1="335" x2="621" y1="266.7188" y2="266.7188"/><text fill="#000000" font-family="sans-serif" font-size="13" lengthAdjust="spacingAndGlyphs" textLength="126" x="342" y="261.8623">Request Specification</text><polygon fill="#A80036" points="765,293.0703,775,297.0703,765,301.0703,769,297.0703" style="stroke: #A80036; stroke-width: 1.0;"/><line style="stroke: #A80036; stroke-width: 1.0;" x1="637" x2="771" y1="297.0703" y2="297.0703"/><text fill="#000000" font-family="sans-serif" font-size="13" lengthAdjust="spacingAndGlyphs" textLength="99" x="644" y="292.2139">Get Specification</text><polygon fill="#A80036" points="648,323.4219,638,327.4219,648,331.4219,644,327.4219" style="stroke: #A80036; stroke-width: 1.0;"/><line style="stroke: #A80036; stroke-width: 1.0; stroke-dasharray: 2.0,2.0;" x1="642" x2="776" y1="327.4219" y2="327.4219"/><text fill="#000000" font-family="sans-serif" font-size="13" lengthAdjust="spacingAndGlyphs" textLength="116" x="654" y="322.5654">Return Specification</text><polygon fill="#A80036" points="351,353.7734,341,357.7734,351,361.7734,347,357.7734" style="stroke: #A80036; stroke-width: 1.0;"/><line style="stroke: #A80036; stroke-width: 1.0; stroke-dasharray: 2.0,2.0;" x1="345" x2="626" y1="357.7734" y2="357.7734"/><text fill="#000000" font-family="sans-serif" font-size="13" lengthAdjust="spacingAndGlyphs" textLength="120" x="357" y="352.917">Provide Specification</text><line style="stroke: #A80036; stroke-width: 1.0;" x1="340" x2="382" y1="388.125" y2="388.125"/><line style="stroke: #A80036; stroke-width: 1.0;" x1="382" x2="382" y1="388.125" y2="401.125"/><line style="stroke: #A80036; stroke-width: 1.0;" x1="341" x2="382" y1="401.125" y2="401.125"/><polygon fill="#A80036" points="351,397.125,341,401.125,351,405.125,347,401.125" style="stroke: #A80036; stroke-width: 1.0;"/><text fill="#000000" font-family="sans-serif" font-size="13" lengthAdjust="spacingAndGlyphs" textLength="273" x="347" y="383.2686">ArgParser.parseArgument(ArgCommand, input)</text><polygon fill="#A80036" points="615,427.4766,625,431.4766,615,435.4766,619,431.4766" style="stroke: #A80036; stroke-width: 1.0;"/><line style="stroke: #A80036; stroke-width: 1.0;" x1="340" x2="621" y1="431.4766" y2="431.4766"/><text fill="#000000" font-family="sans-serif" font-size="13" lengthAdjust="spacingAndGlyphs" textLength="182" x="347" y="426.6201">Load ArgCommand Parameters</text><polygon fill="#A80036" points="346,457.8281,336,461.8281,346,465.8281,342,461.8281" style="stroke: #A80036; stroke-width: 1.0;"/><line style="stroke: #A80036; stroke-width: 1.0; stroke-dasharray: 2.0,2.0;" x1="340" x2="626" y1="461.8281" y2="461.8281"/><text fill="#000000" font-family="sans-serif" font-size="13" lengthAdjust="spacingAndGlyphs" textLength="147" x="352" y="456.9717">Return Loaded Command</text><polygon fill="#A80036" points="144.5,495.1797,134.5,499.1797,144.5,503.1797,140.5,499.1797" style="stroke: #A80036; stroke-width: 1.0;"/><line style="stroke: #A80036; stroke-width: 1.0; stroke-dasharray: 2.0,2.0;" x1="138.5" x2="319" y1="499.1797" y2="499.1797"/><text fill="#000000" font-family="sans-serif" font-size="13" lengthAdjust="spacingAndGlyphs" textLength="101" x="150.5" y="494.3232">Return Command</text><polygon fill="#A80036" points="227.5,525.5313,237.5,529.5313,227.5,533.5313,231.5,529.5313" style="stroke: #A80036; stroke-width: 1.0;"/><line style="stroke: #A80036; stroke-width: 1.0;" x1="133.5" x2="233.5" y1="529.5313" y2="529.5313"/><text fill="#000000" font-family="sans-serif" font-size="13" lengthAdjust="spacingAndGlyphs" textLength="54" x="140.5" y="524.6748">execute()</text><polygon fill="#A80036" points="615,555.8828,625,559.8828,615,563.8828,619,559.8828" style="stroke: #A80036; stroke-width: 1.0;"/><line style="stroke: #A80036; stroke-width: 1.0;" x1="249.5" x2="621" y1="559.8828" y2="559.8828"/><text fill="#000000" font-family="sans-serif" font-size="13" lengthAdjust="spacingAndGlyphs" textLength="54" x="256.5" y="555.0264">execute()</text><polygon fill="#A80036" points="770,586.2344,780,590.2344,770,594.2344,774,590.2344" style="stroke: #A80036; stroke-width: 1.0;"/><line style="stroke: #A80036; stroke-width: 1.0;" x1="637" x2="776" y1="590.2344" y2="590.2344"/><text fill="#000000" font-family="sans-serif" font-size="13" lengthAdjust="spacingAndGlyphs" textLength="54" x="644" y="585.3779">execute()</text><polygon fill="#A80036" points="36.5,616.5859,26.5,620.5859,36.5,624.5859,32.5,620.5859" style="stroke: #A80036; stroke-width: 1.0;"/><line style="stroke: #A80036; stroke-width: 1.0; stroke-dasharray: 2.0,2.0;" x1="30.5" x2="776" y1="620.5859" y2="620.5859"/><text fill="#000000" font-family="sans-serif" font-size="13" lengthAdjust="spacingAndGlyphs" textLength="103" x="42.5" y="615.7295">Provide Feedback</text><line style="stroke: #A80036; stroke-width: 2.0;" x1="623" x2="641" y1="611.5859" y2="629.5859"/><line style="stroke: #A80036; stroke-width: 2.0;" x1="623" x2="641" y1="629.5859" y2="611.5859"/><!--MD5=[50afa467a742d5d4dbcd9353a59f74a1]
@startuml
actor User

activate ":CommandWindow"
activate ":Executor"
activate ":Parser"
participant ":Command"
activate ":CommandSpec"

User -> ":CommandWindow" : Provide Input
":CommandWindow" -> ":Parser" : parse()
activate ":Parser"
":Parser" -> ":Command" : Commands.getCommand(input, Context)
activate ":Command"
":Parser" <- - ":Command" : Return Command
group if ArgCommand
  ":Parser" -> ":Command" : Request Specification
  ":Command" -> ":CommandSpec" : Get Specification
  ":Command" <- - ":CommandSpec" : Return Specification
  ":Parser" <- - ":Command" : Provide Specification 
  activate ":Parser"
  ":Parser" -> ":Parser" : ArgParser.parseArgument(ArgCommand, input)
  ":Parser" -> ":Command" : Load ArgCommand Parameters
  ":Parser" <- - ":Command" : Return Loaded Command
  deactivate ":Parser"
end
":CommandWindow" <- - ":Parser" : Return Command
deactivate ":Parser"

":CommandWindow" -> ":Executor" : execute()
":Executor" -> ":Command" : execute()
":Command" -> ":CommandSpec" : execute()
activate ":CommandSpec"
User <- - ":CommandSpec" : Provide Feedback
deactivate ":CommandSpec"
destroy ":Command"
@enduml

PlantUML version 1.2019.11(Sun Sep 22 18:02:15 SGT 2019)
(GPL source distribution)
Java Runtime: OpenJDK Runtime Environment
JVM: OpenJDK 64-Bit Server VM
Java Version: 11+28
Operating System: Windows 10
Default Encoding: Cp1252
Language: en
Country: SG
--></g></svg>