<?xml version="1.0" encoding="UTF-8" standalone="no"?><svg xmlns="http://www.w3.org/2000/svg" xmlns:xlink="http://www.w3.org/1999/xlink" contentScriptType="application/ecmascript" contentStyleType="text/css" height="459px" preserveAspectRatio="none" style="width:1226px;height:459px;" version="1.1" viewBox="0 0 1226 459" width="1226px" zoomAndPan="magnify"><defs><filter height="300%" id="f1rmy58k8156r0" width="300%" x="-1" y="-1"><feGaussianBlur result="blurOut" stdDeviation="2.0"/><feColorMatrix in="blurOut" result="blurOut2" type="matrix" values="0 0 0 0 0 0 0 0 0 0 0 0 0 0 0 0 0 0 .4 0"/><feOffset dx="4.0" dy="4.0" in="blurOut2" result="blurOut3"/><feBlend in="SourceGraphic" in2="blurOut3" mode="normal"/></filter></defs><g><rect fill="#FEFECE" filter="url(#f1rmy58k8156r0)" height="67.7969" rx="12.5" ry="12.5" style="stroke: #A80036; stroke-width: 1.5;" width="134" x="478.5703" y="89"/><line style="stroke: #A80036; stroke-width: 1.5;" x1="478.5703" x2="612.5703" y1="116.6094" y2="116.6094"/><text fill="#000000" font-family="sans-serif" font-size="14" lengthAdjust="spacingAndGlyphs" textLength="47" x="522.0703" y="108.5332">EMPTY</text><text fill="#000000" font-family="sans-serif" font-size="12" lengthAdjust="spacingAndGlyphs" textLength="114" x="483.5703" y="134.0664">&lt;Space&gt;, &lt;Newline&gt;</text><text fill="#000000" font-family="sans-serif" font-size="12" lengthAdjust="spacingAndGlyphs" textLength="86" x="483.5703" y="149.1602">skip empty char</text><rect fill="#FEFECE" filter="url(#f1rmy58k8156r0)" height="67.7969" rx="12.5" ry="12.5" style="stroke: #A80036; stroke-width: 1.5;" width="168" x="137.5703" y="235"/><line style="stroke: #A80036; stroke-width: 1.5;" x1="137.5703" x2="305.5703" y1="262.6094" y2="262.6094"/><text fill="#000000" font-family="sans-serif" font-size="14" lengthAdjust="spacingAndGlyphs" textLength="53" x="195.0703" y="254.5332">SWITCH</text><text fill="#000000" font-family="sans-serif" font-size="12" lengthAdjust="spacingAndGlyphs" textLength="118" x="142.5703" y="280.0664">&lt;any other character&gt;</text><text fill="#000000" font-family="sans-serif" font-size="12" lengthAdjust="spacingAndGlyphs" textLength="148" x="142.5703" y="295.1602">add char to elementBuilder</text><rect fill="#FEFECE" filter="url(#f1rmy58k8156r0)" height="67.7969" rx="12.5" ry="12.5" style="stroke: #A80036; stroke-width: 1.5;" width="168" x="299.5703" y="381"/><line style="stroke: #A80036; stroke-width: 1.5;" x1="299.5703" x2="467.5703" y1="408.6094" y2="408.6094"/><text fill="#000000" font-family="sans-serif" font-size="14" lengthAdjust="spacingAndGlyphs" textLength="51" x="358.0703" y="400.5332">STRING</text><text fill="#000000" font-family="sans-serif" font-size="12" lengthAdjust="spacingAndGlyphs" textLength="118" x="304.5703" y="426.0664">&lt;any other character&gt;</text><text fill="#000000" font-family="sans-serif" font-size="12" lengthAdjust="spacingAndGlyphs" textLength="148" x="304.5703" y="441.1602">add char to elementBuilder</text><rect fill="#FEFECE" filter="url(#f1rmy58k8156r0)" height="67.7969" rx="12.5" ry="12.5" style="stroke: #A80036; stroke-width: 1.5;" width="168" x="966.5703" y="235"/><line style="stroke: #A80036; stroke-width: 1.5;" x1="966.5703" x2="1134.5703" y1="262.6094" y2="262.6094"/><text fill="#000000" font-family="sans-serif" font-size="14" lengthAdjust="spacingAndGlyphs" textLength="30" x="1035.5703" y="254.5332">ARG</text><text fill="#000000" font-family="sans-serif" font-size="12" lengthAdjust="spacingAndGlyphs" textLength="118" x="971.5703" y="280.0664">&lt;any other character&gt;</text><text fill="#000000" font-family="sans-serif" font-size="12" lengthAdjust="spacingAndGlyphs" textLength="148" x="971.5703" y="295.1602">add char to elementBuilder</text><rect fill="#FEFECE" filter="url(#f1rmy58k8156r0)" height="52.7031" rx="12.5" ry="12.5" style="stroke: #A80036; stroke-width: 1.5;" width="135" x="983.0703" y="388.5"/><line style="stroke: #A80036; stroke-width: 1.5;" x1="983.0703" x2="1118.0703" y1="416.1094" y2="416.1094"/><text fill="#000000" font-family="sans-serif" font-size="14" lengthAdjust="spacingAndGlyphs" textLength="50" x="1025.5703" y="408.0332">ERROR</text><text fill="#000000" font-family="sans-serif" font-size="12" lengthAdjust="spacingAndGlyphs" textLength="115" x="988.0703" y="433.5664">throw DukeException</text><ellipse cx="545.5703" cy="18" fill="#000000" filter="url(#f1rmy58k8156r0)" rx="10" ry="10" style="stroke: none; stroke-width: 1.0;"/><!--MD5=[da22a19951637ec0d8da8353a1db40af]
link *start to EMPTY--><path d="M545.5703,28.0678 C545.5703,40.8441 545.5703,63.6341 545.5703,83.6821 " fill="none" id="*start-&gt;EMPTY" style="stroke: #A80036; stroke-width: 1.0;"/><polygon fill="#A80036" points="545.5703,88.7122,549.5703,79.7122,545.5703,83.7122,541.5703,79.7122,545.5703,88.7122" style="stroke: #A80036; stroke-width: 1.0;"/><!--MD5=[0e03e86ef63c0459e055d6e3b64a9f17]
link EMPTY to SWITCH--><path d="M500.5492,157.1148 C477.7655,173.229 449.1494,191.7801 421.5703,205 C386.633,221.747 346.2361,235.619 310.9334,246.1169 " fill="none" id="EMPTY-&gt;SWITCH" style="stroke: #A80036; stroke-width: 1.0;"/><polygon fill="#A80036" points="305.763,247.6412,315.5268,248.9328,310.5589,246.2272,313.2644,241.2593,305.763,247.6412" style="stroke: #A80036; stroke-width: 1.0;"/><text fill="#000000" font-family="sans-serif" font-size="13" lengthAdjust="spacingAndGlyphs" textLength="60" x="455.5703" y="201.4951">&lt;Hyphen&gt;</text><!--MD5=[989268bc0063a653f321b7f0d9af78cc]
link SWITCH to EMPTY--><path d="M205.4329,234.6077 C200.4506,218.5238 198.7467,200.0799 209.5703,187 C242.3738,147.3585 384.7384,132.059 473.2981,126.3109 " fill="none" id="SWITCH-&gt;EMPTY" style="stroke: #A80036; stroke-width: 1.0;"/><polygon fill="#A80036" points="478.5252,125.9787,469.2895,122.5579,473.5353,126.296,469.7972,130.5418,478.5252,125.9787" style="stroke: #A80036; stroke-width: 1.0;"/><text fill="#000000" font-family="sans-serif" font-size="13" lengthAdjust="spacingAndGlyphs" textLength="202" x="210.5703" y="201.4951">&lt;Space&gt;, &lt;Newline&gt; - addSwitch()</text><!--MD5=[c41d3f46c65d479679af27c2c70d3b8c]
link EMPTY to STRING--><path d="M478.48,126.8673 C350.0006,135.8606 77.1022,163.1663 22.5703,235 C-55.1393,337.3653 164.0762,385.4671 294.4451,404.4999 " fill="none" id="EMPTY-&gt;STRING" style="stroke: #A80036; stroke-width: 1.0;"/><polygon fill="#A80036" points="299.4293,405.2198,291.0935,399.9744,294.4806,404.5051,289.95,407.8923,299.4293,405.2198" style="stroke: #A80036; stroke-width: 1.0;"/><text fill="#000000" font-family="sans-serif" font-size="13" lengthAdjust="spacingAndGlyphs" textLength="95" x="23.5703" y="274.4951">&lt;Double Quote&gt;</text><!--MD5=[a5fb4c386324764079fad471cde20ffe]
link STRING to EMPTY--><path d="M464.961,380.9503 C477.3703,372.717 488.9056,362.8002 497.5703,351 C538.8034,294.846 546.2818,211.0557 546.7607,162.2288 " fill="none" id="STRING-&gt;EMPTY" style="stroke: #A80036; stroke-width: 1.0;"/><polygon fill="#A80036" points="546.7864,157.0338,542.7417,166.0138,546.7615,162.0337,550.7416,166.0536,546.7864,157.0338" style="stroke: #A80036; stroke-width: 1.0;"/><text fill="#000000" font-family="sans-serif" font-size="13" lengthAdjust="spacingAndGlyphs" textLength="190" x="541.5703" y="274.4951">&lt;Double Quote&gt; - writeElement()</text><!--MD5=[a5fb4c386324764079fad471cde20ffe]
link STRING to EMPTY--><path d="M467.9832,400.315 C562.9057,381.881 708.0821,347.2419 740.5703,303 C758.4585,278.6403 755.7108,261.1562 740.5703,235 C714.2456,189.5222 661.6985,160.9056 617.7796,143.9916 " fill="none" id="STRING-&gt;EMPTY-1" style="stroke: #A80036; stroke-width: 1.0;"/><polygon fill="#A80036" points="613.0148,142.1891,620.0173,149.1148,617.6914,143.9582,622.8479,141.6323,613.0148,142.1891" style="stroke: #A80036; stroke-width: 1.0;"/><text fill="#000000" font-family="sans-serif" font-size="13" lengthAdjust="spacingAndGlyphs" textLength="122" x="754.5703" y="274.4951">&lt;Space&gt;, &lt;Newline&gt;</text><!--MD5=[cb0b77afb0308b28b8661ff9af939010]
link EMPTY to ARG--><path d="M612.9345,125.0606 C724.9203,129.669 943.2521,144.0387 1005.5703,187 C1020.4734,197.274 1030.9299,214.1476 1037.9866,229.9258 " fill="none" id="EMPTY-&gt;ARG" style="stroke: #A80036; stroke-width: 1.0;"/><polygon fill="#A80036" points="1040.0686,234.7787,1040.196,224.9307,1038.0972,230.1838,1032.8441,228.0849,1040.0686,234.7787" style="stroke: #A80036; stroke-width: 1.0;"/><text fill="#000000" font-family="sans-serif" font-size="13" lengthAdjust="spacingAndGlyphs" textLength="128" x="1024.5703" y="201.4951">&lt;any other character&gt;</text><!--MD5=[ffdef26d1a36bf7eb49795598be0edaa]
link ARG to EMPTY--><path d="M966.3394,240.0162 C936.8165,229.4695 903.553,217.1463 873.5703,205 C855.5018,197.6803 852.0709,193.1465 833.5703,187 C761.7339,163.1334 676.856,145.4935 617.9359,134.8451 " fill="none" id="ARG-&gt;EMPTY" style="stroke: #A80036; stroke-width: 1.0;"/><polygon fill="#A80036" points="612.6731,133.9001,620.8243,139.428,617.5944,134.784,622.2385,131.554,612.6731,133.9001" style="stroke: #A80036; stroke-width: 1.0;"/><text fill="#000000" font-family="sans-serif" font-size="13" lengthAdjust="spacingAndGlyphs" textLength="122" x="874.5703" y="201.4951">&lt;Space&gt;, &lt;Newline&gt;</text><!--MD5=[4402e7cdce84e2e4339ba39b492c2a56]
link SWITCH to SWITCH--><path d="M305.7977,255.7523 C325.7895,256.8146 340.5703,261.2305 340.5703,269 C340.5703,276.1018 328.2208,280.4017 310.8303,281.8995 " fill="none" id="SWITCH-&gt;SWITCH" style="stroke: #A80036; stroke-width: 1.0;"/><polygon fill="#A80036" points="305.7977,282.2477,315.0523,285.6169,310.7858,281.9026,314.5001,277.636,305.7977,282.2477" style="stroke: #A80036; stroke-width: 1.0;"/><text fill="#000000" font-family="sans-serif" font-size="13" lengthAdjust="spacingAndGlyphs" textLength="140" x="346.5703" y="274.4951">&lt;Hyphen&gt; - addSwitch()</text><!--MD5=[e21839831eb554506b603cce16ef2bea]
link SWITCH to STRING--><path d="M259.5521,303.2305 C284.2305,325.4715 316.4139,354.4763 341.8109,377.365 " fill="none" id="SWITCH-&gt;STRING" style="stroke: #A80036; stroke-width: 1.0;"/><polygon fill="#A80036" points="345.8265,380.9839,341.819,371.9872,342.1124,377.6365,336.4631,377.9299,345.8265,380.9839" style="stroke: #A80036; stroke-width: 1.0;"/><text fill="#000000" font-family="sans-serif" font-size="13" lengthAdjust="spacingAndGlyphs" textLength="175" x="313.5703" y="347.4951">&lt;Double Quote&gt; - addSwitch()</text><!--MD5=[d2ffbde1c34acf46d2b36d353006e324]
link ARG to ERROR--><path d="M1050.5703,303.2305 C1050.5703,327.3646 1050.5703,359.463 1050.5703,383.0687 " fill="none" id="ARG-&gt;ERROR" style="stroke: #A80036; stroke-width: 1.0;"/><polygon fill="#A80036" points="1050.5703,388.2718,1054.5703,379.2718,1050.5703,383.2718,1046.5703,379.2718,1050.5703,388.2718" style="stroke: #A80036; stroke-width: 1.0;"/><text fill="#000000" font-family="sans-serif" font-size="13" lengthAdjust="spacingAndGlyphs" textLength="163" x="1051.5703" y="347.4951">&lt;Hyphen&gt;, &lt;Double Quote&gt;</text><!--MD5=[0536fbcdf2906be85f9c01da8455a2e4]
@startuml
EMPTY : <Space>, <Newline> 
EMPTY : skip empty char
SWITCH : <any other character> 
SWITCH : add char to elementBuilder
STRING : <any other character> 
STRING : add char to elementBuilder
ARG : <any other character> 
ARG : add char to elementBuilder
ERROR : throw DukeException
[*] - -> EMPTY
EMPTY - -> SWITCH : <Hyphen>
EMPTY - -> STRING : <Double Quote>
EMPTY - -> ARG : <any other character>
SWITCH - -> EMPTY : <Space>, <Newline> - addSwitch()
SWITCH - -> SWITCH : <Hyphen> - addSwitch()
SWITCH - -> STRING : <Double Quote> - addSwitch()
STRING - -> EMPTY : <Double Quote> - writeElement()
STRING - -> EMPTY : <Space>, <Newline>
ARG - -> EMPTY : <Space>, <Newline>
ARG - -> ERROR : <Hyphen>, <Double Quote>

@enduml

PlantUML version 1.2019.11(Sun Sep 22 18:02:15 SGT 2019)
(GPL source distribution)
Java Runtime: OpenJDK Runtime Environment
JVM: OpenJDK 64-Bit Server VM
Java Version: 11+28
Operating System: Windows 10
Default Encoding: Cp1252
Language: en
Country: SG
--></g></svg>