<?xml version="1.0" encoding="UTF-8" standalone="no"?><svg xmlns="http://www.w3.org/2000/svg" xmlns:xlink="http://www.w3.org/1999/xlink" contentScriptType="application/ecmascript" contentStyleType="text/css" height="406px" preserveAspectRatio="none" style="width:478px;height:406px;" version="1.1" viewBox="0 0 478 406" width="478px" zoomAndPan="magnify"><defs><filter height="300%" id="f25f0ky4h0zb8" width="300%" x="-1" y="-1"><feGaussianBlur result="blurOut" stdDeviation="2.0"/><feColorMatrix in="blurOut" result="blurOut2" type="matrix" values="0 0 0 0 0 0 0 0 0 0 0 0 0 0 0 0 0 0 .4 0"/><feOffset dx="4.0" dy="4.0" in="blurOut2" result="blurOut3"/><feBlend in="SourceGraphic" in2="blurOut3" mode="normal"/></filter></defs><g><ellipse cx="46.5" cy="18" fill="#000000" filter="url(#f25f0ky4h0zb8)" rx="10" ry="10" style="stroke: none; stroke-width: 1.0;"/><rect fill="#FEFECE" filter="url(#f25f0ky4h0zb8)" height="50" rx="12.5" ry="12.5" style="stroke: #A80036; stroke-width: 1.5;" width="81" x="6" y="89"/><line style="stroke: #A80036; stroke-width: 1.5;" x1="6" x2="87" y1="116.6094" y2="116.6094"/><text fill="#000000" font-family="sans-serif" font-size="14" lengthAdjust="spacingAndGlyphs" textLength="61" x="16" y="108.5332">CMDARG</text><rect fill="#FEFECE" filter="url(#f25f0ky4h0zb8)" height="50" rx="12.5" ry="12.5" style="stroke: #A80036; stroke-width: 1.5;" width="73" x="10" y="217"/><line style="stroke: #A80036; stroke-width: 1.5;" x1="10" x2="83" y1="244.6094" y2="244.6094"/><text fill="#000000" font-family="sans-serif" font-size="14" lengthAdjust="spacingAndGlyphs" textLength="53" x="20" y="236.5332">SWITCH</text><rect fill="#FEFECE" filter="url(#f25f0ky4h0zb8)" height="50" rx="12.5" ry="12.5" style="stroke: #A80036; stroke-width: 1.5;" width="67" x="13" y="345"/><line style="stroke: #A80036; stroke-width: 1.5;" x1="13" x2="80" y1="372.6094" y2="372.6094"/><text fill="#000000" font-family="sans-serif" font-size="14" lengthAdjust="spacingAndGlyphs" textLength="47" x="23" y="364.5332">EMPTY</text><!--MD5=[9e1a2367ab8266d17a163d199ce7f616]
link *start to CMDARG--><path d="M46.5,28.2737 C46.5,41.3608 46.5,64.5555 46.5,83.5207 " fill="none" id="*start-&gt;CMDARG" style="stroke: #A80036; stroke-width: 1.0;"/><polygon fill="#A80036" points="46.5,88.7458,50.5,79.7458,46.5,83.7458,42.5,79.7458,46.5,88.7458" style="stroke: #A80036; stroke-width: 1.0;"/><!--MD5=[c34d29cb0e84755d82c5b358272e0bce]
link CMDARG to SWITCH--><path d="M46.5,139.2887 C46.5,160.0634 46.5,189.555 46.5,211.6109 " fill="none" id="CMDARG-&gt;SWITCH" style="stroke: #A80036; stroke-width: 1.0;"/><polygon fill="#A80036" points="46.5,216.7639,50.5,207.7639,46.5,211.7639,42.5,207.7639,46.5,216.7639" style="stroke: #A80036; stroke-width: 1.0;"/><text fill="#000000" font-family="sans-serif" font-size="13" lengthAdjust="spacingAndGlyphs" textLength="12" x="47.5" y="183.4951">`-`</text><!--MD5=[5101311325d9f49c404ad7cd9916f125]
link CMDARG to CMDARG--><path d="M87.276,104.0536 C105.8523,103.038 122,106.3535 122,114 C122,120.9296 108.738,124.3022 92.4253,124.1178 " fill="none" id="CMDARG-&gt;CMDARG" style="stroke: #A80036; stroke-width: 1.0;"/><polygon fill="#A80036" points="87.276,123.9464,96.1379,128.2438,92.2732,124.1128,96.4042,120.2482,87.276,123.9464" style="stroke: #A80036; stroke-width: 1.0;"/><text fill="#000000" font-family="sans-serif" font-size="13" lengthAdjust="spacingAndGlyphs" textLength="173" x="128" y="119.4951">append character to argument</text><!--MD5=[4402e7cdce84e2e4339ba39b492c2a56]
link SWITCH to SWITCH--><path d="M83.2882,230.3545 C101.6349,228.7432 118,232.625 118,242 C118,250.4961 104.5596,254.4807 88.3841,253.9539 " fill="none" id="SWITCH-&gt;SWITCH" style="stroke: #A80036; stroke-width: 1.0;"/><polygon fill="#A80036" points="83.2882,253.6455,92.03,258.182,88.2791,253.9476,92.5135,250.1967,83.2882,253.6455" style="stroke: #A80036; stroke-width: 1.0;"/><text fill="#000000" font-family="sans-serif" font-size="13" lengthAdjust="spacingAndGlyphs" textLength="342" x="124" y="247.4951">append character to switch argument, or start a new switch</text><!--MD5=[989268bc0063a653f321b7f0d9af78cc]
link SWITCH to EMPTY--><path d="M46.5,267.2887 C46.5,288.0634 46.5,317.555 46.5,339.6109 " fill="none" id="SWITCH-&gt;EMPTY" style="stroke: #A80036; stroke-width: 1.0;"/><polygon fill="#A80036" points="46.5,344.7639,50.5,335.7639,46.5,339.7639,42.5,335.7639,46.5,344.7639" style="stroke: #A80036; stroke-width: 1.0;"/><text fill="#000000" font-family="sans-serif" font-size="13" lengthAdjust="spacingAndGlyphs" textLength="122" x="47.5" y="311.4951">&lt;Space&gt;, &lt;Newline&gt;</text><!--MD5=[bdda815a09f8359c136e2456e21e449e]
@startuml
[*] - -> CMDARG
CMDARG - -> SWITCH : `-`
CMDARG - -> CMDARG : append character to argument
SWITCH - -> SWITCH : append character to switch argument, or start a new switch
SWITCH - -> EMPTY : <Space>, <Newline>

@enduml

PlantUML version 1.2019.11(Sun Sep 22 18:02:15 SGT 2019)
(GPL source distribution)
Java Runtime: OpenJDK Runtime Environment
JVM: OpenJDK 64-Bit Server VM
Java Version: 11+28
Operating System: Windows 10
Default Encoding: Cp1252
Language: en
Country: SG
--></g></svg>