<?xml version="1.0" encoding="UTF-8" standalone="no"?><svg xmlns="http://www.w3.org/2000/svg" xmlns:xlink="http://www.w3.org/1999/xlink" contentScriptType="application/ecmascript" contentStyleType="text/css" height="689px" preserveAspectRatio="none" style="width:972px;height:689px;" version="1.1" viewBox="0 0 972 689" width="972px" zoomAndPan="magnify"><defs><filter height="300%" id="fishuo1ubt8bs" width="300%" x="-1" y="-1"><feGaussianBlur result="blurOut" stdDeviation="2.0"/><feColorMatrix in="blurOut" result="blurOut2" type="matrix" values="0 0 0 0 0 0 0 0 0 0 0 0 0 0 0 0 0 0 .4 0"/><feOffset dx="4.0" dy="4.0" in="blurOut2" result="blurOut3"/><feBlend in="SourceGraphic" in2="blurOut3" mode="normal"/></filter></defs><g><rect fill="#FFFFFF" filter="url(#fishuo1ubt8bs)" height="494.2734" style="stroke: #A80036; stroke-width: 1.0;" width="10" x="170.5" y="97.6094"/><rect fill="#FFFFFF" filter="url(#fishuo1ubt8bs)" height="91.0547" style="stroke: #A80036; stroke-width: 1.0;" width="10" x="175.5" y="350.4219"/><rect fill="#FFFFFF" filter="url(#fishuo1ubt8bs)" height="402.2188" style="stroke: #A80036; stroke-width: 1.0;" width="10" x="396.5" y="150.3125"/><rect fill="#FFFFFF" filter="url(#fishuo1ubt8bs)" height="494.2734" style="stroke: #A80036; stroke-width: 1.0;" width="10" x="704.5" y="97.6094"/><rect fill="#FFFFFF" filter="url(#fishuo1ubt8bs)" height="306.1641" style="stroke: #A80036; stroke-width: 1.0;" width="10" x="709.5" y="246.3672"/><rect fill="#FFFFFF" filter="url(#fishuo1ubt8bs)" height="170.1094" style="stroke: #000000; stroke-width: 2.0;" width="744.5" x="13" y="309.7188"/><line style="stroke: #A80036; stroke-width: 1.0; stroke-dasharray: 5.0,5.0;" x1="40" x2="40" y1="87.6094" y2="600.8828"/><line style="stroke: #A80036; stroke-width: 1.0; stroke-dasharray: 5.0,5.0;" x1="175.5" x2="175.5" y1="87.6094" y2="600.8828"/><line style="stroke: #A80036; stroke-width: 1.0; stroke-dasharray: 5.0,5.0;" x1="401.5" x2="401.5" y1="87.6094" y2="600.8828"/><line style="stroke: #A80036; stroke-width: 1.0; stroke-dasharray: 5.0,5.0;" x1="709.5" x2="709.5" y1="87.6094" y2="600.8828"/><text fill="#000000" font-family="sans-serif" font-size="14" lengthAdjust="spacingAndGlyphs" textLength="29" x="23" y="84.5332">User</text><ellipse cx="40.5" cy="13" fill="#FEFECE" filter="url(#fishuo1ubt8bs)" rx="8" ry="8" style="stroke: #A80036; stroke-width: 2.0;"/><path d="M40.5,21 L40.5,48 M27.5,29 L53.5,29 M40.5,48 L27.5,63 M40.5,48 L53.5,63 " fill="none" filter="url(#fishuo1ubt8bs)" style="stroke: #A80036; stroke-width: 2.0;"/><text fill="#000000" font-family="sans-serif" font-size="14" lengthAdjust="spacingAndGlyphs" textLength="29" x="23" y="614.416">User</text><ellipse cx="40.5" cy="627.4922" fill="#FEFECE" filter="url(#fishuo1ubt8bs)" rx="8" ry="8" style="stroke: #A80036; stroke-width: 2.0;"/><path d="M40.5,635.4922 L40.5,662.4922 M27.5,643.4922 L53.5,643.4922 M40.5,662.4922 L27.5,677.4922 M40.5,662.4922 L53.5,677.4922 " fill="none" filter="url(#fishuo1ubt8bs)" style="stroke: #A80036; stroke-width: 2.0;"/><rect fill="#FEFECE" filter="url(#fishuo1ubt8bs)" height="31.6094" style="stroke: #A80036; stroke-width: 1.5;" width="82" x="132.5" y="51"/><text fill="#000000" font-family="sans-serif" font-size="14" lengthAdjust="spacingAndGlyphs" textLength="68" x="139.5" y="72.5332">:DukeCore</text><rect fill="#FEFECE" filter="url(#fishuo1ubt8bs)" height="31.6094" style="stroke: #A80036; stroke-width: 1.5;" width="82" x="132.5" y="599.8828"/><text fill="#000000" font-family="sans-serif" font-size="14" lengthAdjust="spacingAndGlyphs" textLength="68" x="139.5" y="621.416">:DukeCore</text><rect fill="#FEFECE" filter="url(#fishuo1ubt8bs)" height="31.6094" style="stroke: #A80036; stroke-width: 1.5;" width="104" x="347.5" y="51"/><text fill="#000000" font-family="sans-serif" font-size="14" lengthAdjust="spacingAndGlyphs" textLength="90" x="354.5" y="72.5332">:ObjCommand</text><rect fill="#FEFECE" filter="url(#fishuo1ubt8bs)" height="31.6094" style="stroke: #A80036; stroke-width: 1.5;" width="104" x="347.5" y="599.8828"/><text fill="#000000" font-family="sans-serif" font-size="14" lengthAdjust="spacingAndGlyphs" textLength="90" x="354.5" y="621.416">:ObjCommand</text><rect fill="#FEFECE" filter="url(#fishuo1ubt8bs)" height="31.6094" style="stroke: #A80036; stroke-width: 1.5;" width="72" x="671.5" y="51"/><text fill="#000000" font-family="sans-serif" font-size="14" lengthAdjust="spacingAndGlyphs" textLength="58" x="678.5" y="72.5332">:ObjSpec</text><rect fill="#FEFECE" filter="url(#fishuo1ubt8bs)" height="31.6094" style="stroke: #A80036; stroke-width: 1.5;" width="72" x="671.5" y="599.8828"/><text fill="#000000" font-family="sans-serif" font-size="14" lengthAdjust="spacingAndGlyphs" textLength="58" x="678.5" y="621.416">:ObjSpec</text><rect fill="#FFFFFF" filter="url(#fishuo1ubt8bs)" height="494.2734" style="stroke: #A80036; stroke-width: 1.0;" width="10" x="170.5" y="97.6094"/><rect fill="#FFFFFF" filter="url(#fishuo1ubt8bs)" height="91.0547" style="stroke: #A80036; stroke-width: 1.0;" width="10" x="175.5" y="350.4219"/><rect fill="#FFFFFF" filter="url(#fishuo1ubt8bs)" height="402.2188" style="stroke: #A80036; stroke-width: 1.0;" width="10" x="396.5" y="150.3125"/><rect fill="#FFFFFF" filter="url(#fishuo1ubt8bs)" height="494.2734" style="stroke: #A80036; stroke-width: 1.0;" width="10" x="704.5" y="97.6094"/><rect fill="#FFFFFF" filter="url(#fishuo1ubt8bs)" height="306.1641" style="stroke: #A80036; stroke-width: 1.0;" width="10" x="709.5" y="246.3672"/><polygon fill="#A80036" points="158.5,115.9609,168.5,119.9609,158.5,123.9609,162.5,119.9609" style="stroke: #A80036; stroke-width: 1.0;"/><line style="stroke: #A80036; stroke-width: 1.0;" x1="40.5" x2="164.5" y1="119.9609" y2="119.9609"/><text fill="#000000" font-family="sans-serif" font-size="13" lengthAdjust="spacingAndGlyphs" textLength="74" x="47.5" y="115.1045">Provide Input</text><polygon fill="#A80036" points="384.5,146.3125,394.5,150.3125,384.5,154.3125,388.5,150.3125" style="stroke: #A80036; stroke-width: 1.0;"/><line style="stroke: #A80036; stroke-width: 1.0;" x1="180.5" x2="390.5" y1="150.3125" y2="150.3125"/><text fill="#000000" font-family="sans-serif" font-size="13" lengthAdjust="spacingAndGlyphs" textLength="184" x="187.5" y="145.4561">Construct and Load Parameters</text><polygon fill="#A80036" points="191.5,176.6641,181.5,180.6641,191.5,184.6641,187.5,180.6641" style="stroke: #A80036; stroke-width: 1.0;"/><line style="stroke: #A80036; stroke-width: 1.0; stroke-dasharray: 2.0,2.0;" x1="185.5" x2="395.5" y1="180.6641" y2="180.6641"/><text fill="#000000" font-family="sans-serif" font-size="13" lengthAdjust="spacingAndGlyphs" textLength="147" x="197.5" y="175.8076">Return Loaded Command</text><polygon fill="#A80036" points="384.5,207.0156,394.5,211.0156,384.5,215.0156,388.5,211.0156" style="stroke: #A80036; stroke-width: 1.0;"/><line style="stroke: #A80036; stroke-width: 1.0;" x1="180.5" x2="390.5" y1="211.0156" y2="211.0156"/><text fill="#000000" font-family="sans-serif" font-size="13" lengthAdjust="spacingAndGlyphs" textLength="111" x="187.5" y="206.1592">execute(DukeCore)</text><polygon fill="#A80036" points="697.5,242.3672,707.5,246.3672,697.5,250.3672,701.5,246.3672" style="stroke: #A80036; stroke-width: 1.0;"/><line style="stroke: #A80036; stroke-width: 1.0;" x1="406.5" x2="703.5" y1="246.3672" y2="246.3672"/><text fill="#000000" font-family="sans-serif" font-size="13" lengthAdjust="spacingAndGlyphs" textLength="252" x="413.5" y="241.5107">executeWithCmd(DukeCore, ArgCommand)</text><path d="M724,224.0156 L724,250.0156 L841,250.0156 L841,234.0156 L831,224.0156 L724,224.0156 " fill="#FBFB77" filter="url(#fishuo1ubt8bs)" style="stroke: #A80036; stroke-width: 1.0;"/><path d="M831,224.0156 L831,234.0156 L841,234.0156 L831,224.0156 " fill="#FBFB77" style="stroke: #A80036; stroke-width: 1.0;"/><text fill="#000000" font-family="sans-serif" font-size="13" lengthAdjust="spacingAndGlyphs" textLength="96" x="730" y="242.5107">find target object</text><line style="stroke: #A80036; stroke-width: 1.0;" x1="719.5" x2="761.5" y1="281.7188" y2="281.7188"/><line style="stroke: #A80036; stroke-width: 1.0;" x1="761.5" x2="761.5" y1="281.7188" y2="294.7188"/><line style="stroke: #A80036; stroke-width: 1.0;" x1="720.5" x2="761.5" y1="294.7188" y2="294.7188"/><polygon fill="#A80036" points="730.5,290.7188,720.5,294.7188,730.5,298.7188,726.5,294.7188" style="stroke: #A80036; stroke-width: 1.0;"/><text fill="#000000" font-family="sans-serif" font-size="13" lengthAdjust="spacingAndGlyphs" textLength="111" x="726.5" y="276.8623">execute(DukeCore)</text><path d="M13,309.7188 L140,309.7188 L140,317.7188 L130,327.7188 L13,327.7188 L13,309.7188 " fill="#EEEEEE" style="stroke: #000000; stroke-width: 1.0;"/><rect fill="none" height="170.1094" style="stroke: #000000; stroke-width: 2.0;" width="744.5" x="13" y="309.7188"/><text fill="#000000" font-family="sans-serif" font-size="13" font-weight="bold" lengthAdjust="spacingAndGlyphs" textLength="82" x="28" y="324.2139">if ambiguous</text><path d="M762.5,314.7188 L762.5,340.7188 L939.5,340.7188 L939.5,324.7188 L929.5,314.7188 L762.5,314.7188 " fill="#FBFB77" filter="url(#fishuo1ubt8bs)" style="stroke: #A80036; stroke-width: 1.0;"/><path d="M929.5,314.7188 L929.5,324.7188 L939.5,324.7188 L929.5,314.7188 " fill="#FBFB77" style="stroke: #A80036; stroke-width: 1.0;"/><text fill="#000000" font-family="sans-serif" font-size="13" lengthAdjust="spacingAndGlyphs" textLength="156" x="768.5" y="333.2139">actual command execution</text><polygon fill="#A80036" points="196.5,346.4219,186.5,350.4219,196.5,354.4219,192.5,350.4219" style="stroke: #A80036; stroke-width: 1.0;"/><line style="stroke: #A80036; stroke-width: 1.0; stroke-dasharray: 2.0,2.0;" x1="190.5" x2="708.5" y1="350.4219" y2="350.4219"/><text fill="#000000" font-family="sans-serif" font-size="13" lengthAdjust="spacingAndGlyphs" textLength="219" x="202.5" y="345.5654">search(SearchResults, ObjCommand)</text><polygon fill="#A80036" points="51.5,376.7734,41.5,380.7734,51.5,384.7734,47.5,380.7734" style="stroke: #A80036; stroke-width: 1.0;"/><line style="stroke: #A80036; stroke-width: 1.0; stroke-dasharray: 2.0,2.0;" x1="45.5" x2="174.5" y1="380.7734" y2="380.7734"/><text fill="#000000" font-family="sans-serif" font-size="13" lengthAdjust="spacingAndGlyphs" textLength="106" x="57.5" y="375.917">Request Selection</text><polygon fill="#A80036" points="163.5,407.125,173.5,411.125,163.5,415.125,167.5,411.125" style="stroke: #A80036; stroke-width: 1.0;"/><line style="stroke: #A80036; stroke-width: 1.0;" x1="40.5" x2="169.5" y1="411.125" y2="411.125"/><text fill="#000000" font-family="sans-serif" font-size="13" lengthAdjust="spacingAndGlyphs" textLength="100" x="47.5" y="406.2686">Provide Selection</text><polygon fill="#A80036" points="384.5,437.4766,394.5,441.4766,384.5,445.4766,388.5,441.4766" style="stroke: #A80036; stroke-width: 1.0;"/><line style="stroke: #A80036; stroke-width: 1.0;" x1="180.5" x2="390.5" y1="441.4766" y2="441.4766"/><text fill="#000000" font-family="sans-serif" font-size="13" lengthAdjust="spacingAndGlyphs" textLength="187" x="187.5" y="436.6201">execute(DukeCore, DukeObject)</text><polygon fill="#A80036" points="697.5,467.8281,707.5,471.8281,697.5,475.8281,701.5,471.8281" style="stroke: #A80036; stroke-width: 1.0;"/><line style="stroke: #A80036; stroke-width: 1.0;" x1="406.5" x2="703.5" y1="471.8281" y2="471.8281"/><text fill="#000000" font-family="sans-serif" font-size="13" lengthAdjust="spacingAndGlyphs" textLength="274" x="413.5" y="466.9717">execute(DukeCore, ObjCommand, DukeObject)</text><line style="stroke: #A80036; stroke-width: 1.0;" x1="719.5" x2="761.5" y1="509.1797" y2="509.1797"/><line style="stroke: #A80036; stroke-width: 1.0;" x1="761.5" x2="761.5" y1="509.1797" y2="522.1797"/><line style="stroke: #A80036; stroke-width: 1.0;" x1="720.5" x2="761.5" y1="522.1797" y2="522.1797"/><polygon fill="#A80036" points="730.5,518.1797,720.5,522.1797,730.5,526.1797,726.5,522.1797" style="stroke: #A80036; stroke-width: 1.0;"/><text fill="#000000" font-family="sans-serif" font-size="13" lengthAdjust="spacingAndGlyphs" textLength="234" x="726.5" y="504.3232">executeWithObj(DukeCore, DukeObject)</text><polygon fill="#A80036" points="191.5,548.5313,181.5,552.5313,191.5,556.5313,187.5,552.5313" style="stroke: #A80036; stroke-width: 1.0;"/><line style="stroke: #A80036; stroke-width: 1.0; stroke-dasharray: 2.0,2.0;" x1="185.5" x2="703.5" y1="552.5313" y2="552.5313"/><text fill="#000000" font-family="sans-serif" font-size="13" lengthAdjust="spacingAndGlyphs" textLength="149" x="197.5" y="547.6748">Return Command Results</text><line style="stroke: #A80036; stroke-width: 2.0;" x1="392.5" x2="410.5" y1="543.5313" y2="561.5313"/><line style="stroke: #A80036; stroke-width: 2.0;" x1="392.5" x2="410.5" y1="561.5313" y2="543.5313"/><polygon fill="#A80036" points="51.5,578.8828,41.5,582.8828,51.5,586.8828,47.5,582.8828" style="stroke: #A80036; stroke-width: 1.0;"/><line style="stroke: #A80036; stroke-width: 1.0; stroke-dasharray: 2.0,2.0;" x1="45.5" x2="169.5" y1="582.8828" y2="582.8828"/><text fill="#000000" font-family="sans-serif" font-size="13" lengthAdjust="spacingAndGlyphs" textLength="103" x="57.5" y="578.0264">Provide Feedback</text><!--MD5=[15c7672a99ebd43eab742318a237251e]
@startuml
actor User
activate ":DukeCore"
participant ":ObjCommand"
activate ":ObjSpec"

User -> ":DukeCore" : Provide Input
":DukeCore" -> ":ObjCommand" : Construct and Load Parameters
activate ":ObjCommand"
":DukeCore" <- - ":ObjCommand" : Return Loaded Command
":DukeCore" -> ":ObjCommand" : execute(DukeCore)
":ObjCommand" -> ":ObjSpec" : executeWithCmd(DukeCore, ArgCommand)
activate ":ObjSpec"
note right : find target object
":ObjSpec" -> ":ObjSpec" : execute(DukeCore) 
group if ambiguous
  ":DukeCore" <- - ":ObjSpec" : search(SearchResults, ObjCommand)
  activate ":DukeCore"
  User <- - ":DukeCore" : Request Selection
  User -> ":DukeCore" : Provide Selection
  ":DukeCore" -> ":ObjCommand" : execute(DukeCore, DukeObject)
  deactivate ":DukeCore"
  ":ObjCommand" -> ":ObjSpec" : execute(DukeCore, ObjCommand, DukeObject)
end
note right : actual command execution
":ObjSpec" -> ":ObjSpec" : executeWithObj(DukeCore, DukeObject)
":DukeCore" <- - ":ObjSpec" : Return Command Results
deactivate ":ObjSpec"
destroy ":ObjCommand"
User <- - ":DukeCore" : Provide Feedback
@enduml

PlantUML version 1.2019.11(Sun Sep 22 18:02:15 SGT 2019)
(GPL source distribution)
Java Runtime: OpenJDK Runtime Environment
JVM: OpenJDK 64-Bit Server VM
Java Version: 11+28
Operating System: Windows 10
Default Encoding: Cp1252
Language: en
Country: SG
--></g></svg>