<?xml version="1.0" encoding="UTF-8" standalone="no"?>
<!DOCTYPE svg PUBLIC "-//W3C//DTD SVG 1.1//EN"
 "http://www.w3.org/Graphics/SVG/1.1/DTD/svg11.dtd">
<!-- Generated by graphviz version 2.40.1 (20161225.0304)
 -->
<!-- Title: main Pages: 1 -->
<svg width="1020pt" height="863pt"
 viewBox="0.00 0.00 1020.00 863.00" xmlns="http://www.w3.org/2000/svg" xmlns:xlink="http://www.w3.org/1999/xlink">
<g id="graph0" class="graph" transform="scale(1 1) rotate(0) translate(4 859)">
<title>main</title>
<polygon fill="#ffffff" stroke="transparent" points="-4,4 -4,-859 1016,-859 1016,4 -4,4"/>
<!-- Patient -->
<g id="node1" class="node">
<title>Patient</title>
<polygon fill="none" stroke="#000000" points="329.5,-575.5 329.5,-854.5 682.5,-854.5 682.5,-575.5 329.5,-575.5"/>
<text text-anchor="middle" x="506" y="-839.3" font-family="Times-Roman" font-size="14.00" fill="#000000">Patient</text>
<polyline fill="none" stroke="#000000" points="329.5,-831.5 682.5,-831.5 "/>
<text text-anchor="start" x="337.5" y="-816.3" font-family="Times-Roman" font-size="14.00" fill="#000000">&#45; name : String</text>
<text text-anchor="start" x="337.5" y="-801.3" font-family="Times-Roman" font-size="14.00" fill="#000000"> &#45; bedNo : int</text>
<text text-anchor="start" x="337.5" y="-786.3" font-family="Times-Roman" font-size="14.00" fill="#000000"> &#45; height : int</text>
<text text-anchor="start" x="337.5" y="-771.3" font-family="Times-Roman" font-size="14.00" fill="#000000"> &#45; weight : int</text>
<text text-anchor="start" x="337.5" y="-756.3" font-family="Times-Roman" font-size="14.00" fill="#000000"> &#45; age : int</text>
<text text-anchor="start" x="337.5" y="-741.3" font-family="Times-Roman" font-size="14.00" fill="#000000"> &#45; number : int</text>
<text text-anchor="start" x="337.5" y="-726.3" font-family="Times-Roman" font-size="14.00" fill="#000000"> &#45; address : String</text>
<text text-anchor="start" x="337.5" y="-711.3" font-family="Times-Roman" font-size="14.00" fill="#000000"> &#45; priDiagnosis : Diagnosis</text>
<text text-anchor="start" x="337.5" y="-696.3" font-family="Times-Roman" font-size="14.00" fill="#000000"> &#45; allergies : ArrayList&lt;Allergy&gt;</text>
<text text-anchor="start" x="337.5" y="-681.3" font-family="Times-Roman" font-size="14.00" fill="#000000"> &#45; impressions : ArrayList&lt;Impression&gt;</text>
<polyline fill="none" stroke="#000000" points="329.5,-673.5 682.5,-673.5 "/>
<text text-anchor="start" x="337.5" y="-658.3" font-family="Times-Roman" font-size="14.00" fill="#000000">+ discharge() : void</text>
<text text-anchor="start" x="337.5" y="-643.3" font-family="Times-Roman" font-size="14.00" fill="#000000"> + addNew&lt;impression/treatment/evidence&gt;() : void</text>
<text text-anchor="start" x="337.5" y="-628.3" font-family="Times-Roman" font-size="14.00" fill="#000000"> + toString() : String</text>
<text text-anchor="start" x="337.5" y="-613.3" font-family="Times-Roman" font-size="14.00" fill="#000000"> + toDisplayString() : String</text>
<text text-anchor="start" x="337.5" y="-598.3" font-family="Times-Roman" font-size="14.00" fill="#000000"> &lt;functions for private data structures&gt;</text>
<text text-anchor="start" x="337.5" y="-583.3" font-family="Times-Roman" font-size="14.00" fill="#000000"> &lt;getters and setters&gt;</text>
</g>
<!-- Impression -->
<g id="node2" class="node">
<title>Impression</title>
<polygon fill="none" stroke="#000000" points="380,-393.5 380,-537.5 632,-537.5 632,-393.5 380,-393.5"/>
<text text-anchor="middle" x="506" y="-522.3" font-family="Times-Roman" font-size="14.00" fill="#000000">Impression</text>
<polyline fill="none" stroke="#000000" points="380,-514.5 632,-514.5 "/>
<text text-anchor="start" x="388" y="-499.3" font-family="Times-Roman" font-size="14.00" fill="#000000">&#45; name : String</text>
<text text-anchor="start" x="388" y="-484.3" font-family="Times-Roman" font-size="14.00" fill="#000000"> &#45; description : String</text>
<text text-anchor="start" x="388" y="-469.3" font-family="Times-Roman" font-size="14.00" fill="#000000"> &#45; evidence : ArrayList&lt;Evidence&gt;</text>
<text text-anchor="start" x="388" y="-454.3" font-family="Times-Roman" font-size="14.00" fill="#000000"> &#45; treatments : ArrayList&lt;Treatment&gt;</text>
<polyline fill="none" stroke="#000000" points="380,-446.5 632,-446.5 "/>
<text text-anchor="start" x="388" y="-431.3" font-family="Times-Roman" font-size="14.00" fill="#000000">+ toDisplayString() : String</text>
<text text-anchor="start" x="388" y="-416.3" font-family="Times-Roman" font-size="14.00" fill="#000000"> &lt;getters and setters&gt;</text>
<text text-anchor="start" x="388" y="-401.3" font-family="Times-Roman" font-size="14.00" fill="#000000"> &lt;CRUD for evidence/treatments&gt;</text>
</g>
<!-- Patient&#45;&gt;Impression -->
<g id="edge1" class="edge">
<title>Patient&#45;&gt;Impression</title>
<path fill="none" stroke="#000000" d="M506,-575.2974C506,-566.0134 506,-556.8416 506,-547.9915"/>
<polygon fill="#000000" stroke="#000000" points="506,-537.7626 510.5001,-547.7625 506,-542.7626 506.0001,-547.7626 506.0001,-547.7626 506.0001,-547.7626 506,-542.7626 501.5001,-547.7626 506,-537.7626 506,-537.7626"/>
</g>
<!-- Evidence -->
<g id="node3" class="node">
<title>Evidence</title>
<polygon fill="none" stroke="#000000" points="172,-235 172,-319 428,-319 428,-235 172,-235"/>
<text text-anchor="middle" x="300" y="-303.8" font-family="Times-Roman" font-size="14.00" fill="#000000">{abstract} Evidence</text>
<polyline fill="none" stroke="#000000" points="172,-296 428,-296 "/>
<text text-anchor="start" x="180" y="-280.8" font-family="Times-Roman" font-size="14.00" fill="#000000">&#45; name : String</text>
<text text-anchor="start" x="180" y="-265.8" font-family="Times-Roman" font-size="14.00" fill="#000000"> &#45; impression : Impression</text>
<polyline fill="none" stroke="#000000" points="172,-258 428,-258 "/>
<text text-anchor="start" x="180" y="-242.8" font-family="Times-Roman" font-size="14.00" fill="#000000">+ toDisplayString() : String {abstract}</text>
</g>
<!-- Impression&#45;&gt;Evidence -->
<g id="edge2" class="edge">
<title>Impression&#45;&gt;Evidence</title>
<path fill="none" stroke="#000000" d="M419.7768,-386.6016C397.2942,-366.0289 373.7157,-344.4535 353.4825,-325.9391"/>
<polygon fill="#000000" stroke="#000000" points="427.2385,-393.4294 416.8231,-389.9985 423.5497,-390.054 419.861,-386.6786 419.861,-386.6786 419.861,-386.6786 423.5497,-390.054 422.8988,-383.3587 427.2385,-393.4294 427.2385,-393.4294"/>
<polygon fill="#000000" stroke="#000000" points="345.901,-319.0016 356.3164,-322.4325 349.5897,-322.377 353.2785,-325.7524 353.2785,-325.7524 353.2785,-325.7524 349.5897,-322.377 350.2406,-329.0723 345.901,-319.0016 345.901,-319.0016"/>
<text text-anchor="middle" x="430.5" y="-363.8" font-family="Times-Roman" font-size="14.00" fill="#000000">supports</text>
</g>
<!-- Treatment -->
<g id="node4" class="node">
<title>Treatment</title>
<polygon fill="none" stroke="#000000" points="542,-212.5 542,-341.5 798,-341.5 798,-212.5 542,-212.5"/>
<text text-anchor="middle" x="670" y="-326.3" font-family="Times-Roman" font-size="14.00" fill="#000000">{abstract} Treatment</text>
<polyline fill="none" stroke="#000000" points="542,-318.5 798,-318.5 "/>
<text text-anchor="start" x="550" y="-303.3" font-family="Times-Roman" font-size="14.00" fill="#000000">&#45; name : String</text>
<text text-anchor="start" x="550" y="-288.3" font-family="Times-Roman" font-size="14.00" fill="#000000"> &#45; impression : Impression</text>
<text text-anchor="start" x="550" y="-273.3" font-family="Times-Roman" font-size="14.00" fill="#000000"> &#45; status : int</text>
<text text-anchor="start" x="550" y="-258.3" font-family="Times-Roman" font-size="14.00" fill="#000000"> &#45; statusArr : String[]</text>
<polyline fill="none" stroke="#000000" points="542,-250.5 798,-250.5 "/>
<text text-anchor="start" x="550" y="-235.3" font-family="Times-Roman" font-size="14.00" fill="#000000">+ toDisplayString() : String {abstract}</text>
<text text-anchor="start" x="550" y="-220.3" font-family="Times-Roman" font-size="14.00" fill="#000000"> + updateStatus() : void</text>
</g>
<!-- Impression&#45;&gt;Treatment -->
<g id="edge3" class="edge">
<title>Impression&#45;&gt;Treatment</title>
<path fill="none" stroke="#000000" d="M575.3594,-385.779C585.8716,-373.6963 596.6678,-361.2873 607.0344,-349.372"/>
<polygon fill="#000000" stroke="#000000" points="568.7034,-393.4294 571.8722,-382.9313 571.9853,-389.6572 575.2672,-385.885 575.2672,-385.885 575.2672,-385.885 571.9853,-389.6572 578.6621,-388.8387 568.7034,-393.4294 568.7034,-393.4294"/>
<polygon fill="#000000" stroke="#000000" points="613.7774,-341.6217 610.6086,-352.1198 610.4955,-345.3939 607.2136,-349.1661 607.2136,-349.1661 607.2136,-349.1661 610.4955,-345.3939 603.8186,-346.2123 613.7774,-341.6217 613.7774,-341.6217"/>
<text text-anchor="middle" x="611" y="-363.8" font-family="Times-Roman" font-size="14.00" fill="#000000">treats</text>
</g>
<!-- Result -->
<g id="node5" class="node">
<title>Result</title>
<polygon fill="none" stroke="#000000" points="0,-30.5 0,-144.5 188,-144.5 188,-30.5 0,-30.5"/>
<text text-anchor="middle" x="94" y="-129.3" font-family="Times-Roman" font-size="14.00" fill="#000000">Result</text>
<polyline fill="none" stroke="#000000" points="0,-121.5 188,-121.5 "/>
<text text-anchor="start" x="8" y="-106.3" font-family="Times-Roman" font-size="14.00" fill="#000000">&#45; name : String</text>
<text text-anchor="start" x="8" y="-91.3" font-family="Times-Roman" font-size="14.00" fill="#000000"> &#45; impression : Impression</text>
<text text-anchor="start" x="8" y="-76.3" font-family="Times-Roman" font-size="14.00" fill="#000000"> &#45; summary : String</text>
<polyline fill="none" stroke="#000000" points="0,-68.5 188,-68.5 "/>
<text text-anchor="start" x="8" y="-53.3" font-family="Times-Roman" font-size="14.00" fill="#000000">+ toDisplayString() : String</text>
<text text-anchor="start" x="8" y="-38.3" font-family="Times-Roman" font-size="14.00" fill="#000000"> &lt;getters and setters&gt;</text>
</g>
<!-- Evidence&#45;&gt;Result -->
<g id="edge8" class="edge">
<title>Evidence&#45;&gt;Result</title>
<path fill="none" stroke="#000000" d="M246.6392,-227.9132C218.9155,-202.4102 184.8861,-171.1064 155.9988,-144.5329"/>
<polygon fill="none" stroke="#000000" points="244.5527,-230.7495 254.2819,-234.9438 249.2918,-225.5977 244.5527,-230.7495"/>
</g>
<!-- Observation -->
<g id="node6" class="node">
<title>Observation</title>
<polygon fill="none" stroke="#000000" points="206,-15.5 206,-159.5 394,-159.5 394,-15.5 206,-15.5"/>
<text text-anchor="middle" x="300" y="-144.3" font-family="Times-Roman" font-size="14.00" fill="#000000">Observation</text>
<polyline fill="none" stroke="#000000" points="206,-136.5 394,-136.5 "/>
<text text-anchor="start" x="214" y="-121.3" font-family="Times-Roman" font-size="14.00" fill="#000000">&#45; name : String</text>
<text text-anchor="start" x="214" y="-106.3" font-family="Times-Roman" font-size="14.00" fill="#000000"> &#45; impression : Impression</text>
<text text-anchor="start" x="214" y="-91.3" font-family="Times-Roman" font-size="14.00" fill="#000000"> &#45; data : String</text>
<text text-anchor="start" x="214" y="-76.3" font-family="Times-Roman" font-size="14.00" fill="#000000"> &#45; isObjective : bool</text>
<text text-anchor="start" x="214" y="-61.3" font-family="Times-Roman" font-size="14.00" fill="#000000"> &#45; priority : int</text>
<polyline fill="none" stroke="#000000" points="206,-53.5 394,-53.5 "/>
<text text-anchor="start" x="214" y="-38.3" font-family="Times-Roman" font-size="14.00" fill="#000000">+ toDisplayString() : String</text>
<text text-anchor="start" x="214" y="-23.3" font-family="Times-Roman" font-size="14.00" fill="#000000"> &lt;getters and setters&gt;</text>
</g>
<!-- Evidence&#45;&gt;Observation -->
<g id="edge7" class="edge">
<title>Evidence&#45;&gt;Observation</title>
<path fill="none" stroke="#000000" d="M300,-224.7409C300,-204.6183 300,-181.2709 300,-159.6021"/>
<polygon fill="none" stroke="#000000" points="296.5001,-224.9438 300,-234.9438 303.5001,-224.9438 296.5001,-224.9438"/>
</g>
<!-- Investigation -->
<g id="node7" class="node">
<title>Investigation</title>
<polygon fill="none" stroke="#000000" points="412,-8 412,-167 600,-167 600,-8 412,-8"/>
<text text-anchor="middle" x="506" y="-151.8" font-family="Times-Roman" font-size="14.00" fill="#000000">Investigation</text>
<polyline fill="none" stroke="#000000" points="412,-144 600,-144 "/>
<text text-anchor="start" x="420" y="-128.8" font-family="Times-Roman" font-size="14.00" fill="#000000">&#45; name : String</text>
<text text-anchor="start" x="420" y="-113.8" font-family="Times-Roman" font-size="14.00" fill="#000000"> &#45; impression : Impression</text>
<text text-anchor="start" x="420" y="-98.8" font-family="Times-Roman" font-size="14.00" fill="#000000"> &#45; status : int</text>
<text text-anchor="start" x="420" y="-83.8" font-family="Times-Roman" font-size="14.00" fill="#000000"> &#45; statusArr : String[]</text>
<text text-anchor="start" x="420" y="-68.8" font-family="Times-Roman" font-size="14.00" fill="#000000"> &#45; summary : String</text>
<polyline fill="none" stroke="#000000" points="412,-61 600,-61 "/>
<text text-anchor="start" x="420" y="-45.8" font-family="Times-Roman" font-size="14.00" fill="#000000">+ toDisplayString() : String</text>
<text text-anchor="start" x="420" y="-30.8" font-family="Times-Roman" font-size="14.00" fill="#000000"> + toResult(String) : Result</text>
<text text-anchor="start" x="420" y="-15.8" font-family="Times-Roman" font-size="14.00" fill="#000000"> &lt;getters and setters&gt;</text>
</g>
<!-- Treatment&#45;&gt;Investigation -->
<g id="edge4" class="edge">
<title>Treatment&#45;&gt;Investigation</title>
<path fill="none" stroke="#000000" d="M607.1867,-204.42C596.6799,-192.2795 585.7279,-179.6246 575.0745,-167.3148"/>
<polygon fill="none" stroke="#000000" points="604.8286,-207.0437 614.0192,-212.3149 610.1217,-202.4629 604.8286,-207.0437"/>
</g>
<!-- Medicine -->
<g id="node8" class="node">
<title>Medicine</title>
<polygon fill="none" stroke="#000000" points="618,-.5 618,-174.5 806,-174.5 806,-.5 618,-.5"/>
<text text-anchor="middle" x="712" y="-159.3" font-family="Times-Roman" font-size="14.00" fill="#000000">Medicine</text>
<polyline fill="none" stroke="#000000" points="618,-151.5 806,-151.5 "/>
<text text-anchor="start" x="626" y="-136.3" font-family="Times-Roman" font-size="14.00" fill="#000000">&#45; name : String</text>
<text text-anchor="start" x="626" y="-121.3" font-family="Times-Roman" font-size="14.00" fill="#000000"> &#45; impression : Impression</text>
<text text-anchor="start" x="626" y="-106.3" font-family="Times-Roman" font-size="14.00" fill="#000000"> &#45; status : int</text>
<text text-anchor="start" x="626" y="-91.3" font-family="Times-Roman" font-size="14.00" fill="#000000"> &#45; statusArr : String[]</text>
<text text-anchor="start" x="626" y="-76.3" font-family="Times-Roman" font-size="14.00" fill="#000000"> &#45; dose : String</text>
<text text-anchor="start" x="626" y="-61.3" font-family="Times-Roman" font-size="14.00" fill="#000000"> &#45; startDate : String</text>
<text text-anchor="start" x="626" y="-46.3" font-family="Times-Roman" font-size="14.00" fill="#000000"> &#45; duration : String</text>
<polyline fill="none" stroke="#000000" points="618,-38.5 806,-38.5 "/>
<text text-anchor="start" x="626" y="-23.3" font-family="Times-Roman" font-size="14.00" fill="#000000">+ toDisplayString() : String</text>
<text text-anchor="start" x="626" y="-8.3" font-family="Times-Roman" font-size="14.00" fill="#000000"> &lt;getters and setters&gt;</text>
</g>
<!-- Treatment&#45;&gt;Medicine -->
<g id="edge6" class="edge">
<title>Treatment&#45;&gt;Medicine</title>
<path fill="none" stroke="#000000" d="M686.5069,-202.5223C688.5317,-193.3865 690.615,-183.987 692.6766,-174.6853"/>
<polygon fill="none" stroke="#000000" points="683.0834,-201.7944 684.3365,-212.3149 689.9176,-203.3092 683.0834,-201.7944"/>
</g>
<!-- Plan -->
<g id="node9" class="node">
<title>Plan</title>
<polygon fill="none" stroke="#000000" points="824,-8 824,-167 1012,-167 1012,-8 824,-8"/>
<text text-anchor="middle" x="918" y="-151.8" font-family="Times-Roman" font-size="14.00" fill="#000000">Plan</text>
<polyline fill="none" stroke="#000000" points="824,-144 1012,-144 "/>
<text text-anchor="start" x="832" y="-128.8" font-family="Times-Roman" font-size="14.00" fill="#000000">&#45; name : String</text>
<text text-anchor="start" x="832" y="-113.8" font-family="Times-Roman" font-size="14.00" fill="#000000"> &#45; impression : Impression</text>
<text text-anchor="start" x="832" y="-98.8" font-family="Times-Roman" font-size="14.00" fill="#000000"> &#45; status : int</text>
<text text-anchor="start" x="832" y="-83.8" font-family="Times-Roman" font-size="14.00" fill="#000000"> &#45; statusArr : String[]</text>
<text text-anchor="start" x="832" y="-68.8" font-family="Times-Roman" font-size="14.00" fill="#000000"> &#45; summary : String</text>
<text text-anchor="start" x="832" y="-53.8" font-family="Times-Roman" font-size="14.00" fill="#000000"> &#45; priority : int</text>
<polyline fill="none" stroke="#000000" points="824,-46 1012,-46 "/>
<text text-anchor="start" x="832" y="-30.8" font-family="Times-Roman" font-size="14.00" fill="#000000">+ toDisplayString() : String</text>
<text text-anchor="start" x="832" y="-15.8" font-family="Times-Roman" font-size="14.00" fill="#000000"> &lt;getters and setters&gt;</text>
</g>
<!-- Treatment&#45;&gt;Plan -->
<g id="edge5" class="edge">
<title>Treatment&#45;&gt;Plan</title>
<path fill="none" stroke="#000000" d="M772.9051,-206.3584C787.1954,-196.0436 801.5709,-185.3928 815,-175 818.34,-172.4152 821.7196,-169.7612 825.1166,-167.0607"/>
<polygon fill="none" stroke="#000000" points="770.5896,-203.7122 764.5089,-212.3883 774.6729,-209.3979 770.5896,-203.7122"/>
</g>
</g>
</svg>
