<?xml version="1.0" encoding="UTF-8" standalone="no"?>
<!DOCTYPE svg PUBLIC "-//W3C//DTD SVG 1.1//EN"
 "http://www.w3.org/Graphics/SVG/1.1/DTD/svg11.dtd">
<!-- Generated by graphviz version 2.40.1 (20161225.0304)
 -->
<!-- Title: main Pages: 1 -->
<svg width="1020pt" height="803pt"
 viewBox="0.00 0.00 1020.00 803.00" xmlns="http://www.w3.org/2000/svg" xmlns:xlink="http://www.w3.org/1999/xlink">
<g id="graph0" class="graph" transform="scale(1 1) rotate(0) translate(4 799)">
<title>main</title>
<polygon fill="#ffffff" stroke="transparent" points="-4,4 -4,-799 1016,-799 1016,4 -4,4"/>
<!-- Patient -->
<g id="node1" class="node">
<title>Patient</title>
<polygon fill="none" stroke="#000000" points="329.5,-515.5 329.5,-794.5 682.5,-794.5 682.5,-515.5 329.5,-515.5"/>
<text text-anchor="middle" x="506" y="-779.3" font-family="Times-Roman" font-size="14.00" fill="#000000">Patient</text>
<polyline fill="none" stroke="#000000" points="329.5,-771.5 682.5,-771.5 "/>
<text text-anchor="start" x="337.5" y="-756.3" font-family="Times-Roman" font-size="14.00" fill="#000000">&#45; name : String</text>
<text text-anchor="start" x="337.5" y="-741.3" font-family="Times-Roman" font-size="14.00" fill="#000000"> &#45; bedNo : int</text>
<text text-anchor="start" x="337.5" y="-726.3" font-family="Times-Roman" font-size="14.00" fill="#000000"> &#45; height : int</text>
<text text-anchor="start" x="337.5" y="-711.3" font-family="Times-Roman" font-size="14.00" fill="#000000"> &#45; weight : int</text>
<text text-anchor="start" x="337.5" y="-696.3" font-family="Times-Roman" font-size="14.00" fill="#000000"> &#45; age : int</text>
<text text-anchor="start" x="337.5" y="-681.3" font-family="Times-Roman" font-size="14.00" fill="#000000"> &#45; number : int</text>
<text text-anchor="start" x="337.5" y="-666.3" font-family="Times-Roman" font-size="14.00" fill="#000000"> &#45; address : String</text>
<text text-anchor="start" x="337.5" y="-651.3" font-family="Times-Roman" font-size="14.00" fill="#000000"> &#45; priDiagnosis : Diagnosis</text>
<text text-anchor="start" x="337.5" y="-636.3" font-family="Times-Roman" font-size="14.00" fill="#000000"> &#45; allergies : ArrayList&lt;Allergy&gt;</text>
<text text-anchor="start" x="337.5" y="-621.3" font-family="Times-Roman" font-size="14.00" fill="#000000"> &#45; impressions : ArrayList&lt;Impression&gt;</text>
<polyline fill="none" stroke="#000000" points="329.5,-613.5 682.5,-613.5 "/>
<text text-anchor="start" x="337.5" y="-598.3" font-family="Times-Roman" font-size="14.00" fill="#000000">+ discharge() : void</text>
<text text-anchor="start" x="337.5" y="-583.3" font-family="Times-Roman" font-size="14.00" fill="#000000"> + addNew&lt;impression/treatment/evidence&gt;() : void</text>
<text text-anchor="start" x="337.5" y="-568.3" font-family="Times-Roman" font-size="14.00" fill="#000000"> + toString() : String</text>
<text text-anchor="start" x="337.5" y="-553.3" font-family="Times-Roman" font-size="14.00" fill="#000000"> + toDisplayString() : String</text>
<text text-anchor="start" x="337.5" y="-538.3" font-family="Times-Roman" font-size="14.00" fill="#000000"> &lt;functions for private data structures&gt;</text>
<text text-anchor="start" x="337.5" y="-523.3" font-family="Times-Roman" font-size="14.00" fill="#000000"> &lt;getters and setters&gt;</text>
</g>
<!-- Impression -->
<g id="node2" class="node">
<title>Impression</title>
<polygon fill="none" stroke="#000000" points="380,-333.5 380,-477.5 632,-477.5 632,-333.5 380,-333.5"/>
<text text-anchor="middle" x="506" y="-462.3" font-family="Times-Roman" font-size="14.00" fill="#000000">Impression</text>
<polyline fill="none" stroke="#000000" points="380,-454.5 632,-454.5 "/>
<text text-anchor="start" x="388" y="-439.3" font-family="Times-Roman" font-size="14.00" fill="#000000">&#45; name : String</text>
<text text-anchor="start" x="388" y="-424.3" font-family="Times-Roman" font-size="14.00" fill="#000000"> &#45; description : String</text>
<text text-anchor="start" x="388" y="-409.3" font-family="Times-Roman" font-size="14.00" fill="#000000"> &#45; evidence : ArrayList&lt;Evidence&gt;</text>
<text text-anchor="start" x="388" y="-394.3" font-family="Times-Roman" font-size="14.00" fill="#000000"> &#45; treatments : ArrayList&lt;Treatment&gt;</text>
<polyline fill="none" stroke="#000000" points="380,-386.5 632,-386.5 "/>
<text text-anchor="start" x="388" y="-371.3" font-family="Times-Roman" font-size="14.00" fill="#000000">+ toDisplayString() : String</text>
<text text-anchor="start" x="388" y="-356.3" font-family="Times-Roman" font-size="14.00" fill="#000000"> &lt;getters and setters&gt;</text>
<text text-anchor="start" x="388" y="-341.3" font-family="Times-Roman" font-size="14.00" fill="#000000"> &lt;CRUD for evidence/treatments&gt;</text>
</g>
<!-- Patient&#45;&gt;Impression -->
<g id="edge1" class="edge">
<title>Patient&#45;&gt;Impression</title>
<path fill="none" stroke="#000000" d="M506,-515.2974C506,-506.0134 506,-496.8416 506,-487.9915"/>
<polygon fill="#000000" stroke="#000000" points="506,-477.7626 510.5001,-487.7625 506,-482.7626 506.0001,-487.7626 506.0001,-487.7626 506.0001,-487.7626 506,-482.7626 501.5001,-487.7626 506,-477.7626 506,-477.7626"/>
</g>
<!-- Evidence -->
<g id="node3" class="node">
<title>Evidence</title>
<polygon fill="none" stroke="#000000" points="172,-182.5 172,-266.5 428,-266.5 428,-182.5 172,-182.5"/>
<text text-anchor="middle" x="300" y="-251.3" font-family="Times-Roman" font-size="14.00" fill="#000000">{abstract} Evidence</text>
<polyline fill="none" stroke="#000000" points="172,-243.5 428,-243.5 "/>
<text text-anchor="start" x="180" y="-228.3" font-family="Times-Roman" font-size="14.00" fill="#000000">&#45; name : String</text>
<text text-anchor="start" x="180" y="-213.3" font-family="Times-Roman" font-size="14.00" fill="#000000"> &#45; impression : Impression</text>
<polyline fill="none" stroke="#000000" points="172,-205.5 428,-205.5 "/>
<text text-anchor="start" x="180" y="-190.3" font-family="Times-Roman" font-size="14.00" fill="#000000">+ toDisplayString() : String {abstract}</text>
</g>
<!-- Impression&#45;&gt;Evidence -->
<g id="edge2" class="edge">
<title>Impression&#45;&gt;Evidence</title>
<path fill="none" stroke="#000000" d="M416.3849,-326.7605C395.7781,-308.6546 374.4443,-289.9098 355.7585,-273.4917"/>
<polygon fill="#000000" stroke="#000000" points="423.9914,-333.4439 413.509,-330.2239 420.2353,-330.1437 416.4792,-326.8434 416.4792,-326.8434 416.4792,-326.8434 420.2353,-330.1437 419.4495,-323.4629 423.9914,-333.4439 423.9914,-333.4439"/>
<polygon fill="#000000" stroke="#000000" points="347.9222,-266.6064 358.4047,-269.8265 351.6783,-269.9067 355.4345,-273.207 355.4345,-273.207 355.4345,-273.207 351.6783,-269.9067 352.4642,-276.5875 347.9222,-266.6064 347.9222,-266.6064"/>
<text text-anchor="middle" x="430.5" y="-303.8" font-family="Times-Roman" font-size="14.00" fill="#000000">supports</text>
</g>
<!-- Treatment -->
<g id="node4" class="node">
<title>Treatment</title>
<polygon fill="none" stroke="#000000" points="513.5,-167.5 513.5,-281.5 826.5,-281.5 826.5,-167.5 513.5,-167.5"/>
<text text-anchor="middle" x="670" y="-266.3" font-family="Times-Roman" font-size="14.00" fill="#000000">{abstract} Treatment</text>
<polyline fill="none" stroke="#000000" points="513.5,-258.5 826.5,-258.5 "/>
<text text-anchor="start" x="521.5" y="-243.3" font-family="Times-Roman" font-size="14.00" fill="#000000">&#45; name : String</text>
<text text-anchor="start" x="521.5" y="-228.3" font-family="Times-Roman" font-size="14.00" fill="#000000"> &#45; status : int</text>
<text text-anchor="start" x="521.5" y="-213.3" font-family="Times-Roman" font-size="14.00" fill="#000000"> &#45; statusArr : String[] &#45; impression : Impression</text>
<polyline fill="none" stroke="#000000" points="513.5,-205.5 826.5,-205.5 "/>
<text text-anchor="start" x="521.5" y="-190.3" font-family="Times-Roman" font-size="14.00" fill="#000000">+ toDisplayString() : String {abstract}</text>
<text text-anchor="start" x="521.5" y="-175.3" font-family="Times-Roman" font-size="14.00" fill="#000000"> + updateStatus() : void</text>
</g>
<!-- Impression&#45;&gt;Treatment -->
<g id="edge3" class="edge">
<title>Impression&#45;&gt;Treatment</title>
<path fill="none" stroke="#000000" d="M578.2975,-325.7083C589.3555,-313.5039 600.6523,-301.0361 611.3682,-289.2095"/>
<polygon fill="#000000" stroke="#000000" points="571.2884,-333.4439 574.6682,-323.0119 574.6456,-329.7387 578.0029,-326.0334 578.0029,-326.0334 578.0029,-326.0334 574.6456,-329.7387 581.3376,-329.0549 571.2884,-333.4439 571.2884,-333.4439"/>
<polygon fill="#000000" stroke="#000000" points="618.3178,-281.5395 614.938,-291.9716 614.9605,-285.2448 611.6033,-288.9501 611.6033,-288.9501 611.6033,-288.9501 614.9605,-285.2448 608.2685,-285.9285 618.3178,-281.5395 618.3178,-281.5395"/>
<text text-anchor="middle" x="616" y="-303.8" font-family="Times-Roman" font-size="14.00" fill="#000000">treats</text>
</g>
<!-- Result -->
<g id="node5" class="node">
<title>Result</title>
<polygon fill="none" stroke="#000000" points="0,-23 0,-107 188,-107 188,-23 0,-23"/>
<text text-anchor="middle" x="94" y="-91.8" font-family="Times-Roman" font-size="14.00" fill="#000000">Result</text>
<polyline fill="none" stroke="#000000" points="0,-84 188,-84 "/>
<text text-anchor="start" x="8" y="-68.8" font-family="Times-Roman" font-size="14.00" fill="#000000">&#45; summary : String</text>
<polyline fill="none" stroke="#000000" points="0,-61 188,-61 "/>
<text text-anchor="start" x="8" y="-45.8" font-family="Times-Roman" font-size="14.00" fill="#000000">+ toDisplayString() : String</text>
<text text-anchor="start" x="8" y="-30.8" font-family="Times-Roman" font-size="14.00" fill="#000000"> &lt;getters and setters&gt;</text>
</g>
<!-- Evidence&#45;&gt;Result -->
<g id="edge8" class="edge">
<title>Evidence&#45;&gt;Result</title>
<path fill="none" stroke="#000000" d="M237.3471,-175.9896C208.9416,-153.996 175.6735,-128.2375 148.3409,-107.0746"/>
<polygon fill="none" stroke="#000000" points="235.5568,-179.0299 245.6065,-182.3846 239.8423,-173.495 235.5568,-179.0299"/>
</g>
<!-- Observation -->
<g id="node6" class="node">
<title>Observation</title>
<polygon fill="none" stroke="#000000" points="206,-8 206,-122 394,-122 394,-8 206,-8"/>
<text text-anchor="middle" x="300" y="-106.8" font-family="Times-Roman" font-size="14.00" fill="#000000">Observation</text>
<polyline fill="none" stroke="#000000" points="206,-99 394,-99 "/>
<text text-anchor="start" x="214" y="-83.8" font-family="Times-Roman" font-size="14.00" fill="#000000">&#45; data : String</text>
<text text-anchor="start" x="214" y="-68.8" font-family="Times-Roman" font-size="14.00" fill="#000000"> &#45; isObjective : bool</text>
<text text-anchor="start" x="214" y="-53.8" font-family="Times-Roman" font-size="14.00" fill="#000000"> &#45; priority : int</text>
<polyline fill="none" stroke="#000000" points="206,-46 394,-46 "/>
<text text-anchor="start" x="214" y="-30.8" font-family="Times-Roman" font-size="14.00" fill="#000000">+ toDisplayString() : String</text>
<text text-anchor="start" x="214" y="-15.8" font-family="Times-Roman" font-size="14.00" fill="#000000"> &lt;getters and setters&gt;</text>
</g>
<!-- Evidence&#45;&gt;Observation -->
<g id="edge7" class="edge">
<title>Evidence&#45;&gt;Observation</title>
<path fill="none" stroke="#000000" d="M300,-171.9752C300,-156.0439 300,-138.4654 300,-122.2408"/>
<polygon fill="none" stroke="#000000" points="296.5001,-172.1756 300,-182.1757 303.5001,-172.1757 296.5001,-172.1756"/>
</g>
<!-- Investigation -->
<g id="node7" class="node">
<title>Investigation</title>
<polygon fill="none" stroke="#000000" points="412,-15.5 412,-114.5 600,-114.5 600,-15.5 412,-15.5"/>
<text text-anchor="middle" x="506" y="-99.3" font-family="Times-Roman" font-size="14.00" fill="#000000">Investigation</text>
<polyline fill="none" stroke="#000000" points="412,-91.5 600,-91.5 "/>
<text text-anchor="start" x="420" y="-76.3" font-family="Times-Roman" font-size="14.00" fill="#000000">&#45; summary : String</text>
<polyline fill="none" stroke="#000000" points="412,-68.5 600,-68.5 "/>
<text text-anchor="start" x="420" y="-53.3" font-family="Times-Roman" font-size="14.00" fill="#000000">+ toDisplayString() : String</text>
<text text-anchor="start" x="420" y="-38.3" font-family="Times-Roman" font-size="14.00" fill="#000000"> + toResult(String) : Result</text>
<text text-anchor="start" x="420" y="-23.3" font-family="Times-Roman" font-size="14.00" fill="#000000"> &lt;getters and setters&gt;</text>
</g>
<!-- Treatment&#45;&gt;Investigation -->
<g id="edge4" class="edge">
<title>Treatment&#45;&gt;Investigation</title>
<path fill="none" stroke="#000000" d="M603.6884,-160.0079C588.1247,-144.8713 571.7779,-128.973 557.0048,-114.6053"/>
<polygon fill="none" stroke="#000000" points="601.6465,-162.9044 611.2555,-167.3674 606.5269,-157.8862 601.6465,-162.9044"/>
</g>
<!-- Medicine -->
<g id="node8" class="node">
<title>Medicine</title>
<polygon fill="none" stroke="#000000" points="618,-.5 618,-129.5 806,-129.5 806,-.5 618,-.5"/>
<text text-anchor="middle" x="712" y="-114.3" font-family="Times-Roman" font-size="14.00" fill="#000000">Medicine</text>
<polyline fill="none" stroke="#000000" points="618,-106.5 806,-106.5 "/>
<text text-anchor="start" x="626" y="-91.3" font-family="Times-Roman" font-size="14.00" fill="#000000">&#45; dose : String</text>
<text text-anchor="start" x="626" y="-76.3" font-family="Times-Roman" font-size="14.00" fill="#000000"> &#45; startDate : String</text>
<text text-anchor="start" x="626" y="-61.3" font-family="Times-Roman" font-size="14.00" fill="#000000"> &#45; duration : String</text>
<polyline fill="none" stroke="#000000" points="618,-53.5 806,-53.5 "/>
<text text-anchor="start" x="626" y="-38.3" font-family="Times-Roman" font-size="14.00" fill="#000000">+ toDisplayString() : String</text>
<text text-anchor="start" x="626" y="-23.3" font-family="Times-Roman" font-size="14.00" fill="#000000"> + toResult(String) : Result</text>
<text text-anchor="start" x="626" y="-8.3" font-family="Times-Roman" font-size="14.00" fill="#000000"> &lt;getters and setters&gt;</text>
</g>
<!-- Treatment&#45;&gt;Medicine -->
<g id="edge6" class="edge">
<title>Treatment&#45;&gt;Medicine</title>
<path fill="none" stroke="#000000" d="M687.6509,-157.4687C690.0811,-148.2397 692.5727,-138.7775 694.991,-129.5936"/>
<polygon fill="none" stroke="#000000" points="684.2062,-156.8057 685.0443,-167.3674 690.9755,-158.5883 684.2062,-156.8057"/>
</g>
<!-- Plan -->
<g id="node9" class="node">
<title>Plan</title>
<polygon fill="none" stroke="#000000" points="824,-8 824,-122 1012,-122 1012,-8 824,-8"/>
<text text-anchor="middle" x="918" y="-106.8" font-family="Times-Roman" font-size="14.00" fill="#000000">Plan</text>
<polyline fill="none" stroke="#000000" points="824,-99 1012,-99 "/>
<text text-anchor="start" x="832" y="-83.8" font-family="Times-Roman" font-size="14.00" fill="#000000">&#45; summary : String</text>
<text text-anchor="start" x="832" y="-68.8" font-family="Times-Roman" font-size="14.00" fill="#000000"> &#45; priority : int</text>
<polyline fill="none" stroke="#000000" points="824,-61 1012,-61 "/>
<text text-anchor="start" x="832" y="-45.8" font-family="Times-Roman" font-size="14.00" fill="#000000">+ toDisplayString() : String</text>
<text text-anchor="start" x="832" y="-30.8" font-family="Times-Roman" font-size="14.00" fill="#000000"> + toResult(String) : Result</text>
<text text-anchor="start" x="832" y="-15.8" font-family="Times-Roman" font-size="14.00" fill="#000000"> &lt;getters and setters&gt;</text>
</g>
<!-- Treatment&#45;&gt;Plan -->
<g id="edge5" class="edge">
<title>Treatment&#45;&gt;Plan</title>
<path fill="none" stroke="#000000" d="M767.5081,-161.7881C787.909,-148.6674 809.3134,-134.9013 829.3704,-122.0017"/>
<polygon fill="none" stroke="#000000" points="765.3506,-159.0143 758.8332,-167.3674 769.1372,-164.9018 765.3506,-159.0143"/>
</g>
</g>
</svg>
