<?xml version="1.0" encoding="UTF-8" standalone="no"?>
<!DOCTYPE svg PUBLIC "-//W3C//DTD SVG 1.1//EN"
 "http://www.w3.org/Graphics/SVG/1.1/DTD/svg11.dtd">
<!-- Generated by graphviz version 2.40.1 (20161225.0304)
 -->
<!-- Title: main Pages: 1 -->
<svg width="596pt" height="969pt"
 viewBox="0.00 0.00 595.50 969.00" xmlns="http://www.w3.org/2000/svg" xmlns:xlink="http://www.w3.org/1999/xlink">
<g id="graph0" class="graph" transform="scale(1 1) rotate(0) translate(4 965)">
<title>main</title>
<polygon fill="#ffffff" stroke="transparent" points="-4,4 -4,-965 591.5,-965 591.5,4 -4,4"/>
<!-- Patient -->
<g id="node1" class="node">
<title>Patient</title>
<polygon fill="none" stroke="#000000" points="102.5,-666.5 102.5,-960.5 455.5,-960.5 455.5,-666.5 102.5,-666.5"/>
<text text-anchor="middle" x="279" y="-945.3" font-family="Times-Roman" font-size="14.00" fill="#000000">Patient</text>
<polyline fill="none" stroke="#000000" points="102.5,-937.5 455.5,-937.5 "/>
<text text-anchor="start" x="110.5" y="-922.3" font-family="Times-Roman" font-size="14.00" fill="#000000">&#45; name : String</text>
<text text-anchor="start" x="110.5" y="-907.3" font-family="Times-Roman" font-size="14.00" fill="#000000"> &#45; bedNo : int</text>
<text text-anchor="start" x="110.5" y="-892.3" font-family="Times-Roman" font-size="14.00" fill="#000000"> &#45; height : int</text>
<text text-anchor="start" x="110.5" y="-877.3" font-family="Times-Roman" font-size="14.00" fill="#000000"> &#45; weight : int</text>
<text text-anchor="start" x="110.5" y="-862.3" font-family="Times-Roman" font-size="14.00" fill="#000000"> &#45; age : int</text>
<text text-anchor="start" x="110.5" y="-847.3" font-family="Times-Roman" font-size="14.00" fill="#000000"> &#45; number : int</text>
<text text-anchor="start" x="110.5" y="-832.3" font-family="Times-Roman" font-size="14.00" fill="#000000"> &#45; address : String</text>
<text text-anchor="start" x="110.5" y="-817.3" font-family="Times-Roman" font-size="14.00" fill="#000000"> &#45; priDiagnosis : Diagnosis</text>
<text text-anchor="start" x="110.5" y="-802.3" font-family="Times-Roman" font-size="14.00" fill="#000000"> &#45; uncategorised : Impression</text>
<text text-anchor="start" x="110.5" y="-787.3" font-family="Times-Roman" font-size="14.00" fill="#000000"> &#45; allergies : ArrayList&lt;Allergy&gt;</text>
<text text-anchor="start" x="110.5" y="-772.3" font-family="Times-Roman" font-size="14.00" fill="#000000"> &#45; impressions : ArrayList&lt;Impression&gt;</text>
<polyline fill="none" stroke="#000000" points="102.5,-764.5 455.5,-764.5 "/>
<text text-anchor="start" x="110.5" y="-749.3" font-family="Times-Roman" font-size="14.00" fill="#000000">+ discharge() : void</text>
<text text-anchor="start" x="110.5" y="-734.3" font-family="Times-Roman" font-size="14.00" fill="#000000"> + addNew&lt;impression/treatment/evidence&gt;() : void</text>
<text text-anchor="start" x="110.5" y="-719.3" font-family="Times-Roman" font-size="14.00" fill="#000000"> + toString() : String</text>
<text text-anchor="start" x="110.5" y="-704.3" font-family="Times-Roman" font-size="14.00" fill="#000000"> + toDisplayString() : String</text>
<text text-anchor="start" x="110.5" y="-689.3" font-family="Times-Roman" font-size="14.00" fill="#000000"> &lt;functions for private data structures&gt;</text>
<text text-anchor="start" x="110.5" y="-674.3" font-family="Times-Roman" font-size="14.00" fill="#000000"> &lt;getters and setters&gt;</text>
</g>
<!-- Impression -->
<g id="node2" class="node">
<title>Impression</title>
<polygon fill="none" stroke="#000000" points="153,-499.5 153,-628.5 405,-628.5 405,-499.5 153,-499.5"/>
<text text-anchor="middle" x="279" y="-613.3" font-family="Times-Roman" font-size="14.00" fill="#000000">Impression</text>
<polyline fill="none" stroke="#000000" points="153,-605.5 405,-605.5 "/>
<text text-anchor="start" x="161" y="-590.3" font-family="Times-Roman" font-size="14.00" fill="#000000">&#45; name : String</text>
<text text-anchor="start" x="161" y="-575.3" font-family="Times-Roman" font-size="14.00" fill="#000000"> &#45; evidence : ArrayList&lt;Evidence&gt;</text>
<text text-anchor="start" x="161" y="-560.3" font-family="Times-Roman" font-size="14.00" fill="#000000"> &#45; treatments : ArrayList&lt;Treatment&gt;</text>
<polyline fill="none" stroke="#000000" points="153,-552.5 405,-552.5 "/>
<text text-anchor="start" x="161" y="-537.3" font-family="Times-Roman" font-size="14.00" fill="#000000">+ toDisplayString() : String</text>
<text text-anchor="start" x="161" y="-522.3" font-family="Times-Roman" font-size="14.00" fill="#000000"> &lt;getters and setters&gt;</text>
<text text-anchor="start" x="161" y="-507.3" font-family="Times-Roman" font-size="14.00" fill="#000000"> &lt;CRUD for evidence/treatments&gt;</text>
</g>
<!-- Patient&#45;&gt;Impression -->
<g id="edge1" class="edge">
<title>Patient&#45;&gt;Impression</title>
<path fill="none" stroke="#000000" d="M279,-666.2011C279,-656.7981 279,-647.5719 279,-638.7458"/>
<polygon fill="#000000" stroke="#000000" points="279,-628.582 283.5001,-638.582 279,-633.582 279.0001,-638.582 279.0001,-638.582 279.0001,-638.582 279,-633.582 274.5001,-638.582 279,-628.582 279,-628.582"/>
</g>
<!-- Evidence -->
<g id="node3" class="node">
<title>Evidence</title>
<polygon fill="none" stroke="#000000" points="0,-348.5 0,-432.5 256,-432.5 256,-348.5 0,-348.5"/>
<text text-anchor="middle" x="128" y="-417.3" font-family="Times-Roman" font-size="14.00" fill="#000000">{abstract} Evidence</text>
<polyline fill="none" stroke="#000000" points="0,-409.5 256,-409.5 "/>
<text text-anchor="start" x="8" y="-394.3" font-family="Times-Roman" font-size="14.00" fill="#000000">&#45; name : String</text>
<text text-anchor="start" x="8" y="-379.3" font-family="Times-Roman" font-size="14.00" fill="#000000"> &#45; impression : Impression</text>
<polyline fill="none" stroke="#000000" points="0,-371.5 256,-371.5 "/>
<text text-anchor="start" x="8" y="-356.3" font-family="Times-Roman" font-size="14.00" fill="#000000">+ toDisplayString() : String {abstract}</text>
</g>
<!-- Impression&#45;&gt;Evidence -->
<g id="edge2" class="edge">
<title>Impression&#45;&gt;Evidence</title>
<path fill="none" stroke="#000000" d="M216.0999,-491.7273C201.0154,-474.3952 185.2404,-456.2696 171.2759,-440.2243"/>
<polygon fill="#000000" stroke="#000000" points="222.7732,-499.395 212.8137,-494.806 219.4906,-495.6234 216.2081,-491.8517 216.2081,-491.8517 216.2081,-491.8517 219.4906,-495.6234 219.6026,-488.8975 222.7732,-499.395 222.7732,-499.395"/>
<polygon fill="#000000" stroke="#000000" points="164.577,-432.5272 174.5365,-437.1162 167.8595,-436.2988 171.142,-440.0704 171.142,-440.0704 171.142,-440.0704 167.8595,-436.2988 167.7475,-443.0247 164.577,-432.5272 164.577,-432.5272"/>
<text text-anchor="middle" x="231.5" y="-469.8" font-family="Times-Roman" font-size="14.00" fill="#000000">supports</text>
</g>
<!-- Treatment -->
<g id="node4" class="node">
<title>Treatment</title>
<polygon fill="none" stroke="#000000" points="274.5,-333.5 274.5,-447.5 587.5,-447.5 587.5,-333.5 274.5,-333.5"/>
<text text-anchor="middle" x="431" y="-432.3" font-family="Times-Roman" font-size="14.00" fill="#000000">{abstract} Treatment</text>
<polyline fill="none" stroke="#000000" points="274.5,-424.5 587.5,-424.5 "/>
<text text-anchor="start" x="282.5" y="-409.3" font-family="Times-Roman" font-size="14.00" fill="#000000">&#45; name : String</text>
<text text-anchor="start" x="282.5" y="-394.3" font-family="Times-Roman" font-size="14.00" fill="#000000"> &#45; status : int</text>
<text text-anchor="start" x="282.5" y="-379.3" font-family="Times-Roman" font-size="14.00" fill="#000000"> &#45; statusArr : String[] &#45; impression : Impression</text>
<polyline fill="none" stroke="#000000" points="274.5,-371.5 587.5,-371.5 "/>
<text text-anchor="start" x="282.5" y="-356.3" font-family="Times-Roman" font-size="14.00" fill="#000000">+ toDisplayString() : String {abstract}</text>
<text text-anchor="start" x="282.5" y="-341.3" font-family="Times-Roman" font-size="14.00" fill="#000000"> + updateStatus() : void</text>
</g>
<!-- Impression&#45;&gt;Treatment -->
<g id="edge3" class="edge">
<title>Impression&#45;&gt;Treatment</title>
<path fill="none" stroke="#000000" d="M342.2764,-491.7733C352.8352,-479.721 363.7312,-467.2838 374.1178,-455.4281"/>
<polygon fill="#000000" stroke="#000000" points="335.5992,-499.395 338.8041,-488.9079 338.894,-495.6341 342.1889,-491.8732 342.1889,-491.8732 342.1889,-491.8732 338.894,-495.6341 345.5737,-494.8386 335.5992,-499.395 335.5992,-499.395"/>
<polygon fill="#000000" stroke="#000000" points="380.861,-447.7311 377.6561,-458.2182 377.5661,-451.492 374.2713,-455.2528 374.2713,-455.2528 374.2713,-455.2528 377.5661,-451.492 370.8865,-452.2875 380.861,-447.7311 380.861,-447.7311"/>
<text text-anchor="middle" x="382" y="-469.8" font-family="Times-Roman" font-size="14.00" fill="#000000">treats</text>
</g>
<!-- Result -->
<g id="node5" class="node">
<title>Result</title>
<polygon fill="none" stroke="#000000" points="34,-196.5 34,-280.5 222,-280.5 222,-196.5 34,-196.5"/>
<text text-anchor="middle" x="128" y="-265.3" font-family="Times-Roman" font-size="14.00" fill="#000000">Result</text>
<polyline fill="none" stroke="#000000" points="34,-257.5 222,-257.5 "/>
<text text-anchor="start" x="42" y="-242.3" font-family="Times-Roman" font-size="14.00" fill="#000000">&#45; summary : String</text>
<polyline fill="none" stroke="#000000" points="34,-234.5 222,-234.5 "/>
<text text-anchor="start" x="42" y="-219.3" font-family="Times-Roman" font-size="14.00" fill="#000000">+ toDisplayString() : String</text>
<text text-anchor="start" x="42" y="-204.3" font-family="Times-Roman" font-size="14.00" fill="#000000"> &lt;getters and setters&gt;</text>
</g>
<!-- Evidence&#45;&gt;Result -->
<g id="edge7" class="edge">
<title>Evidence&#45;&gt;Result</title>
<path fill="none" stroke="#000000" d="M128,-337.9932C128,-319.2422 128,-298.3752 128,-280.6134"/>
<polygon fill="none" stroke="#000000" points="124.5001,-338.1595 128,-348.1595 131.5001,-338.1596 124.5001,-338.1595"/>
</g>
<!-- Observation -->
<g id="node6" class="node">
<title>Observation</title>
<polygon fill="none" stroke="#000000" points="152,-.5 152,-129.5 436,-129.5 436,-.5 152,-.5"/>
<text text-anchor="middle" x="294" y="-114.3" font-family="Times-Roman" font-size="14.00" fill="#000000">Observation</text>
<polyline fill="none" stroke="#000000" points="152,-106.5 436,-106.5 "/>
<text text-anchor="start" x="160" y="-91.3" font-family="Times-Roman" font-size="14.00" fill="#000000">&#45; data : String</text>
<text text-anchor="start" x="160" y="-76.3" font-family="Times-Roman" font-size="14.00" fill="#000000"> &#45; isObjective : bool</text>
<text text-anchor="start" x="160" y="-61.3" font-family="Times-Roman" font-size="14.00" fill="#000000"> &#45; investigations : ArrayList&lt;Investigation&gt;</text>
<text text-anchor="start" x="160" y="-46.3" font-family="Times-Roman" font-size="14.00" fill="#000000"> &#45; priority : int</text>
<polyline fill="none" stroke="#000000" points="152,-38.5 436,-38.5 "/>
<text text-anchor="start" x="160" y="-23.3" font-family="Times-Roman" font-size="14.00" fill="#000000">+ toDisplayString() : String</text>
<text text-anchor="start" x="160" y="-8.3" font-family="Times-Roman" font-size="14.00" fill="#000000"> &lt;getters and setters&gt;</text>
</g>
<!-- Evidence&#45;&gt;Observation -->
<g id="edge6" class="edge">
<title>Evidence&#45;&gt;Observation</title>
<path fill="none" stroke="#000000" d="M192.7595,-341.4486C207.033,-328.0416 220.8907,-312.5879 231,-296 262.1513,-244.8852 278.191,-178.1847 286.2632,-129.6055"/>
<polygon fill="none" stroke="#000000" points="190.3095,-338.9459 185.2751,-348.2682 195.0241,-344.1202 190.3095,-338.9459"/>
</g>
<!-- Investigation -->
<g id="node7" class="node">
<title>Investigation</title>
<polygon fill="none" stroke="#000000" points="320.5,-181.5 320.5,-295.5 511.5,-295.5 511.5,-181.5 320.5,-181.5"/>
<text text-anchor="middle" x="416" y="-280.3" font-family="Times-Roman" font-size="14.00" fill="#000000">Investigation</text>
<polyline fill="none" stroke="#000000" points="320.5,-272.5 511.5,-272.5 "/>
<text text-anchor="start" x="328.5" y="-257.3" font-family="Times-Roman" font-size="14.00" fill="#000000">&#45; summary : String</text>
<text text-anchor="start" x="328.5" y="-242.3" font-family="Times-Roman" font-size="14.00" fill="#000000"> &#45; observation : Observation</text>
<polyline fill="none" stroke="#000000" points="320.5,-234.5 511.5,-234.5 "/>
<text text-anchor="start" x="328.5" y="-219.3" font-family="Times-Roman" font-size="14.00" fill="#000000">+ toDisplayString() : String</text>
<text text-anchor="start" x="328.5" y="-204.3" font-family="Times-Roman" font-size="14.00" fill="#000000"> + toResult(String) : Result</text>
<text text-anchor="start" x="328.5" y="-189.3" font-family="Times-Roman" font-size="14.00" fill="#000000"> &lt;getters and setters&gt;</text>
</g>
<!-- Treatment&#45;&gt;Investigation -->
<g id="edge5" class="edge">
<title>Treatment&#45;&gt;Investigation</title>
<path fill="none" stroke="#000000" d="M424.3857,-323.4754C423.468,-314.1757 422.5323,-304.6942 421.6347,-295.5984"/>
<polygon fill="none" stroke="#000000" points="420.9066,-323.8605 425.3719,-333.4684 427.8728,-323.1729 420.9066,-323.8605"/>
</g>
<!-- Investigation&#45;&gt;Observation -->
<g id="edge4" class="edge">
<title>Investigation&#45;&gt;Observation</title>
<path fill="none" stroke="#000000" d="M369.9269,-172.9781C361.916,-161.5854 353.539,-149.6723 345.3963,-138.0922"/>
<polygon fill="#000000" stroke="#000000" points="375.7145,-181.2088 366.2814,-175.6171 372.8385,-177.1187 369.9625,-173.0286 369.9625,-173.0286 369.9625,-173.0286 372.8385,-177.1187 373.6435,-170.4402 375.7145,-181.2088 375.7145,-181.2088"/>
<polygon fill="#000000" stroke="#000000" points="339.5171,-129.7312 348.9502,-135.3229 342.3931,-133.8213 345.2691,-137.9114 345.2691,-137.9114 345.2691,-137.9114 342.3931,-133.8213 341.5881,-140.4998 339.5171,-129.7312 339.5171,-129.7312"/>
<text text-anchor="middle" x="398.5" y="-151.8" font-family="Times-Roman" font-size="14.00" fill="#000000">investigates</text>
</g>
</g>
</svg>
