<?xml version="1.0" encoding="UTF-8" standalone="no"?>
<!DOCTYPE svg PUBLIC "-//W3C//DTD SVG 1.1//EN"
 "http://www.w3.org/Graphics/SVG/1.1/DTD/svg11.dtd">
<!-- Generated by graphviz version 2.40.1 (20161225.0304)
 -->
<!-- Title: main Pages: 1 -->
<svg width="1253pt" height="469pt"
 viewBox="0.00 0.00 1253.00 469.00" xmlns="http://www.w3.org/2000/svg" xmlns:xlink="http://www.w3.org/1999/xlink">
<g id="graph0" class="graph" transform="scale(1 1) rotate(0) translate(4 465)">
<title>main</title>
<polygon fill="#ffffff" stroke="transparent" points="-4,4 -4,-465 1249,-465 1249,4 -4,4"/>
<!-- Patient -->
<g id="node1" class="node">
<title>Patient</title>
<polygon fill="none" stroke="#000000" points="0,-166.5 0,-460.5 353,-460.5 353,-166.5 0,-166.5"/>
<text text-anchor="middle" x="176.5" y="-445.3" font-family="Times-Roman" font-size="14.00" fill="#000000">Patient</text>
<polyline fill="none" stroke="#000000" points="0,-437.5 353,-437.5 "/>
<text text-anchor="start" x="8" y="-422.3" font-family="Times-Roman" font-size="14.00" fill="#000000">&#45; name : String</text>
<text text-anchor="start" x="8" y="-407.3" font-family="Times-Roman" font-size="14.00" fill="#000000"> &#45; bedNo : int</text>
<text text-anchor="start" x="8" y="-392.3" font-family="Times-Roman" font-size="14.00" fill="#000000"> &#45; height : int</text>
<text text-anchor="start" x="8" y="-377.3" font-family="Times-Roman" font-size="14.00" fill="#000000"> &#45; weight : int</text>
<text text-anchor="start" x="8" y="-362.3" font-family="Times-Roman" font-size="14.00" fill="#000000"> &#45; age : int</text>
<text text-anchor="start" x="8" y="-347.3" font-family="Times-Roman" font-size="14.00" fill="#000000"> &#45; number : int</text>
<text text-anchor="start" x="8" y="-332.3" font-family="Times-Roman" font-size="14.00" fill="#000000"> &#45; address : String</text>
<text text-anchor="start" x="8" y="-317.3" font-family="Times-Roman" font-size="14.00" fill="#000000"> &#45; priDiagnosis : Diagnosis</text>
<text text-anchor="start" x="8" y="-302.3" font-family="Times-Roman" font-size="14.00" fill="#000000"> &#45; uncategorised : Impression</text>
<text text-anchor="start" x="8" y="-287.3" font-family="Times-Roman" font-size="14.00" fill="#000000"> &#45; allergies : ArrayList&lt;Allergy&gt;</text>
<text text-anchor="start" x="8" y="-272.3" font-family="Times-Roman" font-size="14.00" fill="#000000"> &#45; impressions : ArrayList&lt;Impression&gt;</text>
<polyline fill="none" stroke="#000000" points="0,-264.5 353,-264.5 "/>
<text text-anchor="start" x="8" y="-249.3" font-family="Times-Roman" font-size="14.00" fill="#000000">+ discharge() : void</text>
<text text-anchor="start" x="8" y="-234.3" font-family="Times-Roman" font-size="14.00" fill="#000000"> + addNew&lt;impression/treatment/evidence&gt;() : void</text>
<text text-anchor="start" x="8" y="-219.3" font-family="Times-Roman" font-size="14.00" fill="#000000"> + toString() : String</text>
<text text-anchor="start" x="8" y="-204.3" font-family="Times-Roman" font-size="14.00" fill="#000000"> + toDisplayString() : String</text>
<text text-anchor="start" x="8" y="-189.3" font-family="Times-Roman" font-size="14.00" fill="#000000"> &lt;functions for private data structures&gt;</text>
<text text-anchor="start" x="8" y="-174.3" font-family="Times-Roman" font-size="14.00" fill="#000000"> &lt;getters and setters&gt;</text>
</g>
<!-- Impression -->
<g id="node2" class="node">
<title>Impression</title>
<polygon fill="none" stroke="#000000" points="371.5,-249 371.5,-378 623.5,-378 623.5,-249 371.5,-249"/>
<text text-anchor="middle" x="497.5" y="-362.8" font-family="Times-Roman" font-size="14.00" fill="#000000">Impression</text>
<polyline fill="none" stroke="#000000" points="371.5,-355 623.5,-355 "/>
<text text-anchor="start" x="379.5" y="-339.8" font-family="Times-Roman" font-size="14.00" fill="#000000">&#45; name : String</text>
<text text-anchor="start" x="379.5" y="-324.8" font-family="Times-Roman" font-size="14.00" fill="#000000"> &#45; evidence : ArrayList&lt;Evidence&gt;</text>
<text text-anchor="start" x="379.5" y="-309.8" font-family="Times-Roman" font-size="14.00" fill="#000000"> &#45; treatments : ArrayList&lt;Treatment&gt;</text>
<polyline fill="none" stroke="#000000" points="371.5,-302 623.5,-302 "/>
<text text-anchor="start" x="379.5" y="-286.8" font-family="Times-Roman" font-size="14.00" fill="#000000">+ toDisplayString() : String</text>
<text text-anchor="start" x="379.5" y="-271.8" font-family="Times-Roman" font-size="14.00" fill="#000000"> &lt;getters and setters&gt;</text>
<text text-anchor="start" x="379.5" y="-256.8" font-family="Times-Roman" font-size="14.00" fill="#000000"> &lt;CRUD for evidence/treatments&gt;</text>
</g>
<!-- Evidence -->
<g id="node3" class="node">
<title>Evidence</title>
<polygon fill="none" stroke="#000000" points="217.5,-15.5 217.5,-99.5 473.5,-99.5 473.5,-15.5 217.5,-15.5"/>
<text text-anchor="middle" x="345.5" y="-84.3" font-family="Times-Roman" font-size="14.00" fill="#000000">{abstract} Evidence</text>
<polyline fill="none" stroke="#000000" points="217.5,-76.5 473.5,-76.5 "/>
<text text-anchor="start" x="225.5" y="-61.3" font-family="Times-Roman" font-size="14.00" fill="#000000">&#45; name : String</text>
<text text-anchor="start" x="225.5" y="-46.3" font-family="Times-Roman" font-size="14.00" fill="#000000"> &#45; impression : Impression</text>
<polyline fill="none" stroke="#000000" points="217.5,-38.5 473.5,-38.5 "/>
<text text-anchor="start" x="225.5" y="-23.3" font-family="Times-Roman" font-size="14.00" fill="#000000">+ toDisplayString() : String {abstract}</text>
</g>
<!-- Impression&#45;&gt;Evidence -->
<g id="edge1" class="edge">
<title>Impression&#45;&gt;Evidence</title>
<path fill="none" stroke="#000000" d="M454.002,-240.2402C428.9541,-198.0542 398.1028,-146.0941 375.7088,-108.3779"/>
<polygon fill="#000000" stroke="#000000" points="459.144,-248.9004 450.1692,-242.5993 456.5913,-244.6011 454.0385,-240.3018 454.0385,-240.3018 454.0385,-240.3018 456.5913,-244.6011 457.9079,-238.0044 459.144,-248.9004 459.144,-248.9004"/>
<polygon fill="#000000" stroke="#000000" points="370.4933,-99.5939 379.4681,-105.8951 373.046,-103.8932 375.5987,-108.1925 375.5987,-108.1925 375.5987,-108.1925 373.046,-103.8932 371.7294,-110.49 370.4933,-99.5939 370.4933,-99.5939"/>
<text text-anchor="middle" x="427" y="-136.8" font-family="Times-Roman" font-size="14.00" fill="#000000">supports</text>
</g>
<!-- Treatment -->
<g id="node4" class="node">
<title>Treatment</title>
<polygon fill="none" stroke="#000000" points="492,-.5 492,-114.5 805,-114.5 805,-.5 492,-.5"/>
<text text-anchor="middle" x="648.5" y="-99.3" font-family="Times-Roman" font-size="14.00" fill="#000000">{abstract} Treatment</text>
<polyline fill="none" stroke="#000000" points="492,-91.5 805,-91.5 "/>
<text text-anchor="start" x="500" y="-76.3" font-family="Times-Roman" font-size="14.00" fill="#000000">&#45; name : String</text>
<text text-anchor="start" x="500" y="-61.3" font-family="Times-Roman" font-size="14.00" fill="#000000"> &#45; status : int</text>
<text text-anchor="start" x="500" y="-46.3" font-family="Times-Roman" font-size="14.00" fill="#000000"> &#45; statusArr : String[] &#45; impression : Impression</text>
<polyline fill="none" stroke="#000000" points="492,-38.5 805,-38.5 "/>
<text text-anchor="start" x="500" y="-23.3" font-family="Times-Roman" font-size="14.00" fill="#000000">+ toDisplayString() : String {abstract}</text>
<text text-anchor="start" x="500" y="-8.3" font-family="Times-Roman" font-size="14.00" fill="#000000"> + updateStatus() : void</text>
</g>
<!-- Impression&#45;&gt;Treatment -->
<g id="edge2" class="edge">
<title>Impression&#45;&gt;Treatment</title>
<path fill="none" stroke="#000000" d="M540.6954,-240.268C562.3881,-203.491 588.4658,-159.2799 609.5389,-123.5532"/>
<polygon fill="#000000" stroke="#000000" points="535.6037,-248.9004 536.8082,-238.0009 538.1439,-244.5937 540.6842,-240.2871 540.6842,-240.2871 540.6842,-240.2871 538.1439,-244.5937 544.5602,-242.5733 535.6037,-248.9004 535.6037,-248.9004"/>
<polygon fill="#000000" stroke="#000000" points="614.783,-114.6626 613.5784,-125.5621 612.2427,-118.9693 609.7025,-123.2759 609.7025,-123.2759 609.7025,-123.2759 612.2427,-118.9693 605.8265,-120.9897 614.783,-114.6626 614.783,-114.6626"/>
<text text-anchor="middle" x="621.5" y="-136.8" font-family="Times-Roman" font-size="14.00" fill="#000000">treats</text>
</g>
<!-- Observation -->
<g id="node5" class="node">
<title>Observation</title>
<polygon fill="none" stroke="#000000" points="641.5,-283 641.5,-344 829.5,-344 829.5,-283 641.5,-283"/>
<text text-anchor="middle" x="735.5" y="-328.8" font-family="Times-Roman" font-size="14.00" fill="#000000">Observation</text>
<polyline fill="none" stroke="#000000" points="641.5,-321 829.5,-321 "/>
<polyline fill="none" stroke="#000000" points="641.5,-321 829.5,-321 "/>
<text text-anchor="start" x="649.5" y="-305.8" font-family="Times-Roman" font-size="14.00" fill="#000000">+ toDisplayString() : String</text>
<text text-anchor="start" x="649.5" y="-290.8" font-family="Times-Roman" font-size="14.00" fill="#000000"> &lt;getters and setters&gt;</text>
</g>
<!-- Results -->
<g id="node6" class="node">
<title>Results</title>
<polygon fill="none" stroke="#000000" points="847.5,-271.5 847.5,-355.5 1035.5,-355.5 1035.5,-271.5 847.5,-271.5"/>
<text text-anchor="middle" x="941.5" y="-340.3" font-family="Times-Roman" font-size="14.00" fill="#000000">Results</text>
<polyline fill="none" stroke="#000000" points="847.5,-332.5 1035.5,-332.5 "/>
<text text-anchor="start" x="855.5" y="-317.3" font-family="Times-Roman" font-size="14.00" fill="#000000">&#45; summary : String</text>
<polyline fill="none" stroke="#000000" points="847.5,-309.5 1035.5,-309.5 "/>
<text text-anchor="start" x="855.5" y="-294.3" font-family="Times-Roman" font-size="14.00" fill="#000000">+ toDisplayString() : String</text>
<text text-anchor="start" x="855.5" y="-279.3" font-family="Times-Roman" font-size="14.00" fill="#000000"> &lt;getters and setters&gt;</text>
</g>
<!-- Investigation -->
<g id="node7" class="node">
<title>Investigation</title>
<polygon fill="none" stroke="#000000" points="1054,-256.5 1054,-370.5 1245,-370.5 1245,-256.5 1054,-256.5"/>
<text text-anchor="middle" x="1149.5" y="-355.3" font-family="Times-Roman" font-size="14.00" fill="#000000">Investigation</text>
<polyline fill="none" stroke="#000000" points="1054,-347.5 1245,-347.5 "/>
<text text-anchor="start" x="1062" y="-332.3" font-family="Times-Roman" font-size="14.00" fill="#000000">&#45; summary : String</text>
<text text-anchor="start" x="1062" y="-317.3" font-family="Times-Roman" font-size="14.00" fill="#000000"> &#45; observation : Observation</text>
<polyline fill="none" stroke="#000000" points="1054,-309.5 1245,-309.5 "/>
<text text-anchor="start" x="1062" y="-294.3" font-family="Times-Roman" font-size="14.00" fill="#000000">+ toDisplayString() : String</text>
<text text-anchor="start" x="1062" y="-279.3" font-family="Times-Roman" font-size="14.00" fill="#000000"> + toResult(String) : Result</text>
<text text-anchor="start" x="1062" y="-264.3" font-family="Times-Roman" font-size="14.00" fill="#000000"> &lt;getters and setters&gt;</text>
</g>
</g>
</svg>
