<?xml version="1.0" encoding="UTF-8" standalone="no"?>
<!DOCTYPE svg PUBLIC "-//W3C//DTD SVG 1.1//EN"
 "http://www.w3.org/Graphics/SVG/1.1/DTD/svg11.dtd">
<!-- Generated by graphviz version 2.40.1 (20161225.0304)
 -->
<!-- Title: main Pages: 1 -->
<svg width="1040pt" height="1105pt"
 viewBox="0.00 0.00 1040.00 1105.00" xmlns="http://www.w3.org/2000/svg" xmlns:xlink="http://www.w3.org/1999/xlink">
<g id="graph0" class="graph" transform="scale(1 1) rotate(0) translate(4 1101)">
<title>main</title>
<polygon fill="#ffffff" stroke="transparent" points="-4,4 -4,-1101 1036,-1101 1036,4 -4,4"/>
<!-- DukeObj -->
<g id="node1" class="node">
<title>DukeObj</title>
<polygon fill="none" stroke="#000000" points="384,-1012.5 384,-1096.5 644,-1096.5 644,-1012.5 384,-1012.5"/>
<text text-anchor="middle" x="514" y="-1081.3" font-family="Times-Roman" font-size="14.00" fill="#000000">{abstract} DukeObj</text>
<polyline fill="none" stroke="#000000" points="384,-1073.5 644,-1073.5 "/>
<text text-anchor="start" x="392" y="-1058.3" font-family="Times-Roman" font-size="14.00" fill="#000000">&#45; name : String</text>
<polyline fill="none" stroke="#000000" points="384,-1050.5 644,-1050.5 "/>
<text text-anchor="start" x="392" y="-1035.3" font-family="Times-Roman" font-size="14.00" fill="#000000">+ toString() : String {abstract}</text>
<text text-anchor="start" x="392" y="-1020.3" font-family="Times-Roman" font-size="14.00" fill="#000000"> + toDisplayString() : String {abstract}</text>
</g>
<!-- Patient -->
<g id="node2" class="node">
<title>Patient</title>
<polygon fill="none" stroke="#000000" points="132.5,-680.5 132.5,-974.5 485.5,-974.5 485.5,-680.5 132.5,-680.5"/>
<text text-anchor="middle" x="309" y="-959.3" font-family="Times-Roman" font-size="14.00" fill="#000000">Patient</text>
<polyline fill="none" stroke="#000000" points="132.5,-951.5 485.5,-951.5 "/>
<text text-anchor="start" x="140.5" y="-936.3" font-family="Times-Roman" font-size="14.00" fill="#000000">&#45; name : String</text>
<text text-anchor="start" x="140.5" y="-921.3" font-family="Times-Roman" font-size="14.00" fill="#000000"> &#45; bedNo : int</text>
<text text-anchor="start" x="140.5" y="-906.3" font-family="Times-Roman" font-size="14.00" fill="#000000"> &#45; height : int</text>
<text text-anchor="start" x="140.5" y="-891.3" font-family="Times-Roman" font-size="14.00" fill="#000000"> &#45; weight : int</text>
<text text-anchor="start" x="140.5" y="-876.3" font-family="Times-Roman" font-size="14.00" fill="#000000"> &#45; age : int</text>
<text text-anchor="start" x="140.5" y="-861.3" font-family="Times-Roman" font-size="14.00" fill="#000000"> &#45; number : int</text>
<text text-anchor="start" x="140.5" y="-846.3" font-family="Times-Roman" font-size="14.00" fill="#000000"> &#45; address : String</text>
<text text-anchor="start" x="140.5" y="-831.3" font-family="Times-Roman" font-size="14.00" fill="#000000"> &#45; history : String</text>
<text text-anchor="start" x="140.5" y="-816.3" font-family="Times-Roman" font-size="14.00" fill="#000000"> &#45; priDiagnosis : Impression</text>
<text text-anchor="start" x="140.5" y="-801.3" font-family="Times-Roman" font-size="14.00" fill="#000000"> &#45; allergies : String</text>
<text text-anchor="start" x="140.5" y="-786.3" font-family="Times-Roman" font-size="14.00" fill="#000000"> &#45; impressions : ArrayList&lt;Impression&gt;</text>
<polyline fill="none" stroke="#000000" points="132.5,-778.5 485.5,-778.5 "/>
<text text-anchor="start" x="140.5" y="-763.3" font-family="Times-Roman" font-size="14.00" fill="#000000">+ discharge() : void</text>
<text text-anchor="start" x="140.5" y="-748.3" font-family="Times-Roman" font-size="14.00" fill="#000000"> + addNew&lt;impression/treatment/evidence&gt;() : void</text>
<text text-anchor="start" x="140.5" y="-733.3" font-family="Times-Roman" font-size="14.00" fill="#000000"> + toString() : String</text>
<text text-anchor="start" x="140.5" y="-718.3" font-family="Times-Roman" font-size="14.00" fill="#000000"> + toDisplayString() : String</text>
<text text-anchor="start" x="140.5" y="-703.3" font-family="Times-Roman" font-size="14.00" fill="#000000"> &lt;functions for private data structures&gt;</text>
<text text-anchor="start" x="140.5" y="-688.3" font-family="Times-Roman" font-size="14.00" fill="#000000"> &lt;getters and setters&gt;</text>
</g>
<!-- DukeObj&#45;&gt;Patient -->
<g id="edge4" class="edge">
<title>DukeObj&#45;&gt;Patient</title>
<path fill="none" stroke="#000000" d="M469.0379,-1004.7127C460.6187,-995.39 451.4335,-985.219 441.8598,-974.6179"/>
<polygon fill="none" stroke="#000000" points="466.6216,-1007.2593 475.9215,-1012.335 471.8167,-1002.5676 466.6216,-1007.2593"/>
</g>
<!-- Impression -->
<g id="node3" class="node">
<title>Impression</title>
<polygon fill="none" stroke="#000000" points="183,-468.5 183,-642.5 435,-642.5 435,-468.5 183,-468.5"/>
<text text-anchor="middle" x="309" y="-627.3" font-family="Times-Roman" font-size="14.00" fill="#000000">Impression</text>
<polyline fill="none" stroke="#000000" points="183,-619.5 435,-619.5 "/>
<text text-anchor="start" x="191" y="-604.3" font-family="Times-Roman" font-size="14.00" fill="#000000">&#45; name : String</text>
<text text-anchor="start" x="191" y="-589.3" font-family="Times-Roman" font-size="14.00" fill="#000000"> &#45; description : String</text>
<text text-anchor="start" x="191" y="-574.3" font-family="Times-Roman" font-size="14.00" fill="#000000"> &#45; evidence : ArrayList&lt;Evidence&gt;</text>
<text text-anchor="start" x="191" y="-559.3" font-family="Times-Roman" font-size="14.00" fill="#000000"> &#45; treatments : ArrayList&lt;Treatment&gt;</text>
<text text-anchor="start" x="191" y="-544.3" font-family="Times-Roman" font-size="14.00" fill="#000000"> &#45; patient : Patient</text>
<text text-anchor="start" x="191" y="-529.3" font-family="Times-Roman" font-size="14.00" fill="#000000"> + toString() : String</text>
<polyline fill="none" stroke="#000000" points="183,-521.5 435,-521.5 "/>
<text text-anchor="start" x="191" y="-506.3" font-family="Times-Roman" font-size="14.00" fill="#000000">+ toDisplayString() : String</text>
<text text-anchor="start" x="191" y="-491.3" font-family="Times-Roman" font-size="14.00" fill="#000000"> &lt;getters and setters&gt;</text>
<text text-anchor="start" x="191" y="-476.3" font-family="Times-Roman" font-size="14.00" fill="#000000"> &lt;CRUD for evidence/treatments&gt;</text>
</g>
<!-- DukeObj&#45;&gt;Impression -->
<g id="edge5" class="edge">
<title>DukeObj&#45;&gt;Impression</title>
<path fill="none" stroke="#000000" d="M516.8435,-1001.9922C520.7886,-912.17 524.3558,-733.5256 494,-680 491.7679,-676.0642 466.488,-658.3956 435.2937,-637.5505"/>
<polygon fill="none" stroke="#000000" points="513.3359,-1002.0809 516.3753,-1012.2304 520.3286,-1002.4008 513.3359,-1002.0809"/>
</g>
<!-- DukeData -->
<g id="node4" class="node">
<title>DukeData</title>
<polygon fill="none" stroke="#000000" points="453,-491 453,-620 713,-620 713,-491 453,-491"/>
<text text-anchor="middle" x="583" y="-604.8" font-family="Times-Roman" font-size="14.00" fill="#000000">{abstract} DukeData</text>
<polyline fill="none" stroke="#000000" points="453,-597 713,-597 "/>
<text text-anchor="start" x="461" y="-581.8" font-family="Times-Roman" font-size="14.00" fill="#000000">&#45; name : String</text>
<text text-anchor="start" x="461" y="-566.8" font-family="Times-Roman" font-size="14.00" fill="#000000"> &#45; impression : Impression</text>
<text text-anchor="start" x="461" y="-551.8" font-family="Times-Roman" font-size="14.00" fill="#000000"> &#45; priority : int</text>
<polyline fill="none" stroke="#000000" points="453,-544 713,-544 "/>
<text text-anchor="start" x="461" y="-528.8" font-family="Times-Roman" font-size="14.00" fill="#000000">+ toString() : String {abstract}</text>
<text text-anchor="start" x="461" y="-513.8" font-family="Times-Roman" font-size="14.00" fill="#000000"> + toDisplayString() : String {abstract}</text>
<text text-anchor="start" x="461" y="-498.8" font-family="Times-Roman" font-size="14.00" fill="#000000"> + updatePriority() : void {abstract}</text>
</g>
<!-- DukeObj&#45;&gt;DukeData -->
<g id="edge6" class="edge">
<title>DukeObj&#45;&gt;DukeData</title>
<path fill="none" stroke="#000000" d="M526.3907,-1002.5103C526.9629,-999.6372 527.5042,-996.7863 528,-994 551.4877,-861.9964 568.5373,-705.8825 576.9939,-620.0837"/>
<polygon fill="none" stroke="#000000" points="522.964,-1001.7981 524.3467,-1012.3023 529.8163,-1003.2285 522.964,-1001.7981"/>
</g>
<!-- Patient&#45;&gt;Impression -->
<g id="edge1" class="edge">
<title>Patient&#45;&gt;Impression</title>
<path fill="none" stroke="#000000" d="M309,-670.1181C309,-664.2484 309,-658.4332 309,-652.7177"/>
<polygon fill="#000000" stroke="#000000" points="309,-680.3549 304.5001,-670.3548 309,-675.3549 309.0001,-670.3549 309.0001,-670.3549 309.0001,-670.3549 309,-675.3549 313.5001,-670.3549 309,-680.3549 309,-680.3549"/>
<polygon fill="#000000" stroke="#000000" points="309,-642.5473 313.5001,-652.5472 309,-647.5473 309.0001,-652.5473 309.0001,-652.5473 309.0001,-652.5473 309,-647.5473 304.5001,-652.5473 309,-642.5473 309,-642.5473"/>
</g>
<!-- Evidence -->
<g id="node5" class="node">
<title>Evidence</title>
<polygon fill="none" stroke="#000000" points="176,-272.5 176,-401.5 436,-401.5 436,-272.5 176,-272.5"/>
<text text-anchor="middle" x="306" y="-386.3" font-family="Times-Roman" font-size="14.00" fill="#000000">{abstract} Evidence</text>
<polyline fill="none" stroke="#000000" points="176,-378.5 436,-378.5 "/>
<text text-anchor="start" x="184" y="-363.3" font-family="Times-Roman" font-size="14.00" fill="#000000">&#45; name : String</text>
<text text-anchor="start" x="184" y="-348.3" font-family="Times-Roman" font-size="14.00" fill="#000000"> &#45; impression : Impression</text>
<text text-anchor="start" x="184" y="-333.3" font-family="Times-Roman" font-size="14.00" fill="#000000"> &#45; priority : int</text>
<polyline fill="none" stroke="#000000" points="176,-325.5 436,-325.5 "/>
<text text-anchor="start" x="184" y="-310.3" font-family="Times-Roman" font-size="14.00" fill="#000000">+ toString() : String {abstract}</text>
<text text-anchor="start" x="184" y="-295.3" font-family="Times-Roman" font-size="14.00" fill="#000000"> + toDisplayString() : String {abstract}</text>
<text text-anchor="start" x="184" y="-280.3" font-family="Times-Roman" font-size="14.00" fill="#000000"> + updatePriority() : void {abstract}</text>
</g>
<!-- Impression&#45;&gt;Evidence -->
<g id="edge2" class="edge">
<title>Impression&#45;&gt;Evidence</title>
<path fill="none" stroke="#000000" d="M307.6609,-457.9676C307.4479,-442.4552 307.2305,-426.6241 307.0262,-411.7445"/>
<polygon fill="#000000" stroke="#000000" points="307.8014,-468.201 303.1644,-458.2638 307.7327,-463.2015 307.664,-458.202 307.664,-458.202 307.664,-458.202 307.7327,-463.2015 312.1636,-458.1401 307.8014,-468.201 307.8014,-468.201"/>
<polygon fill="#000000" stroke="#000000" points="306.8871,-401.611 311.5241,-411.5482 306.9558,-406.6105 307.0245,-411.61 307.0245,-411.61 307.0245,-411.61 306.9558,-406.6105 302.5249,-411.6719 306.8871,-401.611 306.8871,-401.611"/>
<text text-anchor="middle" x="335.5" y="-438.8" font-family="Times-Roman" font-size="14.00" fill="#000000">supports</text>
</g>
<!-- Treatment -->
<g id="node6" class="node">
<title>Treatment</title>
<polygon fill="none" stroke="#000000" points="454,-257.5 454,-416.5 714,-416.5 714,-257.5 454,-257.5"/>
<text text-anchor="middle" x="584" y="-401.3" font-family="Times-Roman" font-size="14.00" fill="#000000">{abstract} Treatment</text>
<polyline fill="none" stroke="#000000" points="454,-393.5 714,-393.5 "/>
<text text-anchor="start" x="462" y="-378.3" font-family="Times-Roman" font-size="14.00" fill="#000000">&#45; name : String</text>
<text text-anchor="start" x="462" y="-363.3" font-family="Times-Roman" font-size="14.00" fill="#000000"> &#45; impression : Impression</text>
<text text-anchor="start" x="462" y="-348.3" font-family="Times-Roman" font-size="14.00" fill="#000000"> &#45; status : int</text>
<text text-anchor="start" x="462" y="-333.3" font-family="Times-Roman" font-size="14.00" fill="#000000"> &#45; statusArr : String[]</text>
<text text-anchor="start" x="462" y="-318.3" font-family="Times-Roman" font-size="14.00" fill="#000000"> &#45; priority : int</text>
<polyline fill="none" stroke="#000000" points="454,-310.5 714,-310.5 "/>
<text text-anchor="start" x="462" y="-295.3" font-family="Times-Roman" font-size="14.00" fill="#000000">+ toString() : String {abstract}</text>
<text text-anchor="start" x="462" y="-280.3" font-family="Times-Roman" font-size="14.00" fill="#000000"> + toDisplayString() : String {abstract}</text>
<text text-anchor="start" x="462" y="-265.3" font-family="Times-Roman" font-size="14.00" fill="#000000"> + updatePriority() : void {abstract}</text>
</g>
<!-- Impression&#45;&gt;Treatment -->
<g id="edge3" class="edge">
<title>Impression&#45;&gt;Treatment</title>
<path fill="none" stroke="#000000" d="M426.9348,-461.7954C443.1711,-448.895 459.7789,-435.6993 475.8276,-422.9479"/>
<polygon fill="#000000" stroke="#000000" points="418.8729,-468.201 423.9029,-458.4568 422.7876,-465.0906 426.7024,-461.9801 426.7024,-461.9801 426.7024,-461.9801 422.7876,-465.0906 429.5018,-465.5034 418.8729,-468.201 418.8729,-468.201"/>
<polygon fill="#000000" stroke="#000000" points="483.6571,-416.727 478.627,-426.4712 479.7424,-419.8374 475.8276,-422.9479 475.8276,-422.9479 475.8276,-422.9479 479.7424,-419.8374 473.0282,-419.4246 483.6571,-416.727 483.6571,-416.727"/>
<text text-anchor="middle" x="473" y="-438.8" font-family="Times-Roman" font-size="14.00" fill="#000000">treats</text>
</g>
<!-- DukeData&#45;&gt;Evidence -->
<g id="edge8" class="edge">
<title>DukeData&#45;&gt;Evidence</title>
<path fill="none" stroke="#000000" d="M540.2986,-482.4001C527.4848,-465.0571 512.1954,-447.8775 495,-435 476.0953,-420.8424 466.4297,-426.9294 445,-417 434.7684,-412.2592 424.2952,-407.0162 413.913,-401.5485"/>
<polygon fill="none" stroke="#000000" points="537.7218,-484.8135 546.3876,-490.9089 543.4144,-480.7398 537.7218,-484.8135"/>
</g>
<!-- DukeData&#45;&gt;Treatment -->
<g id="edge7" class="edge">
<title>DukeData&#45;&gt;Treatment</title>
<path fill="none" stroke="#000000" d="M583.343,-480.5474C583.4374,-459.9219 583.5401,-437.4815 583.6357,-416.6037"/>
<polygon fill="none" stroke="#000000" points="579.8419,-480.8137 583.296,-490.8297 586.8418,-480.8458 579.8419,-480.8137"/>
</g>
<!-- Result -->
<g id="node7" class="node">
<title>Result</title>
<polygon fill="none" stroke="#000000" points="210,-30.5 210,-189.5 402,-189.5 402,-30.5 210,-30.5"/>
<text text-anchor="middle" x="306" y="-174.3" font-family="Times-Roman" font-size="14.00" fill="#000000">Result</text>
<polyline fill="none" stroke="#000000" points="210,-166.5 402,-166.5 "/>
<text text-anchor="start" x="218" y="-151.3" font-family="Times-Roman" font-size="14.00" fill="#000000">&#45; name : String</text>
<text text-anchor="start" x="218" y="-136.3" font-family="Times-Roman" font-size="14.00" fill="#000000"> &#45; impression : Impression</text>
<text text-anchor="start" x="218" y="-121.3" font-family="Times-Roman" font-size="14.00" fill="#000000"> &#45; summary : String</text>
<text text-anchor="start" x="218" y="-106.3" font-family="Times-Roman" font-size="14.00" fill="#000000"> &#45; priority : int</text>
<polyline fill="none" stroke="#000000" points="210,-98.5 402,-98.5 "/>
<text text-anchor="start" x="218" y="-83.3" font-family="Times-Roman" font-size="14.00" fill="#000000">+ toString() : String</text>
<text text-anchor="start" x="218" y="-68.3" font-family="Times-Roman" font-size="14.00" fill="#000000"> + toDisplayString() : String</text>
<text text-anchor="start" x="218" y="-53.3" font-family="Times-Roman" font-size="14.00" fill="#000000"> + updatePriority() : void</text>
<text text-anchor="start" x="218" y="-38.3" font-family="Times-Roman" font-size="14.00" fill="#000000"> &lt;getters and setters&gt;</text>
</g>
<!-- Evidence&#45;&gt;Result -->
<g id="edge13" class="edge">
<title>Evidence&#45;&gt;Result</title>
<path fill="none" stroke="#000000" d="M306,-262.1317C306,-238.9342 306,-213.2922 306,-189.7748"/>
<polygon fill="none" stroke="#000000" points="302.5001,-262.2547 306,-272.2547 309.5001,-262.2547 302.5001,-262.2547"/>
</g>
<!-- Observation -->
<g id="node8" class="node">
<title>Observation</title>
<polygon fill="none" stroke="#000000" points="0,-23 0,-197 192,-197 192,-23 0,-23"/>
<text text-anchor="middle" x="96" y="-181.8" font-family="Times-Roman" font-size="14.00" fill="#000000">Observation</text>
<polyline fill="none" stroke="#000000" points="0,-174 192,-174 "/>
<text text-anchor="start" x="8" y="-158.8" font-family="Times-Roman" font-size="14.00" fill="#000000">&#45; name : String</text>
<text text-anchor="start" x="8" y="-143.8" font-family="Times-Roman" font-size="14.00" fill="#000000"> &#45; impression : Impression</text>
<text text-anchor="start" x="8" y="-128.8" font-family="Times-Roman" font-size="14.00" fill="#000000"> &#45; summary : String</text>
<text text-anchor="start" x="8" y="-113.8" font-family="Times-Roman" font-size="14.00" fill="#000000"> &#45; isObjective : bool</text>
<text text-anchor="start" x="8" y="-98.8" font-family="Times-Roman" font-size="14.00" fill="#000000"> &#45; priority : int</text>
<polyline fill="none" stroke="#000000" points="0,-91 192,-91 "/>
<text text-anchor="start" x="8" y="-75.8" font-family="Times-Roman" font-size="14.00" fill="#000000">+ toString() : String</text>
<text text-anchor="start" x="8" y="-60.8" font-family="Times-Roman" font-size="14.00" fill="#000000"> + toDisplayString() : String</text>
<text text-anchor="start" x="8" y="-45.8" font-family="Times-Roman" font-size="14.00" fill="#000000"> + updatePriority() : void</text>
<text text-anchor="start" x="8" y="-30.8" font-family="Times-Roman" font-size="14.00" fill="#000000"> &lt;getters and setters&gt;</text>
</g>
<!-- Evidence&#45;&gt;Observation -->
<g id="edge12" class="edge">
<title>Evidence&#45;&gt;Observation</title>
<path fill="none" stroke="#000000" d="M239.1766,-264.7671C219.329,-243.3127 197.3746,-219.5811 176.7421,-197.2784"/>
<polygon fill="none" stroke="#000000" points="236.7434,-267.2909 246.1035,-272.2547 241.8818,-262.5373 236.7434,-267.2909"/>
</g>
<!-- Investigation -->
<g id="node9" class="node">
<title>Investigation</title>
<polygon fill="none" stroke="#000000" points="420,-15.5 420,-204.5 612,-204.5 612,-15.5 420,-15.5"/>
<text text-anchor="middle" x="516" y="-189.3" font-family="Times-Roman" font-size="14.00" fill="#000000">Investigation</text>
<polyline fill="none" stroke="#000000" points="420,-181.5 612,-181.5 "/>
<text text-anchor="start" x="428" y="-166.3" font-family="Times-Roman" font-size="14.00" fill="#000000">&#45; name : String</text>
<text text-anchor="start" x="428" y="-151.3" font-family="Times-Roman" font-size="14.00" fill="#000000"> &#45; impression : Impression</text>
<text text-anchor="start" x="428" y="-136.3" font-family="Times-Roman" font-size="14.00" fill="#000000"> &#45; status : int</text>
<text text-anchor="start" x="428" y="-121.3" font-family="Times-Roman" font-size="14.00" fill="#000000"> &#45; statusArr : String[]</text>
<text text-anchor="start" x="428" y="-106.3" font-family="Times-Roman" font-size="14.00" fill="#000000"> &#45; summary : String</text>
<text text-anchor="start" x="428" y="-91.3" font-family="Times-Roman" font-size="14.00" fill="#000000"> &#45; priority : int</text>
<polyline fill="none" stroke="#000000" points="420,-83.5 612,-83.5 "/>
<text text-anchor="start" x="428" y="-68.3" font-family="Times-Roman" font-size="14.00" fill="#000000">+ toString() : String</text>
<text text-anchor="start" x="428" y="-53.3" font-family="Times-Roman" font-size="14.00" fill="#000000"> + toDisplayString() : String</text>
<text text-anchor="start" x="428" y="-38.3" font-family="Times-Roman" font-size="14.00" fill="#000000"> + updatePriority() : void</text>
<text text-anchor="start" x="428" y="-23.3" font-family="Times-Roman" font-size="14.00" fill="#000000"> &lt;getters and setters&gt;</text>
</g>
<!-- Treatment&#45;&gt;Investigation -->
<g id="edge9" class="edge">
<title>Treatment&#45;&gt;Investigation</title>
<path fill="none" stroke="#000000" d="M557.2267,-247.6244C553.0046,-233.53 548.6266,-218.9153 544.3697,-204.7049"/>
<polygon fill="none" stroke="#000000" points="553.8989,-248.7124 560.1214,-257.2875 560.6045,-246.7037 553.8989,-248.7124"/>
</g>
<!-- Medicine -->
<g id="node10" class="node">
<title>Medicine</title>
<polygon fill="none" stroke="#000000" points="630,-.5 630,-219.5 822,-219.5 822,-.5 630,-.5"/>
<text text-anchor="middle" x="726" y="-204.3" font-family="Times-Roman" font-size="14.00" fill="#000000">Medicine</text>
<polyline fill="none" stroke="#000000" points="630,-196.5 822,-196.5 "/>
<text text-anchor="start" x="638" y="-181.3" font-family="Times-Roman" font-size="14.00" fill="#000000">&#45; name : String</text>
<text text-anchor="start" x="638" y="-166.3" font-family="Times-Roman" font-size="14.00" fill="#000000"> &#45; impression : Impression</text>
<text text-anchor="start" x="638" y="-151.3" font-family="Times-Roman" font-size="14.00" fill="#000000"> &#45; status : int</text>
<text text-anchor="start" x="638" y="-136.3" font-family="Times-Roman" font-size="14.00" fill="#000000"> &#45; statusArr : String[]</text>
<text text-anchor="start" x="638" y="-121.3" font-family="Times-Roman" font-size="14.00" fill="#000000"> &#45; dose : String</text>
<text text-anchor="start" x="638" y="-106.3" font-family="Times-Roman" font-size="14.00" fill="#000000"> &#45; startDate : String</text>
<text text-anchor="start" x="638" y="-91.3" font-family="Times-Roman" font-size="14.00" fill="#000000"> &#45; duration : String</text>
<text text-anchor="start" x="638" y="-76.3" font-family="Times-Roman" font-size="14.00" fill="#000000"> &#45; priority : int</text>
<polyline fill="none" stroke="#000000" points="630,-68.5 822,-68.5 "/>
<text text-anchor="start" x="638" y="-53.3" font-family="Times-Roman" font-size="14.00" fill="#000000">+ toString() : String</text>
<text text-anchor="start" x="638" y="-38.3" font-family="Times-Roman" font-size="14.00" fill="#000000"> + toDisplayString() : String</text>
<text text-anchor="start" x="638" y="-23.3" font-family="Times-Roman" font-size="14.00" fill="#000000"> + updatePriority() : void</text>
<text text-anchor="start" x="638" y="-8.3" font-family="Times-Roman" font-size="14.00" fill="#000000"> &lt;getters and setters&gt;</text>
</g>
<!-- Treatment&#45;&gt;Medicine -->
<g id="edge11" class="edge">
<title>Treatment&#45;&gt;Medicine</title>
<path fill="none" stroke="#000000" d="M639.2556,-248.6688C645.1789,-239.2 651.2561,-229.485 657.3109,-219.8058"/>
<polygon fill="none" stroke="#000000" points="636.2003,-246.9534 633.8642,-257.2875 642.1349,-250.6658 636.2003,-246.9534"/>
</g>
<!-- Plan -->
<g id="node11" class="node">
<title>Plan</title>
<polygon fill="none" stroke="#000000" points="840,-15.5 840,-204.5 1032,-204.5 1032,-15.5 840,-15.5"/>
<text text-anchor="middle" x="936" y="-189.3" font-family="Times-Roman" font-size="14.00" fill="#000000">Plan</text>
<polyline fill="none" stroke="#000000" points="840,-181.5 1032,-181.5 "/>
<text text-anchor="start" x="848" y="-166.3" font-family="Times-Roman" font-size="14.00" fill="#000000">&#45; name : String</text>
<text text-anchor="start" x="848" y="-151.3" font-family="Times-Roman" font-size="14.00" fill="#000000"> &#45; impression : Impression</text>
<text text-anchor="start" x="848" y="-136.3" font-family="Times-Roman" font-size="14.00" fill="#000000"> &#45; status : int</text>
<text text-anchor="start" x="848" y="-121.3" font-family="Times-Roman" font-size="14.00" fill="#000000"> &#45; statusArr : String[]</text>
<text text-anchor="start" x="848" y="-106.3" font-family="Times-Roman" font-size="14.00" fill="#000000"> &#45; summary : String</text>
<text text-anchor="start" x="848" y="-91.3" font-family="Times-Roman" font-size="14.00" fill="#000000"> &#45; priority : int</text>
<polyline fill="none" stroke="#000000" points="840,-83.5 1032,-83.5 "/>
<text text-anchor="start" x="848" y="-68.3" font-family="Times-Roman" font-size="14.00" fill="#000000">+ toString() : String</text>
<text text-anchor="start" x="848" y="-53.3" font-family="Times-Roman" font-size="14.00" fill="#000000"> + toDisplayString() : String</text>
<text text-anchor="start" x="848" y="-38.3" font-family="Times-Roman" font-size="14.00" fill="#000000"> + updatePriority() : void</text>
<text text-anchor="start" x="848" y="-23.3" font-family="Times-Roman" font-size="14.00" fill="#000000"> &lt;getters and setters&gt;</text>
</g>
<!-- Treatment&#45;&gt;Plan -->
<g id="edge10" class="edge">
<title>Treatment&#45;&gt;Plan</title>
<path fill="none" stroke="#000000" d="M723.2747,-281.9069C759.8441,-264.5807 798.1991,-243.6909 831,-220 837.5277,-215.2853 843.9904,-210.1326 850.3109,-204.7133"/>
<polygon fill="none" stroke="#000000" points="721.5961,-278.828 714.0203,-286.2346 724.5614,-285.1689 721.5961,-278.828"/>
</g>
</g>
</svg>
