<?xml version="1.0" encoding="UTF-8" standalone="no"?>
<!DOCTYPE svg PUBLIC "-//W3C//DTD SVG 1.1//EN"
 "http://www.w3.org/Graphics/SVG/1.1/DTD/svg11.dtd">
<!-- Generated by graphviz version 2.40.1 (20161225.0304)
 -->
<!-- Title: main Pages: 1 -->
<svg width="1020pt" height="923pt"
 viewBox="0.00 0.00 1020.00 923.00" xmlns="http://www.w3.org/2000/svg" xmlns:xlink="http://www.w3.org/1999/xlink">
<g id="graph0" class="graph" transform="scale(1 1) rotate(0) translate(4 919)">
<title>main</title>
<polygon fill="#ffffff" stroke="transparent" points="-4,4 -4,-919 1016,-919 1016,4 -4,4"/>
<!-- Patient -->
<g id="node1" class="node">
<title>Patient</title>
<polygon fill="none" stroke="#000000" points="329.5,-620.5 329.5,-914.5 682.5,-914.5 682.5,-620.5 329.5,-620.5"/>
<text text-anchor="middle" x="506" y="-899.3" font-family="Times-Roman" font-size="14.00" fill="#000000">Patient</text>
<polyline fill="none" stroke="#000000" points="329.5,-891.5 682.5,-891.5 "/>
<text text-anchor="start" x="337.5" y="-876.3" font-family="Times-Roman" font-size="14.00" fill="#000000">&#45; name : String</text>
<text text-anchor="start" x="337.5" y="-861.3" font-family="Times-Roman" font-size="14.00" fill="#000000"> &#45; bedNo : int</text>
<text text-anchor="start" x="337.5" y="-846.3" font-family="Times-Roman" font-size="14.00" fill="#000000"> &#45; height : int</text>
<text text-anchor="start" x="337.5" y="-831.3" font-family="Times-Roman" font-size="14.00" fill="#000000"> &#45; weight : int</text>
<text text-anchor="start" x="337.5" y="-816.3" font-family="Times-Roman" font-size="14.00" fill="#000000"> &#45; age : int</text>
<text text-anchor="start" x="337.5" y="-801.3" font-family="Times-Roman" font-size="14.00" fill="#000000"> &#45; number : int</text>
<text text-anchor="start" x="337.5" y="-786.3" font-family="Times-Roman" font-size="14.00" fill="#000000"> &#45; address : String</text>
<text text-anchor="start" x="337.5" y="-771.3" font-family="Times-Roman" font-size="14.00" fill="#000000"> &#45; history : String</text>
<text text-anchor="start" x="337.5" y="-756.3" font-family="Times-Roman" font-size="14.00" fill="#000000"> &#45; priDiagnosis : Impression</text>
<text text-anchor="start" x="337.5" y="-741.3" font-family="Times-Roman" font-size="14.00" fill="#000000"> &#45; allergies : String</text>
<text text-anchor="start" x="337.5" y="-726.3" font-family="Times-Roman" font-size="14.00" fill="#000000"> &#45; impressions : ArrayList&lt;Impression&gt;</text>
<polyline fill="none" stroke="#000000" points="329.5,-718.5 682.5,-718.5 "/>
<text text-anchor="start" x="337.5" y="-703.3" font-family="Times-Roman" font-size="14.00" fill="#000000">+ discharge() : void</text>
<text text-anchor="start" x="337.5" y="-688.3" font-family="Times-Roman" font-size="14.00" fill="#000000"> + addNew&lt;impression/treatment/evidence&gt;() : void</text>
<text text-anchor="start" x="337.5" y="-673.3" font-family="Times-Roman" font-size="14.00" fill="#000000"> + toString() : String</text>
<text text-anchor="start" x="337.5" y="-658.3" font-family="Times-Roman" font-size="14.00" fill="#000000"> + toDisplayString() : String</text>
<text text-anchor="start" x="337.5" y="-643.3" font-family="Times-Roman" font-size="14.00" fill="#000000"> &lt;functions for private data structures&gt;</text>
<text text-anchor="start" x="337.5" y="-628.3" font-family="Times-Roman" font-size="14.00" fill="#000000"> &lt;getters and setters&gt;</text>
</g>
<!-- Impression -->
<g id="node2" class="node">
<title>Impression</title>
<polygon fill="none" stroke="#000000" points="380,-423.5 380,-582.5 632,-582.5 632,-423.5 380,-423.5"/>
<text text-anchor="middle" x="506" y="-567.3" font-family="Times-Roman" font-size="14.00" fill="#000000">Impression</text>
<polyline fill="none" stroke="#000000" points="380,-559.5 632,-559.5 "/>
<text text-anchor="start" x="388" y="-544.3" font-family="Times-Roman" font-size="14.00" fill="#000000">&#45; name : String</text>
<text text-anchor="start" x="388" y="-529.3" font-family="Times-Roman" font-size="14.00" fill="#000000"> &#45; description : String</text>
<text text-anchor="start" x="388" y="-514.3" font-family="Times-Roman" font-size="14.00" fill="#000000"> &#45; evidence : ArrayList&lt;Evidence&gt;</text>
<text text-anchor="start" x="388" y="-499.3" font-family="Times-Roman" font-size="14.00" fill="#000000"> &#45; treatments : ArrayList&lt;Treatment&gt;</text>
<text text-anchor="start" x="388" y="-484.3" font-family="Times-Roman" font-size="14.00" fill="#000000"> &#45; patient : Patient</text>
<polyline fill="none" stroke="#000000" points="380,-476.5 632,-476.5 "/>
<text text-anchor="start" x="388" y="-461.3" font-family="Times-Roman" font-size="14.00" fill="#000000">+ toDisplayString() : String</text>
<text text-anchor="start" x="388" y="-446.3" font-family="Times-Roman" font-size="14.00" fill="#000000"> &lt;getters and setters&gt;</text>
<text text-anchor="start" x="388" y="-431.3" font-family="Times-Roman" font-size="14.00" fill="#000000"> &lt;CRUD for evidence/treatments&gt;</text>
</g>
<!-- Patient&#45;&gt;Impression -->
<g id="edge1" class="edge">
<title>Patient&#45;&gt;Impression</title>
<path fill="none" stroke="#000000" d="M506,-610.0095C506,-604.1919 506,-598.442 506,-592.8071"/>
<polygon fill="#000000" stroke="#000000" points="506,-620.1686 501.5001,-610.1686 506,-615.1686 506.0001,-610.1686 506.0001,-610.1686 506.0001,-610.1686 506,-615.1686 510.5001,-610.1687 506,-620.1686 506,-620.1686"/>
<polygon fill="#000000" stroke="#000000" points="506,-582.7987 510.5001,-592.7987 506,-587.7987 506.0001,-592.7987 506.0001,-592.7987 506.0001,-592.7987 506,-587.7987 501.5001,-592.7988 506,-582.7987 506,-582.7987"/>
</g>
<!-- Evidence -->
<g id="node3" class="node">
<title>Evidence</title>
<polygon fill="none" stroke="#000000" points="172,-250 172,-349 428,-349 428,-250 172,-250"/>
<text text-anchor="middle" x="300" y="-333.8" font-family="Times-Roman" font-size="14.00" fill="#000000">{abstract} Evidence</text>
<polyline fill="none" stroke="#000000" points="172,-326 428,-326 "/>
<text text-anchor="start" x="180" y="-310.8" font-family="Times-Roman" font-size="14.00" fill="#000000">&#45; name : String</text>
<text text-anchor="start" x="180" y="-295.8" font-family="Times-Roman" font-size="14.00" fill="#000000"> &#45; impression : Impression</text>
<text text-anchor="start" x="180" y="-280.8" font-family="Times-Roman" font-size="14.00" fill="#000000"> &#45; priority : int</text>
<polyline fill="none" stroke="#000000" points="172,-273 428,-273 "/>
<text text-anchor="start" x="180" y="-257.8" font-family="Times-Roman" font-size="14.00" fill="#000000">+ toDisplayString() : String {abstract}</text>
</g>
<!-- Impression&#45;&gt;Evidence -->
<g id="edge2" class="edge">
<title>Impression&#45;&gt;Evidence</title>
<path fill="none" stroke="#000000" d="M418.2839,-416.3484C397.7295,-396.0434 376.3446,-374.918 357.502,-356.3042"/>
<polygon fill="#000000" stroke="#000000" points="425.47,-423.4473 415.1933,-419.6208 421.9129,-419.9334 418.3558,-416.4195 418.3558,-416.4195 418.3558,-416.4195 421.9129,-419.9334 421.5183,-413.2181 425.47,-423.4473 425.47,-423.4473"/>
<polygon fill="#000000" stroke="#000000" points="350.1406,-349.0321 360.4173,-352.8586 353.6977,-352.546 357.2548,-356.0599 357.2548,-356.0599 357.2548,-356.0599 353.6977,-352.546 354.0923,-359.2613 350.1406,-349.0321 350.1406,-349.0321"/>
<text text-anchor="middle" x="430.5" y="-393.8" font-family="Times-Roman" font-size="14.00" fill="#000000">supports</text>
</g>
<!-- Treatment -->
<g id="node4" class="node">
<title>Treatment</title>
<polygon fill="none" stroke="#000000" points="542,-227.5 542,-371.5 798,-371.5 798,-227.5 542,-227.5"/>
<text text-anchor="middle" x="670" y="-356.3" font-family="Times-Roman" font-size="14.00" fill="#000000">{abstract} Treatment</text>
<polyline fill="none" stroke="#000000" points="542,-348.5 798,-348.5 "/>
<text text-anchor="start" x="550" y="-333.3" font-family="Times-Roman" font-size="14.00" fill="#000000">&#45; name : String</text>
<text text-anchor="start" x="550" y="-318.3" font-family="Times-Roman" font-size="14.00" fill="#000000"> &#45; impression : Impression</text>
<text text-anchor="start" x="550" y="-303.3" font-family="Times-Roman" font-size="14.00" fill="#000000"> &#45; status : int</text>
<text text-anchor="start" x="550" y="-288.3" font-family="Times-Roman" font-size="14.00" fill="#000000"> &#45; statusArr : String[]</text>
<text text-anchor="start" x="550" y="-273.3" font-family="Times-Roman" font-size="14.00" fill="#000000"> &#45; priority : int</text>
<polyline fill="none" stroke="#000000" points="542,-265.5 798,-265.5 "/>
<text text-anchor="start" x="550" y="-250.3" font-family="Times-Roman" font-size="14.00" fill="#000000">+ toDisplayString() : String {abstract}</text>
<text text-anchor="start" x="550" y="-235.3" font-family="Times-Roman" font-size="14.00" fill="#000000"> + updateStatus() : void</text>
</g>
<!-- Impression&#45;&gt;Treatment -->
<g id="edge3" class="edge">
<title>Impression&#45;&gt;Treatment</title>
<path fill="none" stroke="#000000" d="M576.5997,-415.3961C586.1462,-403.5503 595.9029,-391.4437 605.3386,-379.7354"/>
<polygon fill="#000000" stroke="#000000" points="570.1113,-423.4473 572.8824,-412.8373 573.2488,-419.5541 576.3862,-415.661 576.3862,-415.661 576.3862,-415.661 573.2488,-419.5541 579.8901,-418.4847 570.1113,-423.4473 570.1113,-423.4473"/>
<polygon fill="#000000" stroke="#000000" points="611.8132,-371.7013 609.042,-382.3113 608.6757,-375.5945 605.5382,-379.4876 605.5382,-379.4876 605.5382,-379.4876 608.6757,-375.5945 602.0344,-376.6639 611.8132,-371.7013 611.8132,-371.7013"/>
<text text-anchor="middle" x="611" y="-393.8" font-family="Times-Roman" font-size="14.00" fill="#000000">treats</text>
</g>
<!-- Result -->
<g id="node5" class="node">
<title>Result</title>
<polygon fill="none" stroke="#000000" points="0,-30.5 0,-159.5 188,-159.5 188,-30.5 0,-30.5"/>
<text text-anchor="middle" x="94" y="-144.3" font-family="Times-Roman" font-size="14.00" fill="#000000">Result</text>
<polyline fill="none" stroke="#000000" points="0,-136.5 188,-136.5 "/>
<text text-anchor="start" x="8" y="-121.3" font-family="Times-Roman" font-size="14.00" fill="#000000">&#45; name : String</text>
<text text-anchor="start" x="8" y="-106.3" font-family="Times-Roman" font-size="14.00" fill="#000000"> &#45; impression : Impression</text>
<text text-anchor="start" x="8" y="-91.3" font-family="Times-Roman" font-size="14.00" fill="#000000"> &#45; summary : String</text>
<text text-anchor="start" x="8" y="-76.3" font-family="Times-Roman" font-size="14.00" fill="#000000"> &#45; priority : int</text>
<polyline fill="none" stroke="#000000" points="0,-68.5 188,-68.5 "/>
<text text-anchor="start" x="8" y="-53.3" font-family="Times-Roman" font-size="14.00" fill="#000000">+ toDisplayString() : String</text>
<text text-anchor="start" x="8" y="-38.3" font-family="Times-Roman" font-size="14.00" fill="#000000"> &lt;getters and setters&gt;</text>
</g>
<!-- Evidence&#45;&gt;Result -->
<g id="edge8" class="edge">
<title>Evidence&#45;&gt;Result</title>
<path fill="none" stroke="#000000" d="M242.9269,-242.8425C216.8882,-216.9934 185.9252,-186.2558 158.9941,-159.5208"/>
<polygon fill="none" stroke="#000000" points="240.5704,-245.435 250.1331,-249.9963 245.5021,-240.4671 240.5704,-245.435"/>
</g>
<!-- Observation -->
<g id="node6" class="node">
<title>Observation</title>
<polygon fill="none" stroke="#000000" points="206,-23 206,-167 394,-167 394,-23 206,-23"/>
<text text-anchor="middle" x="300" y="-151.8" font-family="Times-Roman" font-size="14.00" fill="#000000">Observation</text>
<polyline fill="none" stroke="#000000" points="206,-144 394,-144 "/>
<text text-anchor="start" x="214" y="-128.8" font-family="Times-Roman" font-size="14.00" fill="#000000">&#45; name : String</text>
<text text-anchor="start" x="214" y="-113.8" font-family="Times-Roman" font-size="14.00" fill="#000000"> &#45; impression : Impression</text>
<text text-anchor="start" x="214" y="-98.8" font-family="Times-Roman" font-size="14.00" fill="#000000"> &#45; summary : String</text>
<text text-anchor="start" x="214" y="-83.8" font-family="Times-Roman" font-size="14.00" fill="#000000"> &#45; isObjective : bool</text>
<text text-anchor="start" x="214" y="-68.8" font-family="Times-Roman" font-size="14.00" fill="#000000"> &#45; priority : int</text>
<polyline fill="none" stroke="#000000" points="206,-61 394,-61 "/>
<text text-anchor="start" x="214" y="-45.8" font-family="Times-Roman" font-size="14.00" fill="#000000">+ toDisplayString() : String</text>
<text text-anchor="start" x="214" y="-30.8" font-family="Times-Roman" font-size="14.00" fill="#000000"> &lt;getters and setters&gt;</text>
</g>
<!-- Evidence&#45;&gt;Observation -->
<g id="edge7" class="edge">
<title>Evidence&#45;&gt;Observation</title>
<path fill="none" stroke="#000000" d="M300,-239.8241C300,-217.1173 300,-191.0003 300,-167.2519"/>
<polygon fill="none" stroke="#000000" points="296.5001,-239.9962 300,-249.9963 303.5001,-239.9963 296.5001,-239.9962"/>
</g>
<!-- Investigation -->
<g id="node7" class="node">
<title>Investigation</title>
<polygon fill="none" stroke="#000000" points="412,-8 412,-182 600,-182 600,-8 412,-8"/>
<text text-anchor="middle" x="506" y="-166.8" font-family="Times-Roman" font-size="14.00" fill="#000000">Investigation</text>
<polyline fill="none" stroke="#000000" points="412,-159 600,-159 "/>
<text text-anchor="start" x="420" y="-143.8" font-family="Times-Roman" font-size="14.00" fill="#000000">&#45; name : String</text>
<text text-anchor="start" x="420" y="-128.8" font-family="Times-Roman" font-size="14.00" fill="#000000"> &#45; impression : Impression</text>
<text text-anchor="start" x="420" y="-113.8" font-family="Times-Roman" font-size="14.00" fill="#000000"> &#45; status : int</text>
<text text-anchor="start" x="420" y="-98.8" font-family="Times-Roman" font-size="14.00" fill="#000000"> &#45; statusArr : String[]</text>
<text text-anchor="start" x="420" y="-83.8" font-family="Times-Roman" font-size="14.00" fill="#000000"> &#45; summary : String</text>
<text text-anchor="start" x="420" y="-68.8" font-family="Times-Roman" font-size="14.00" fill="#000000"> &#45; priority : int</text>
<polyline fill="none" stroke="#000000" points="412,-61 600,-61 "/>
<text text-anchor="start" x="420" y="-45.8" font-family="Times-Roman" font-size="14.00" fill="#000000">+ toDisplayString() : String</text>
<text text-anchor="start" x="420" y="-30.8" font-family="Times-Roman" font-size="14.00" fill="#000000"> + toResult(String) : Result</text>
<text text-anchor="start" x="420" y="-15.8" font-family="Times-Roman" font-size="14.00" fill="#000000"> &lt;getters and setters&gt;</text>
</g>
<!-- Treatment&#45;&gt;Investigation -->
<g id="edge4" class="edge">
<title>Treatment&#45;&gt;Investigation</title>
<path fill="none" stroke="#000000" d="M605.8025,-219.4489C596.0106,-207.2388 585.8628,-194.5851 575.9549,-182.2303"/>
<polygon fill="none" stroke="#000000" points="603.193,-221.7894 612.1797,-227.401 608.6539,-217.41 603.193,-221.7894"/>
</g>
<!-- Medicine -->
<g id="node8" class="node">
<title>Medicine</title>
<polygon fill="none" stroke="#000000" points="618,-.5 618,-189.5 806,-189.5 806,-.5 618,-.5"/>
<text text-anchor="middle" x="712" y="-174.3" font-family="Times-Roman" font-size="14.00" fill="#000000">Medicine</text>
<polyline fill="none" stroke="#000000" points="618,-166.5 806,-166.5 "/>
<text text-anchor="start" x="626" y="-151.3" font-family="Times-Roman" font-size="14.00" fill="#000000">&#45; name : String</text>
<text text-anchor="start" x="626" y="-136.3" font-family="Times-Roman" font-size="14.00" fill="#000000"> &#45; impression : Impression</text>
<text text-anchor="start" x="626" y="-121.3" font-family="Times-Roman" font-size="14.00" fill="#000000"> &#45; status : int</text>
<text text-anchor="start" x="626" y="-106.3" font-family="Times-Roman" font-size="14.00" fill="#000000"> &#45; statusArr : String[]</text>
<text text-anchor="start" x="626" y="-91.3" font-family="Times-Roman" font-size="14.00" fill="#000000"> &#45; dose : String</text>
<text text-anchor="start" x="626" y="-76.3" font-family="Times-Roman" font-size="14.00" fill="#000000"> &#45; startDate : String</text>
<text text-anchor="start" x="626" y="-61.3" font-family="Times-Roman" font-size="14.00" fill="#000000"> &#45; duration : String</text>
<text text-anchor="start" x="626" y="-46.3" font-family="Times-Roman" font-size="14.00" fill="#000000"> &#45; priority : int</text>
<polyline fill="none" stroke="#000000" points="618,-38.5 806,-38.5 "/>
<text text-anchor="start" x="626" y="-23.3" font-family="Times-Roman" font-size="14.00" fill="#000000">+ toDisplayString() : String</text>
<text text-anchor="start" x="626" y="-8.3" font-family="Times-Roman" font-size="14.00" fill="#000000"> &lt;getters and setters&gt;</text>
</g>
<!-- Treatment&#45;&gt;Medicine -->
<g id="edge6" class="edge">
<title>Treatment&#45;&gt;Medicine</title>
<path fill="none" stroke="#000000" d="M686.8268,-217.5693C688.7073,-208.4134 690.6342,-199.031 692.5441,-189.7319"/>
<polygon fill="none" stroke="#000000" points="683.3911,-216.9012 684.8076,-227.401 690.2479,-218.3096 683.3911,-216.9012"/>
</g>
<!-- Plan -->
<g id="node9" class="node">
<title>Plan</title>
<polygon fill="none" stroke="#000000" points="824,-15.5 824,-174.5 1012,-174.5 1012,-15.5 824,-15.5"/>
<text text-anchor="middle" x="918" y="-159.3" font-family="Times-Roman" font-size="14.00" fill="#000000">Plan</text>
<polyline fill="none" stroke="#000000" points="824,-151.5 1012,-151.5 "/>
<text text-anchor="start" x="832" y="-136.3" font-family="Times-Roman" font-size="14.00" fill="#000000">&#45; name : String</text>
<text text-anchor="start" x="832" y="-121.3" font-family="Times-Roman" font-size="14.00" fill="#000000"> &#45; impression : Impression</text>
<text text-anchor="start" x="832" y="-106.3" font-family="Times-Roman" font-size="14.00" fill="#000000"> &#45; status : int</text>
<text text-anchor="start" x="832" y="-91.3" font-family="Times-Roman" font-size="14.00" fill="#000000"> &#45; statusArr : String[]</text>
<text text-anchor="start" x="832" y="-76.3" font-family="Times-Roman" font-size="14.00" fill="#000000"> &#45; summary : String</text>
<text text-anchor="start" x="832" y="-61.3" font-family="Times-Roman" font-size="14.00" fill="#000000"> &#45; priority : int</text>
<polyline fill="none" stroke="#000000" points="824,-53.5 1012,-53.5 "/>
<text text-anchor="start" x="832" y="-38.3" font-family="Times-Roman" font-size="14.00" fill="#000000">+ toDisplayString() : String</text>
<text text-anchor="start" x="832" y="-23.3" font-family="Times-Roman" font-size="14.00" fill="#000000"> &lt;getters and setters&gt;</text>
</g>
<!-- Treatment&#45;&gt;Plan -->
<g id="edge5" class="edge">
<title>Treatment&#45;&gt;Plan</title>
<path fill="none" stroke="#000000" d="M776.3303,-221.1047C789.5068,-210.835 802.6699,-200.2996 815,-190 820.881,-185.0874 826.8743,-179.9455 832.863,-174.705"/>
<polygon fill="none" stroke="#000000" points="773.8907,-218.5673 768.1316,-227.4602 778.1794,-224.0997 773.8907,-218.5673"/>
</g>
</g>
</svg>
