<?xml version="1.0" encoding="UTF-8" standalone="no"?>
<!DOCTYPE svg PUBLIC "-//W3C//DTD SVG 1.1//EN"
 "http://www.w3.org/Graphics/SVG/1.1/DTD/svg11.dtd">
<!-- Generated by graphviz version 2.40.1 (20161225.0304)
 -->
<!-- Title: main Pages: 1 -->
<svg width="774pt" height="544pt"
 viewBox="0.00 0.00 773.50 544.00" xmlns="http://www.w3.org/2000/svg" xmlns:xlink="http://www.w3.org/1999/xlink">
<g id="graph0" class="graph" transform="scale(1 1) rotate(0) translate(4 540)">
<title>main</title>
<polygon fill="#ffffff" stroke="transparent" points="-4,4 -4,-540 769.5,-540 769.5,4 -4,4"/>
<!-- Patient -->
<g id="node1" class="node">
<title>Patient</title>
<polygon fill="none" stroke="#000000" points="0,-181.5 0,-535.5 353,-535.5 353,-181.5 0,-181.5"/>
<text text-anchor="middle" x="176.5" y="-520.3" font-family="Times-Roman" font-size="14.00" fill="#000000">Patient</text>
<polyline fill="none" stroke="#000000" points="0,-512.5 353,-512.5 "/>
<text text-anchor="start" x="8" y="-497.3" font-family="Times-Roman" font-size="14.00" fill="#000000">&#45; name : String</text>
<text text-anchor="start" x="8" y="-482.3" font-family="Times-Roman" font-size="14.00" fill="#000000"> &#45; bedNo : int</text>
<text text-anchor="start" x="8" y="-467.3" font-family="Times-Roman" font-size="14.00" fill="#000000"> &#45; height : int</text>
<text text-anchor="start" x="8" y="-452.3" font-family="Times-Roman" font-size="14.00" fill="#000000"> &#45; weight : int</text>
<text text-anchor="start" x="8" y="-437.3" font-family="Times-Roman" font-size="14.00" fill="#000000"> &#45; age : int</text>
<text text-anchor="start" x="8" y="-422.3" font-family="Times-Roman" font-size="14.00" fill="#000000"> &#45; number : int</text>
<text text-anchor="start" x="8" y="-407.3" font-family="Times-Roman" font-size="14.00" fill="#000000"> &#45; address : String</text>
<text text-anchor="start" x="8" y="-392.3" font-family="Times-Roman" font-size="14.00" fill="#000000"> &#45; priDiagnosis : Diagnosis</text>
<text text-anchor="start" x="8" y="-377.3" font-family="Times-Roman" font-size="14.00" fill="#000000"> &#45; allergies : ArrayList&lt;Allergy&gt;</text>
<text text-anchor="start" x="8" y="-362.3" font-family="Times-Roman" font-size="14.00" fill="#000000"> &#45; impressions : ArrayList&lt;Impression&gt;</text>
<text text-anchor="start" x="8" y="-347.3" font-family="Times-Roman" font-size="14.00" fill="#000000"> &#45; observations : ArrayList&lt;Observation&gt;</text>
<text text-anchor="start" x="8" y="-332.3" font-family="Times-Roman" font-size="14.00" fill="#000000"> &#45; plans : ArrayList&lt;Plan&gt;</text>
<text text-anchor="start" x="8" y="-317.3" font-family="Times-Roman" font-size="14.00" fill="#000000"> &#45; medicines : ArrayList&lt;Medicine&gt;</text>
<text text-anchor="start" x="8" y="-302.3" font-family="Times-Roman" font-size="14.00" fill="#000000"> &#45; investigations : ArrayList&lt;Investigation&gt;</text>
<text text-anchor="start" x="8" y="-287.3" font-family="Times-Roman" font-size="14.00" fill="#000000"> &#45; results : ArrayList&lt;Result&gt;</text>
<polyline fill="none" stroke="#000000" points="0,-279.5 353,-279.5 "/>
<text text-anchor="start" x="8" y="-264.3" font-family="Times-Roman" font-size="14.00" fill="#000000">+ discharge() : void</text>
<text text-anchor="start" x="8" y="-249.3" font-family="Times-Roman" font-size="14.00" fill="#000000"> + addNew&lt;impression/treatment/evidence&gt;() : void</text>
<text text-anchor="start" x="8" y="-234.3" font-family="Times-Roman" font-size="14.00" fill="#000000"> + toString() : String</text>
<text text-anchor="start" x="8" y="-219.3" font-family="Times-Roman" font-size="14.00" fill="#000000"> + toDisplayString() : String</text>
<text text-anchor="start" x="8" y="-204.3" font-family="Times-Roman" font-size="14.00" fill="#000000"> &lt;functions for private data structures&gt;</text>
<text text-anchor="start" x="8" y="-189.3" font-family="Times-Roman" font-size="14.00" fill="#000000"> &lt;getters and setters&gt;</text>
</g>
<!-- Treatment -->
<g id="node2" class="node">
<title>Treatment</title>
<polygon fill="none" stroke="#000000" points="371.5,-309 371.5,-408 559.5,-408 559.5,-309 371.5,-309"/>
<text text-anchor="middle" x="465.5" y="-392.8" font-family="Times-Roman" font-size="14.00" fill="#000000">{abstract} Evidence</text>
<polyline fill="none" stroke="#000000" points="371.5,-385 559.5,-385 "/>
<text text-anchor="start" x="379.5" y="-369.8" font-family="Times-Roman" font-size="14.00" fill="#000000">&#45; name : String</text>
<text text-anchor="start" x="379.5" y="-354.8" font-family="Times-Roman" font-size="14.00" fill="#000000"> &#45; impression : Impression</text>
<polyline fill="none" stroke="#000000" points="371.5,-347 559.5,-347 "/>
<text text-anchor="start" x="379.5" y="-331.8" font-family="Times-Roman" font-size="14.00" fill="#000000">+ toDisplayString() : String</text>
<text text-anchor="start" x="379.5" y="-316.8" font-family="Times-Roman" font-size="14.00" fill="#000000"> &lt;getters and setters&gt;</text>
</g>
<!-- Impression -->
<g id="node4" class="node">
<title>Impression</title>
<polygon fill="none" stroke="#000000" points="442.5,-.5 442.5,-129.5 694.5,-129.5 694.5,-.5 442.5,-.5"/>
<text text-anchor="middle" x="568.5" y="-114.3" font-family="Times-Roman" font-size="14.00" fill="#000000">Impression</text>
<polyline fill="none" stroke="#000000" points="442.5,-106.5 694.5,-106.5 "/>
<text text-anchor="start" x="450.5" y="-91.3" font-family="Times-Roman" font-size="14.00" fill="#000000">&#45; name : String</text>
<text text-anchor="start" x="450.5" y="-76.3" font-family="Times-Roman" font-size="14.00" fill="#000000"> &#45; evidence : ArrayList&lt;Evidence&gt;</text>
<text text-anchor="start" x="450.5" y="-61.3" font-family="Times-Roman" font-size="14.00" fill="#000000"> &#45; treatments : ArrayList&lt;Treatment&gt;</text>
<polyline fill="none" stroke="#000000" points="442.5,-53.5 694.5,-53.5 "/>
<text text-anchor="start" x="450.5" y="-38.3" font-family="Times-Roman" font-size="14.00" fill="#000000">+ discharge() : void</text>
<text text-anchor="start" x="450.5" y="-23.3" font-family="Times-Roman" font-size="14.00" fill="#000000"> + toDisplayString() : String</text>
<text text-anchor="start" x="450.5" y="-8.3" font-family="Times-Roman" font-size="14.00" fill="#000000"> &lt;getters and setters&gt;</text>
</g>
<!-- Treatment&#45;&gt;Impression -->
<g id="edge2" class="edge">
<title>Treatment&#45;&gt;Impression</title>
<path fill="none" stroke="#000000" d="M486.3218,-299.1681C502.4921,-253.0905 525.0119,-188.92 542.3887,-139.4044"/>
<polygon fill="#000000" stroke="#000000" points="482.9725,-308.7117 482.0379,-297.7857 484.6283,-303.9938 486.284,-299.2759 486.284,-299.2759 486.284,-299.2759 484.6283,-303.9938 490.5301,-300.766 482.9725,-308.7117 482.9725,-308.7117"/>
<polygon fill="#000000" stroke="#000000" points="545.7921,-129.7064 546.7268,-140.6324 544.1364,-134.4243 542.4807,-139.1422 542.4807,-139.1422 542.4807,-139.1422 544.1364,-134.4243 538.2346,-137.6521 545.7921,-129.7064 545.7921,-129.7064"/>
<text text-anchor="middle" x="556.5" y="-151.8" font-family="Times-Roman" font-size="14.00" fill="#000000">treats</text>
</g>
<!-- Evidence -->
<g id="node3" class="node">
<title>Evidence</title>
<polygon fill="none" stroke="#000000" points="577.5,-309 577.5,-408 765.5,-408 765.5,-309 577.5,-309"/>
<text text-anchor="middle" x="671.5" y="-392.8" font-family="Times-Roman" font-size="14.00" fill="#000000">{abstract} Treatment</text>
<polyline fill="none" stroke="#000000" points="577.5,-385 765.5,-385 "/>
<text text-anchor="start" x="585.5" y="-369.8" font-family="Times-Roman" font-size="14.00" fill="#000000">&#45; name : String</text>
<text text-anchor="start" x="585.5" y="-354.8" font-family="Times-Roman" font-size="14.00" fill="#000000"> &#45; impression : Impression</text>
<polyline fill="none" stroke="#000000" points="577.5,-347 765.5,-347 "/>
<text text-anchor="start" x="585.5" y="-331.8" font-family="Times-Roman" font-size="14.00" fill="#000000">+ toDisplayString() : String</text>
<text text-anchor="start" x="585.5" y="-316.8" font-family="Times-Roman" font-size="14.00" fill="#000000"> &lt;getters and setters&gt;</text>
</g>
<!-- Evidence&#45;&gt;Impression -->
<g id="edge1" class="edge">
<title>Evidence&#45;&gt;Impression</title>
<path fill="none" stroke="#000000" d="M650.6782,-299.1681C634.5079,-253.0905 611.9881,-188.92 594.6113,-139.4044"/>
<polygon fill="#000000" stroke="#000000" points="654.0275,-308.7117 646.4699,-300.766 652.3717,-303.9938 650.716,-299.2759 650.716,-299.2759 650.716,-299.2759 652.3717,-303.9938 654.9621,-297.7857 654.0275,-308.7117 654.0275,-308.7117"/>
<polygon fill="#000000" stroke="#000000" points="591.2079,-129.7064 598.7654,-137.6521 592.8636,-134.4243 594.5193,-139.1422 594.5193,-139.1422 594.5193,-139.1422 592.8636,-134.4243 590.2732,-140.6324 591.2079,-129.7064 591.2079,-129.7064"/>
<text text-anchor="middle" x="630" y="-151.8" font-family="Times-Roman" font-size="14.00" fill="#000000">supports</text>
</g>
</g>
</svg>
