<?xml version="1.0" encoding="UTF-8" standalone="no"?>
<!DOCTYPE svg PUBLIC "-//W3C//DTD SVG 1.1//EN"
 "http://www.w3.org/Graphics/SVG/1.1/DTD/svg11.dtd">
<!-- Generated by graphviz version 2.40.1 (20161225.0304)
 -->
<!-- Title: main Pages: 1 -->
<svg width="1385pt" height="1360pt"
 viewBox="0.00 0.00 1385.00 1360.00" xmlns="http://www.w3.org/2000/svg" xmlns:xlink="http://www.w3.org/1999/xlink">
<g id="graph0" class="graph" transform="scale(1 1) rotate(0) translate(4 1356)">
<title>main</title>
<polygon fill="#ffffff" stroke="transparent" points="-4,4 -4,-1356 1381,-1356 1381,4 -4,4"/>
<!-- DukeObj -->
<g id="node1" class="node">
<title>DukeObj</title>
<polygon fill="none" stroke="#000000" points="480.5,-1252.5 480.5,-1351.5 740.5,-1351.5 740.5,-1252.5 480.5,-1252.5"/>
<text text-anchor="middle" x="610.5" y="-1336.3" font-family="Times-Roman" font-size="14.00" fill="#000000">{abstract} DukeObj</text>
<polyline fill="none" stroke="#000000" points="480.5,-1328.5 740.5,-1328.5 "/>
<text text-anchor="start" x="488.5" y="-1313.3" font-family="Times-Roman" font-size="14.00" fill="#000000">&#45; name : String</text>
<polyline fill="none" stroke="#000000" points="480.5,-1305.5 740.5,-1305.5 "/>
<text text-anchor="start" x="488.5" y="-1290.3" font-family="Times-Roman" font-size="14.00" fill="#000000">+ toString() : String {abstract}</text>
<text text-anchor="start" x="488.5" y="-1275.3" font-family="Times-Roman" font-size="14.00" fill="#000000"> + toDisplayString() : String {abstract}</text>
<text text-anchor="start" x="488.5" y="-1260.3" font-family="Times-Roman" font-size="14.00" fill="#000000"> + toReportString() : String {abstract}</text>
</g>
<!-- Patient -->
<g id="node2" class="node">
<title>Patient</title>
<polygon fill="none" stroke="#000000" points="236,-860.5 236,-1214.5 583,-1214.5 583,-860.5 236,-860.5"/>
<text text-anchor="middle" x="409.5" y="-1199.3" font-family="Times-Roman" font-size="14.00" fill="#000000">Patient</text>
<polyline fill="none" stroke="#000000" points="236,-1191.5 583,-1191.5 "/>
<text text-anchor="start" x="244" y="-1176.3" font-family="Times-Roman" font-size="14.00" fill="#000000">&#45; name : String</text>
<text text-anchor="start" x="244" y="-1161.3" font-family="Times-Roman" font-size="14.00" fill="#000000"> &#45; bedNo : int</text>
<text text-anchor="start" x="244" y="-1146.3" font-family="Times-Roman" font-size="14.00" fill="#000000"> &#45; height : int</text>
<text text-anchor="start" x="244" y="-1131.3" font-family="Times-Roman" font-size="14.00" fill="#000000"> &#45; weight : int</text>
<text text-anchor="start" x="244" y="-1116.3" font-family="Times-Roman" font-size="14.00" fill="#000000"> &#45; age : int</text>
<text text-anchor="start" x="244" y="-1101.3" font-family="Times-Roman" font-size="14.00" fill="#000000"> &#45; number : int</text>
<text text-anchor="start" x="244" y="-1086.3" font-family="Times-Roman" font-size="14.00" fill="#000000"> &#45; address : String</text>
<text text-anchor="start" x="244" y="-1071.3" font-family="Times-Roman" font-size="14.00" fill="#000000"> &#45; history : String</text>
<text text-anchor="start" x="244" y="-1056.3" font-family="Times-Roman" font-size="14.00" fill="#000000"> &#45; priDiagnosis : Impression</text>
<text text-anchor="start" x="244" y="-1041.3" font-family="Times-Roman" font-size="14.00" fill="#000000"> &#45; allergies : String</text>
<text text-anchor="start" x="244" y="-1026.3" font-family="Times-Roman" font-size="14.00" fill="#000000"> &#45; impressions : ArrayList&lt;Impression&gt;</text>
<polyline fill="none" stroke="#000000" points="236,-1018.5 583,-1018.5 "/>
<text text-anchor="start" x="244" y="-1003.3" font-family="Times-Roman" font-size="14.00" fill="#000000">+ discharge() : void</text>
<text text-anchor="start" x="244" y="-988.3" font-family="Times-Roman" font-size="14.00" fill="#000000"> + addNewImpression(newImpression: Impression)</text>
<text text-anchor="start" x="244" y="-973.3" font-family="Times-Roman" font-size="14.00" fill="#000000"> + deleteImpression(idx: int)</text>
<text text-anchor="start" x="244" y="-958.3" font-family="Times-Roman" font-size="14.00" fill="#000000"> + getImpression(idx: int)</text>
<text text-anchor="start" x="244" y="-943.3" font-family="Times-Roman" font-size="14.00" fill="#000000"> + setPriDiagnosis(idx: int)</text>
<text text-anchor="start" x="244" y="-928.3" font-family="Times-Roman" font-size="14.00" fill="#000000"> + find(searchTerm: String) : ArrayList&lt;DukeObj&gt;</text>
<text text-anchor="start" x="244" y="-913.3" font-family="Times-Roman" font-size="14.00" fill="#000000"> + toString() : String</text>
<text text-anchor="start" x="244" y="-898.3" font-family="Times-Roman" font-size="14.00" fill="#000000"> + toDisplayString() : String</text>
<text text-anchor="start" x="244" y="-883.3" font-family="Times-Roman" font-size="14.00" fill="#000000"> + report() : void</text>
<text text-anchor="start" x="244" y="-868.3" font-family="Times-Roman" font-size="14.00" fill="#000000"> + &lt;getters and setters for non&#45;ArrayList members&gt;</text>
</g>
<!-- DukeObj&#45;&gt;Patient -->
<g id="edge4" class="edge">
<title>DukeObj&#45;&gt;Patient</title>
<path fill="none" stroke="#000000" d="M566.4532,-1244.0379C559.4873,-1234.8714 551.9859,-1225.0001 544.1716,-1214.7171"/>
<polygon fill="none" stroke="#000000" points="563.8563,-1246.4053 572.6934,-1252.2496 569.4296,-1242.17 563.8563,-1246.4053"/>
</g>
<!-- Impression -->
<g id="node3" class="node">
<title>Impression</title>
<polygon fill="none" stroke="#000000" points="236,-543.5 236,-822.5 583,-822.5 583,-543.5 236,-543.5"/>
<text text-anchor="middle" x="409.5" y="-807.3" font-family="Times-Roman" font-size="14.00" fill="#000000">Impression</text>
<polyline fill="none" stroke="#000000" points="236,-799.5 583,-799.5 "/>
<text text-anchor="start" x="244" y="-784.3" font-family="Times-Roman" font-size="14.00" fill="#000000">&#45; name : String</text>
<text text-anchor="start" x="244" y="-769.3" font-family="Times-Roman" font-size="14.00" fill="#000000"> &#45; description : String</text>
<text text-anchor="start" x="244" y="-754.3" font-family="Times-Roman" font-size="14.00" fill="#000000"> &#45; evidence : ArrayList&lt;Evidence&gt;</text>
<text text-anchor="start" x="244" y="-739.3" font-family="Times-Roman" font-size="14.00" fill="#000000"> &#45; treatments : ArrayList&lt;Treatment&gt;</text>
<text text-anchor="start" x="244" y="-724.3" font-family="Times-Roman" font-size="14.00" fill="#000000"> &#45; patient : Patient</text>
<polyline fill="none" stroke="#000000" points="236,-716.5 583,-716.5 "/>
<text text-anchor="start" x="244" y="-701.3" font-family="Times-Roman" font-size="14.00" fill="#000000">+ toString() : String</text>
<text text-anchor="start" x="244" y="-686.3" font-family="Times-Roman" font-size="14.00" fill="#000000"> + toDisplayString() : String</text>
<text text-anchor="start" x="244" y="-671.3" font-family="Times-Roman" font-size="14.00" fill="#000000"> + toReportString() : String</text>
<text text-anchor="start" x="244" y="-656.3" font-family="Times-Roman" font-size="14.00" fill="#000000"> + find(searchTerm: String) : ArrayList&lt;DukeObj&gt;</text>
<text text-anchor="start" x="244" y="-641.3" font-family="Times-Roman" font-size="14.00" fill="#000000"> + addNewEvidence(newEvidence: Evidence)</text>
<text text-anchor="start" x="244" y="-626.3" font-family="Times-Roman" font-size="14.00" fill="#000000"> + deleteEvidence(idx: int)</text>
<text text-anchor="start" x="244" y="-611.3" font-family="Times-Roman" font-size="14.00" fill="#000000"> + getEvidence(idx: int)</text>
<text text-anchor="start" x="244" y="-596.3" font-family="Times-Roman" font-size="14.00" fill="#000000"> + addNewTreatment(newTreatment: Treatment)</text>
<text text-anchor="start" x="244" y="-581.3" font-family="Times-Roman" font-size="14.00" fill="#000000"> + deleteTreatment(idx: int)</text>
<text text-anchor="start" x="244" y="-566.3" font-family="Times-Roman" font-size="14.00" fill="#000000"> + getTreatment(idx: int)</text>
<text text-anchor="start" x="244" y="-551.3" font-family="Times-Roman" font-size="14.00" fill="#000000"> + &lt;getters and setters for non&#45;ArrayList members&gt;</text>
</g>
<!-- DukeObj&#45;&gt;Impression -->
<g id="edge5" class="edge">
<title>DukeObj&#45;&gt;Impression</title>
<path fill="none" stroke="#000000" d="M613.3152,-1242.1682C617.3497,-1137.6427 621.3173,-926.5649 591.5,-860 585.6891,-847.0276 578.4539,-834.5146 570.2455,-822.5512"/>
<polygon fill="none" stroke="#000000" points="609.8147,-1242.1148 612.9132,-1252.2464 616.8091,-1242.3939 609.8147,-1242.1148"/>
</g>
<!-- DukeData -->
<g id="node4" class="node">
<title>DukeData</title>
<polygon fill="none" stroke="#000000" points="601.5,-611 601.5,-755 861.5,-755 861.5,-611 601.5,-611"/>
<text text-anchor="middle" x="731.5" y="-739.8" font-family="Times-Roman" font-size="14.00" fill="#000000">{abstract} DukeData</text>
<polyline fill="none" stroke="#000000" points="601.5,-732 861.5,-732 "/>
<text text-anchor="start" x="609.5" y="-716.8" font-family="Times-Roman" font-size="14.00" fill="#000000">&#45; name : String</text>
<text text-anchor="start" x="609.5" y="-701.8" font-family="Times-Roman" font-size="14.00" fill="#000000"> &#45; impression : Impression</text>
<text text-anchor="start" x="609.5" y="-686.8" font-family="Times-Roman" font-size="14.00" fill="#000000"> &#45; priority : int</text>
<polyline fill="none" stroke="#000000" points="601.5,-679 861.5,-679 "/>
<text text-anchor="start" x="609.5" y="-663.8" font-family="Times-Roman" font-size="14.00" fill="#000000">+ toString() : String {abstract}</text>
<text text-anchor="start" x="609.5" y="-648.8" font-family="Times-Roman" font-size="14.00" fill="#000000"> + toDisplayString() : String {abstract}</text>
<text text-anchor="start" x="609.5" y="-633.8" font-family="Times-Roman" font-size="14.00" fill="#000000"> + toReportString() : String {abstract}</text>
<text text-anchor="start" x="609.5" y="-618.8" font-family="Times-Roman" font-size="14.00" fill="#000000"> + updatePriority() : void {abstract}</text>
</g>
<!-- DukeObj&#45;&gt;DukeData -->
<g id="edge6" class="edge">
<title>DukeObj&#45;&gt;DukeData</title>
<path fill="none" stroke="#000000" d="M622.8554,-1242.1778C623.4139,-1239.4141 623.9644,-1236.6777 624.5,-1234 658.8091,-1062.4809 697.6107,-860.5958 717.737,-755.2543"/>
<polygon fill="none" stroke="#000000" points="619.3705,-1241.7518 620.8102,-1252.2483 626.2305,-1243.145 619.3705,-1241.7518"/>
</g>
<!-- Patient&#45;&gt;Impression -->
<g id="edge1" class="edge">
<title>Patient&#45;&gt;Impression</title>
<path fill="none" stroke="#000000" d="M409.5,-850.1855C409.5,-844.3941 409.5,-838.6171 409.5,-832.8793"/>
<polygon fill="#000000" stroke="#000000" points="409.5,-860.25 405.0001,-850.25 409.5,-855.25 409.5001,-850.25 409.5001,-850.25 409.5001,-850.25 409.5,-855.25 414.0001,-850.25 409.5,-860.25 409.5,-860.25"/>
<polygon fill="#000000" stroke="#000000" points="409.5,-822.5989 414.0001,-832.5989 409.5,-827.5989 409.5001,-832.5989 409.5001,-832.5989 409.5001,-832.5989 409.5,-827.5989 405.0001,-832.599 409.5,-822.5989 409.5,-822.5989"/>
</g>
<!-- Evidence -->
<g id="node5" class="node">
<title>Evidence</title>
<polygon fill="none" stroke="#000000" points="279,-310 279,-469 540,-469 540,-310 279,-310"/>
<text text-anchor="middle" x="409.5" y="-453.8" font-family="Times-Roman" font-size="14.00" fill="#000000">{abstract} Evidence</text>
<polyline fill="none" stroke="#000000" points="279,-446 540,-446 "/>
<text text-anchor="start" x="287" y="-430.8" font-family="Times-Roman" font-size="14.00" fill="#000000">&#45; name : String</text>
<text text-anchor="start" x="287" y="-415.8" font-family="Times-Roman" font-size="14.00" fill="#000000"> &#45; impression : Impression</text>
<text text-anchor="start" x="287" y="-400.8" font-family="Times-Roman" font-size="14.00" fill="#000000"> &#45; priority : int</text>
<polyline fill="none" stroke="#000000" points="279,-393 540,-393 "/>
<text text-anchor="start" x="287" y="-377.8" font-family="Times-Roman" font-size="14.00" fill="#000000">+ toString() : String {abstract}</text>
<text text-anchor="start" x="287" y="-362.8" font-family="Times-Roman" font-size="14.00" fill="#000000"> + toDisplayString() : String {abstract}</text>
<text text-anchor="start" x="287" y="-347.8" font-family="Times-Roman" font-size="14.00" fill="#000000"> + toReportString() : String {abstract}</text>
<text text-anchor="start" x="287" y="-332.8" font-family="Times-Roman" font-size="14.00" fill="#000000"> + updatePriority(priorityVal: int) : void</text>
<text text-anchor="start" x="287" y="-317.8" font-family="Times-Roman" font-size="14.00" fill="#000000"> + &lt;getters and setters&gt;</text>
</g>
<!-- Impression&#45;&gt;Evidence -->
<g id="edge2" class="edge">
<title>Impression&#45;&gt;Evidence</title>
<path fill="none" stroke="#000000" d="M409.5,-533.001C409.5,-514.7501 409.5,-496.5662 409.5,-479.5792"/>
<polygon fill="#000000" stroke="#000000" points="409.5,-543.1267 405.0001,-533.1266 409.5,-538.1267 409.5001,-533.1267 409.5001,-533.1267 409.5001,-533.1267 409.5,-538.1267 414.0001,-533.1267 409.5,-543.1267 409.5,-543.1267"/>
<polygon fill="#000000" stroke="#000000" points="409.5,-469.1672 414.0001,-479.1672 409.5,-474.1672 409.5001,-479.1672 409.5001,-479.1672 409.5001,-479.1672 409.5,-474.1672 405.0001,-479.1673 409.5,-469.1672 409.5,-469.1672"/>
<text text-anchor="middle" x="437" y="-513.8" font-family="Times-Roman" font-size="14.00" fill="#000000">supports</text>
</g>
<!-- Treatment -->
<g id="node6" class="node">
<title>Treatment</title>
<polygon fill="none" stroke="#000000" points="601,-287.5 601,-491.5 862,-491.5 862,-287.5 601,-287.5"/>
<text text-anchor="middle" x="731.5" y="-476.3" font-family="Times-Roman" font-size="14.00" fill="#000000">{abstract} Treatment</text>
<polyline fill="none" stroke="#000000" points="601,-468.5 862,-468.5 "/>
<text text-anchor="start" x="609" y="-453.3" font-family="Times-Roman" font-size="14.00" fill="#000000">&#45; name : String</text>
<text text-anchor="start" x="609" y="-438.3" font-family="Times-Roman" font-size="14.00" fill="#000000"> &#45; impression : Impression</text>
<text text-anchor="start" x="609" y="-423.3" font-family="Times-Roman" font-size="14.00" fill="#000000"> &#45; status : int</text>
<text text-anchor="start" x="609" y="-408.3" font-family="Times-Roman" font-size="14.00" fill="#000000"> &#45; statusArr : String[]</text>
<text text-anchor="start" x="609" y="-393.3" font-family="Times-Roman" font-size="14.00" fill="#000000"> &#45; priority : int</text>
<polyline fill="none" stroke="#000000" points="601,-385.5 862,-385.5 "/>
<text text-anchor="start" x="609" y="-370.3" font-family="Times-Roman" font-size="14.00" fill="#000000">+ toString() : String {abstract}</text>
<text text-anchor="start" x="609" y="-355.3" font-family="Times-Roman" font-size="14.00" fill="#000000"> + toDisplayString() : String {abstract}</text>
<text text-anchor="start" x="609" y="-340.3" font-family="Times-Roman" font-size="14.00" fill="#000000"> + toReportString() : String {abstract}</text>
<text text-anchor="start" x="609" y="-325.3" font-family="Times-Roman" font-size="14.00" fill="#000000"> + updatePriority(priorityVal: int) : void</text>
<text text-anchor="start" x="609" y="-310.3" font-family="Times-Roman" font-size="14.00" fill="#000000"> + updateStatus(statusIdx: int) : void</text>
<text text-anchor="start" x="609" y="-295.3" font-family="Times-Roman" font-size="14.00" fill="#000000"> + &lt;getters and setters&gt;</text>
</g>
<!-- Impression&#45;&gt;Treatment -->
<g id="edge3" class="edge">
<title>Impression&#45;&gt;Treatment</title>
<path fill="none" stroke="#000000" d="M570.5116,-536.2394C584.392,-523.5875 598.2724,-510.9358 611.7399,-498.6603"/>
<polygon fill="#000000" stroke="#000000" points="562.9556,-543.1267 567.3148,-533.0644 566.6509,-539.7584 570.3462,-536.3902 570.3462,-536.3902 570.3462,-536.3902 566.6509,-539.7584 573.3776,-539.716 562.9556,-543.1267 562.9556,-543.1267"/>
<polygon fill="#000000" stroke="#000000" points="619.1767,-491.8816 614.8175,-501.9439 615.4814,-495.2499 611.7861,-498.6181 611.7861,-498.6181 611.7861,-498.6181 615.4814,-495.2499 608.7547,-495.2923 619.1767,-491.8816 619.1767,-491.8816"/>
<text text-anchor="middle" x="608.5" y="-513.8" font-family="Times-Roman" font-size="14.00" fill="#000000">treats</text>
</g>
<!-- DukeData&#45;&gt;Evidence -->
<g id="edge8" class="edge">
<title>DukeData&#45;&gt;Evidence</title>
<path fill="none" stroke="#000000" d="M697.0715,-601.5845C680.5633,-569.8963 658.266,-535.22 630.5,-510 616.3687,-497.1645 608.4974,-500.691 591.5,-492 574.7104,-483.4152 557.2323,-474.0889 540.0381,-464.6764"/>
<polygon fill="none" stroke="#000000" points="694.1395,-603.5405 701.7907,-610.8693 700.3797,-600.3688 694.1395,-603.5405"/>
</g>
<!-- DukeData&#45;&gt;Treatment -->
<g id="edge7" class="edge">
<title>DukeData&#45;&gt;Treatment</title>
<path fill="none" stroke="#000000" d="M731.5,-600.5263C731.5,-566.7178 731.5,-527.237 731.5,-491.6294"/>
<polygon fill="none" stroke="#000000" points="728.0001,-600.8259 731.5,-610.8259 735.0001,-600.826 728.0001,-600.8259"/>
</g>
<!-- Result -->
<g id="node7" class="node">
<title>Result</title>
<polygon fill="none" stroke="#000000" points="279,-30.5 279,-219.5 540,-219.5 540,-30.5 279,-30.5"/>
<text text-anchor="middle" x="409.5" y="-204.3" font-family="Times-Roman" font-size="14.00" fill="#000000">Result</text>
<polyline fill="none" stroke="#000000" points="279,-196.5 540,-196.5 "/>
<text text-anchor="start" x="287" y="-181.3" font-family="Times-Roman" font-size="14.00" fill="#000000">&#45; name : String</text>
<text text-anchor="start" x="287" y="-166.3" font-family="Times-Roman" font-size="14.00" fill="#000000"> &#45; impression : Impression</text>
<text text-anchor="start" x="287" y="-151.3" font-family="Times-Roman" font-size="14.00" fill="#000000"> &#45; summary : String</text>
<text text-anchor="start" x="287" y="-136.3" font-family="Times-Roman" font-size="14.00" fill="#000000"> &#45; priority : int</text>
<polyline fill="none" stroke="#000000" points="279,-128.5 540,-128.5 "/>
<text text-anchor="start" x="287" y="-113.3" font-family="Times-Roman" font-size="14.00" fill="#000000">+ toString() : String</text>
<text text-anchor="start" x="287" y="-98.3" font-family="Times-Roman" font-size="14.00" fill="#000000"> + toDisplayString() : String</text>
<text text-anchor="start" x="287" y="-83.3" font-family="Times-Roman" font-size="14.00" fill="#000000"> + toReportString() : String</text>
<text text-anchor="start" x="287" y="-68.3" font-family="Times-Roman" font-size="14.00" fill="#000000"> + updatePriority(priorityVal: int) : void</text>
<text text-anchor="start" x="287" y="-53.3" font-family="Times-Roman" font-size="14.00" fill="#000000"> + updateStatus(statusIdx: int) : void</text>
<text text-anchor="start" x="287" y="-38.3" font-family="Times-Roman" font-size="14.00" fill="#000000"> + &lt;getters and setters&gt;</text>
</g>
<!-- Evidence&#45;&gt;Result -->
<g id="edge13" class="edge">
<title>Evidence&#45;&gt;Result</title>
<path fill="none" stroke="#000000" d="M409.5,-299.6887C409.5,-273.9984 409.5,-245.9181 409.5,-219.9316"/>
<polygon fill="none" stroke="#000000" points="406.0001,-299.7826 409.5,-309.7826 413.0001,-299.7826 406.0001,-299.7826"/>
</g>
<!-- Observation -->
<g id="node8" class="node">
<title>Observation</title>
<polygon fill="none" stroke="#000000" points="0,-23 0,-227 261,-227 261,-23 0,-23"/>
<text text-anchor="middle" x="130.5" y="-211.8" font-family="Times-Roman" font-size="14.00" fill="#000000">Observation</text>
<polyline fill="none" stroke="#000000" points="0,-204 261,-204 "/>
<text text-anchor="start" x="8" y="-188.8" font-family="Times-Roman" font-size="14.00" fill="#000000">&#45; name : String</text>
<text text-anchor="start" x="8" y="-173.8" font-family="Times-Roman" font-size="14.00" fill="#000000"> &#45; impression : Impression</text>
<text text-anchor="start" x="8" y="-158.8" font-family="Times-Roman" font-size="14.00" fill="#000000"> &#45; summary : String</text>
<text text-anchor="start" x="8" y="-143.8" font-family="Times-Roman" font-size="14.00" fill="#000000"> &#45; isObjective : bool</text>
<text text-anchor="start" x="8" y="-128.8" font-family="Times-Roman" font-size="14.00" fill="#000000"> &#45; priority : int</text>
<polyline fill="none" stroke="#000000" points="0,-121 261,-121 "/>
<text text-anchor="start" x="8" y="-105.8" font-family="Times-Roman" font-size="14.00" fill="#000000">+ toString() : String</text>
<text text-anchor="start" x="8" y="-90.8" font-family="Times-Roman" font-size="14.00" fill="#000000"> + toDisplayString() : String</text>
<text text-anchor="start" x="8" y="-75.8" font-family="Times-Roman" font-size="14.00" fill="#000000"> + toReportString() : String</text>
<text text-anchor="start" x="8" y="-60.8" font-family="Times-Roman" font-size="14.00" fill="#000000"> + updatePriority(priorityVal: int) : void</text>
<text text-anchor="start" x="8" y="-45.8" font-family="Times-Roman" font-size="14.00" fill="#000000"> + updateStatus(statusIdx: int) : void</text>
<text text-anchor="start" x="8" y="-30.8" font-family="Times-Roman" font-size="14.00" fill="#000000"> + &lt;getters and setters&gt;</text>
</g>
<!-- Evidence&#45;&gt;Observation -->
<g id="edge12" class="edge">
<title>Evidence&#45;&gt;Observation</title>
<path fill="none" stroke="#000000" d="M317.9386,-302.6972C292.4477,-278.5311 264.5256,-252.0601 238.1995,-227.1022"/>
<polygon fill="none" stroke="#000000" points="315.7473,-305.4426 325.4124,-309.7826 320.5633,-300.3626 315.7473,-305.4426"/>
</g>
<!-- Investigation -->
<g id="node9" class="node">
<title>Investigation</title>
<polygon fill="none" stroke="#000000" points="558,-8 558,-242 819,-242 819,-8 558,-8"/>
<text text-anchor="middle" x="688.5" y="-226.8" font-family="Times-Roman" font-size="14.00" fill="#000000">Investigation</text>
<polyline fill="none" stroke="#000000" points="558,-219 819,-219 "/>
<text text-anchor="start" x="566" y="-203.8" font-family="Times-Roman" font-size="14.00" fill="#000000">&#45; name : String</text>
<text text-anchor="start" x="566" y="-188.8" font-family="Times-Roman" font-size="14.00" fill="#000000"> &#45; impression : Impression</text>
<text text-anchor="start" x="566" y="-173.8" font-family="Times-Roman" font-size="14.00" fill="#000000"> &#45; status : int</text>
<text text-anchor="start" x="566" y="-158.8" font-family="Times-Roman" font-size="14.00" fill="#000000"> &#45; statusArr : String[]</text>
<text text-anchor="start" x="566" y="-143.8" font-family="Times-Roman" font-size="14.00" fill="#000000"> &#45; summary : String</text>
<text text-anchor="start" x="566" y="-128.8" font-family="Times-Roman" font-size="14.00" fill="#000000"> &#45; priority : int</text>
<polyline fill="none" stroke="#000000" points="558,-121 819,-121 "/>
<text text-anchor="start" x="566" y="-105.8" font-family="Times-Roman" font-size="14.00" fill="#000000">+ toString() : String</text>
<text text-anchor="start" x="566" y="-90.8" font-family="Times-Roman" font-size="14.00" fill="#000000"> + toDisplayString() : String</text>
<text text-anchor="start" x="566" y="-75.8" font-family="Times-Roman" font-size="14.00" fill="#000000"> + toReportString() : String</text>
<text text-anchor="start" x="566" y="-60.8" font-family="Times-Roman" font-size="14.00" fill="#000000"> + updatePriority(priorityVal: int) : void</text>
<text text-anchor="start" x="566" y="-45.8" font-family="Times-Roman" font-size="14.00" fill="#000000"> + updateStatus(statusIdx: int) : void</text>
<text text-anchor="start" x="566" y="-30.8" font-family="Times-Roman" font-size="14.00" fill="#000000"> + toResult() : Result</text>
<text text-anchor="start" x="566" y="-15.8" font-family="Times-Roman" font-size="14.00" fill="#000000"> + &lt;getters and setters&gt;</text>
</g>
<!-- Treatment&#45;&gt;Investigation -->
<g id="edge9" class="edge">
<title>Treatment&#45;&gt;Investigation</title>
<path fill="none" stroke="#000000" d="M713.2411,-277.1867C711.3703,-265.6791 709.466,-253.9654 707.5866,-242.4049"/>
<polygon fill="none" stroke="#000000" points="709.8157,-277.9286 714.8751,-287.2374 716.725,-276.8053 709.8157,-277.9286"/>
</g>
<!-- Medicine -->
<g id="node10" class="node">
<title>Medicine</title>
<polygon fill="none" stroke="#000000" points="837,-.5 837,-249.5 1098,-249.5 1098,-.5 837,-.5"/>
<text text-anchor="middle" x="967.5" y="-234.3" font-family="Times-Roman" font-size="14.00" fill="#000000">Medicine</text>
<polyline fill="none" stroke="#000000" points="837,-226.5 1098,-226.5 "/>
<text text-anchor="start" x="845" y="-211.3" font-family="Times-Roman" font-size="14.00" fill="#000000">&#45; name : String</text>
<text text-anchor="start" x="845" y="-196.3" font-family="Times-Roman" font-size="14.00" fill="#000000"> &#45; impression : Impression</text>
<text text-anchor="start" x="845" y="-181.3" font-family="Times-Roman" font-size="14.00" fill="#000000"> &#45; status : int</text>
<text text-anchor="start" x="845" y="-166.3" font-family="Times-Roman" font-size="14.00" fill="#000000"> &#45; statusArr : String[]</text>
<text text-anchor="start" x="845" y="-151.3" font-family="Times-Roman" font-size="14.00" fill="#000000"> &#45; dose : String</text>
<text text-anchor="start" x="845" y="-136.3" font-family="Times-Roman" font-size="14.00" fill="#000000"> &#45; startDate : String</text>
<text text-anchor="start" x="845" y="-121.3" font-family="Times-Roman" font-size="14.00" fill="#000000"> &#45; duration : String</text>
<text text-anchor="start" x="845" y="-106.3" font-family="Times-Roman" font-size="14.00" fill="#000000"> &#45; priority : int</text>
<polyline fill="none" stroke="#000000" points="837,-98.5 1098,-98.5 "/>
<text text-anchor="start" x="845" y="-83.3" font-family="Times-Roman" font-size="14.00" fill="#000000">+ toString() : String</text>
<text text-anchor="start" x="845" y="-68.3" font-family="Times-Roman" font-size="14.00" fill="#000000"> + toDisplayString() : String</text>
<text text-anchor="start" x="845" y="-53.3" font-family="Times-Roman" font-size="14.00" fill="#000000"> + toReportString() : String</text>
<text text-anchor="start" x="845" y="-38.3" font-family="Times-Roman" font-size="14.00" fill="#000000"> + updatePriority(priorityVal: int) : void</text>
<text text-anchor="start" x="845" y="-23.3" font-family="Times-Roman" font-size="14.00" fill="#000000"> + updateStatus(statusIdx: int) : void</text>
<text text-anchor="start" x="845" y="-8.3" font-family="Times-Roman" font-size="14.00" fill="#000000"> + &lt;getters and setters&gt;</text>
</g>
<!-- Treatment&#45;&gt;Medicine -->
<g id="edge11" class="edge">
<title>Treatment&#45;&gt;Medicine</title>
<path fill="none" stroke="#000000" d="M829.4995,-279.6658C838.3781,-269.7151 847.4123,-259.5899 856.393,-249.5246"/>
<polygon fill="none" stroke="#000000" points="826.7899,-277.4456 822.7438,-287.2374 832.013,-282.1059 826.7899,-277.4456"/>
</g>
<!-- Plan -->
<g id="node11" class="node">
<title>Plan</title>
<polygon fill="none" stroke="#000000" points="1116,-15.5 1116,-234.5 1377,-234.5 1377,-15.5 1116,-15.5"/>
<text text-anchor="middle" x="1246.5" y="-219.3" font-family="Times-Roman" font-size="14.00" fill="#000000">Plan</text>
<polyline fill="none" stroke="#000000" points="1116,-211.5 1377,-211.5 "/>
<text text-anchor="start" x="1124" y="-196.3" font-family="Times-Roman" font-size="14.00" fill="#000000">&#45; name : String</text>
<text text-anchor="start" x="1124" y="-181.3" font-family="Times-Roman" font-size="14.00" fill="#000000"> &#45; impression : Impression</text>
<text text-anchor="start" x="1124" y="-166.3" font-family="Times-Roman" font-size="14.00" fill="#000000"> &#45; status : int</text>
<text text-anchor="start" x="1124" y="-151.3" font-family="Times-Roman" font-size="14.00" fill="#000000"> &#45; statusArr : String[]</text>
<text text-anchor="start" x="1124" y="-136.3" font-family="Times-Roman" font-size="14.00" fill="#000000"> &#45; summary : String</text>
<text text-anchor="start" x="1124" y="-121.3" font-family="Times-Roman" font-size="14.00" fill="#000000"> &#45; priority : int</text>
<polyline fill="none" stroke="#000000" points="1116,-113.5 1377,-113.5 "/>
<text text-anchor="start" x="1124" y="-98.3" font-family="Times-Roman" font-size="14.00" fill="#000000">+ toString() : String</text>
<text text-anchor="start" x="1124" y="-83.3" font-family="Times-Roman" font-size="14.00" fill="#000000"> + toDisplayString() : String</text>
<text text-anchor="start" x="1124" y="-68.3" font-family="Times-Roman" font-size="14.00" fill="#000000"> + toReportString() : String</text>
<text text-anchor="start" x="1124" y="-53.3" font-family="Times-Roman" font-size="14.00" fill="#000000"> + updatePriority(priorityVal: int) : void</text>
<text text-anchor="start" x="1124" y="-38.3" font-family="Times-Roman" font-size="14.00" fill="#000000"> + updateStatus(statusIdx: int) : void</text>
<text text-anchor="start" x="1124" y="-23.3" font-family="Times-Roman" font-size="14.00" fill="#000000"> + &lt;getters and setters&gt;</text>
</g>
<!-- Treatment&#45;&gt;Plan -->
<g id="edge10" class="edge">
<title>Treatment&#45;&gt;Plan</title>
<path fill="none" stroke="#000000" d="M872.0649,-351.2619C945.2823,-327.9709 1034.5138,-294.1322 1107.5,-250 1115.2762,-245.298 1123.0143,-240.1292 1130.6294,-234.6519"/>
<polygon fill="none" stroke="#000000" points="870.7901,-347.9938 862.3027,-354.3353 872.8922,-354.6707 870.7901,-347.9938"/>
</g>
</g>
</svg>
